{"glyphs":{"a":{"x_min":0,"x_max":678,"ha":678,"o":"m 12 58 b 12 24 26 7 54 7 l 219 7 b 234 7 250 25 266 62 l 410 62 b 424 25 440 7 457 7 l 621 7 b 650 7 664 24 664 59 b 664 64 664 66 663 67 l 454 647 b 442 681 427 698 408 698 l 266 698 b 249 698 236 687 228 664 l 17 84 b 14 76 12 67 12 58 z m 312 689 l 410 689 b 416 689 423 684 432 673 b 426 682 418 686 408 686 l 306 686 z m 359 626 b 359 634 368 639 386 640 l 386 639 b 386 620 379 611 366 611 b 361 611 359 616 359 626 z m 337 242 l 344 242 b 353 242 361 241 368 240 l 341 240 z m 292 198 l 299 198 b 326 198 339 195 339 190 b 339 187 332 186 317 186 b 312 186 306 186 301 187 b 298 188 294 191 290 196 z m 268 84 l 452 84 l 459 78 l 458 78 l 457 78 b 442 81 433 82 432 82 l 266 82 z m 97 24 b 88 24 81 29 74 38 b 85 33 92 30 97 28 l 219 28 l 214 24 z m 501 24 b 492 24 485 29 479 38 b 490 33 497 30 501 28 l 623 28 l 617 24 z"},"L":{"x_min":0,"x_max":460,"ha":460,"o":"m 448 62 l 448 107 b 448 184 415 222 348 222 b 344 222 327 221 297 220 l 284 220 l 277 220 l 274 231 l 274 647 b 274 681 259 698 228 698 l 54 698 b 25 698 10 682 10 651 l 10 53 b 10 20 28 4 63 4 l 394 4 b 431 4 449 23 448 62 z m 230 689 b 239 689 248 683 257 671 b 255 672 253 672 252 673 b 240 680 232 684 228 684 l 92 684 l 92 689 z m 168 629 b 168 634 181 638 208 640 l 208 638 b 208 627 200 621 183 618 b 173 616 168 620 168 629 z m 279 211 l 392 211 b 417 211 430 205 430 192 l 430 191 b 418 202 404 207 388 207 l 283 207 l 277 209 z m 228 159 b 228 161 230 162 234 162 b 239 162 246 161 254 160 l 296 160 b 318 160 343 161 370 162 l 372 162 b 375 162 378 161 381 160 b 372 149 361 144 348 144 l 257 144 b 238 144 228 149 228 159 z m 79 34 b 81 34 85 32 92 28 l 408 28 l 403 24 l 92 24 l 79 31 z"},"3":{"x_min":0,"x_max":1219,"ha":1219,"o":"m 690 802 l 615 972 l 537 801 l 351 781 l 489 652 l 450 471 l 615 565 l 775 471 l 739 657 l 876 781 z m 663 562 l 642 576 l 631 634 l 592 634 l 583 576 l 564 562 l 541 576 l 586 834 l 639 834 l 682 576 z m 612 774 l 598 672 l 628 672 z m 616 39 b 618 43 619 46 619 49 b 623 45 621 43 624 39 l 631 21 l 610 21 z m 363 -5 l 363 3 l 352 3 l 352 -5 z m 883 -5 l 883 1 l 852 1 l 852 58 l 844 58 l 844 -5 z m 832 -5 l 832 1 l 795 1 l 795 22 l 829 22 l 829 30 l 795 30 l 795 49 l 832 49 l 832 58 l 787 58 l 787 -5 z m 573 -5 l 573 21 l 598 58 l 589 58 l 577 39 b 573 35 571 31 570 28 b 568 29 566 33 564 39 l 552 58 l 541 58 l 565 21 l 565 -5 z m 409 -5 b 412 -2 414 -4 415 0 b 418 0 420 2 421 6 b 421 7 423 9 423 13 b 423 15 422 18 420 22 b 417 25 414 27 411 28 b 414 28 416 30 417 34 b 419 35 420 37 420 40 b 420 44 419 47 417 49 b 416 52 413 54 409 55 b 408 55 404 58 400 58 l 376 58 l 376 -5 z m 213 -5 l 226 42 b 226 45 227 47 228 49 b 228 47 228 45 229 42 l 241 -5 l 249 -5 l 267 58 l 259 58 l 249 16 b 246 11 247 7 246 3 b 246 11 244 16 241 25 l 232 58 l 222 58 l 210 15 b 210 12 209 8 208 3 b 207 7 208 11 205 16 l 196 58 l 187 58 l 205 -5 z m 130 -5 l 144 42 b 144 45 145 47 147 49 b 147 47 147 45 148 42 l 160 -5 l 168 -5 l 186 58 l 177 58 l 168 16 b 165 11 167 7 163 3 b 163 11 163 16 160 25 l 150 58 l 141 58 l 129 15 b 129 12 128 8 127 3 b 124 7 123 11 123 16 l 115 58 l 105 58 l 123 -5 z m 384 49 l 396 49 b 401 49 404 49 405 48 b 406 48 405 46 408 46 l 409 46 b 410 45 411 43 411 40 b 411 37 410 35 409 34 b 409 33 408 33 405 33 b 404 31 401 30 397 30 l 384 30 z m 294 -5 l 307 42 b 307 45 308 47 310 49 b 310 47 311 45 312 42 l 324 -5 l 331 -5 l 349 58 l 342 58 l 331 16 b 330 11 331 7 327 3 b 327 11 325 16 324 25 l 313 58 l 304 58 l 292 15 b 292 12 291 11 291 3 b 287 7 289 11 286 16 l 277 58 l 268 58 l 285 -5 z m 664 49 l 684 49 b 690 49 693 49 694 48 b 696 46 697 43 697 40 b 697 37 697 35 696 34 b 696 31 695 30 693 30 b 689 30 686 28 682 28 l 664 28 z m 384 22 l 408 22 b 410 22 411 21 411 19 b 413 17 414 15 414 13 l 414 7 b 412 6 410 5 409 3 l 405 3 b 404 2 402 1 400 1 l 384 1 z m 442 -5 l 442 58 l 435 58 l 435 -5 z m 985 25 b 985 34 988 41 993 45 b 996 48 1000 49 1006 49 b 1011 49 1015 49 1018 48 b 1021 47 1024 44 1026 39 b 1027 36 1027 32 1027 27 b 1027 17 1025 10 1021 7 b 1018 3 1013 1 1006 1 b 999 1 994 3 990 7 b 987 10 985 16 985 25 z m 976 25 b 976 20 978 14 981 9 b 982 5 986 1 990 -3 b 995 -6 1001 -6 1006 -6 b 1012 -6 1017 -5 1021 -3 b 1025 0 1029 4 1032 9 b 1034 12 1035 18 1035 27 b 1035 35 1034 40 1033 42 b 1029 47 1028 51 1021 54 b 1017 55 1013 58 1006 58 b 996 58 989 55 985 49 b 979 44 976 36 976 25 z m 600 -5 l 609 13 l 634 13 l 642 -5 l 651 -5 l 625 58 l 616 58 l 592 -5 z m 495 -5 l 495 1 l 466 1 l 466 58 l 459 58 l 459 -5 z m 903 -5 l 903 3 l 892 3 l 892 -5 z m 766 19 l 766 7 b 765 6 763 7 759 3 b 756 2 752 1 748 1 b 743 1 739 2 736 3 b 735 4 733 7 729 13 b 727 15 726 20 726 27 b 726 31 727 35 727 39 b 730 42 732 44 732 45 b 734 47 736 48 739 49 l 756 49 b 760 48 762 47 762 45 b 765 42 766 40 766 39 l 774 40 b 773 43 771 46 768 49 b 767 52 764 54 760 55 b 757 57 753 58 748 58 b 743 58 736 55 732 54 b 727 52 723 48 721 42 b 720 35 717 33 717 25 b 717 20 720 14 721 9 b 724 2 728 1 733 -3 b 737 -5 742 -6 748 -6 b 752 -6 758 -5 762 -5 b 766 -4 770 -1 774 3 l 774 27 l 748 27 l 748 19 z m 664 -5 l 664 22 l 678 22 b 679 22 678 21 681 21 l 682 21 b 685 18 687 20 687 16 b 688 15 689 11 693 7 l 702 -5 l 712 -5 l 700 10 b 696 14 697 17 694 21 b 693 21 692 22 688 22 b 695 26 699 27 702 28 b 705 31 706 35 706 40 b 706 44 705 47 703 49 b 702 52 700 54 697 55 b 693 55 689 58 684 58 l 657 58 l 657 -5 z m 544 -5 l 544 1 l 514 1 l 514 58 l 505 58 l 505 -5 z m 961 16 b 960 12 958 9 955 6 b 952 3 948 1 943 1 b 938 1 934 2 931 3 b 930 7 927 9 927 13 b 924 16 922 21 922 27 b 922 31 924 35 924 39 b 928 43 927 45 931 48 b 933 49 937 49 943 49 b 948 49 952 49 954 48 b 958 46 960 43 960 39 l 969 40 b 966 47 964 50 960 54 b 956 55 950 58 943 58 b 938 58 935 55 928 54 b 926 53 923 50 918 45 b 916 37 915 31 915 27 b 915 23 916 17 918 9 b 922 5 923 1 928 -3 b 932 -5 937 -6 943 -6 b 950 -6 956 -4 960 0 b 964 2 967 7 969 15 z m 1054 -5 l 1054 48 l 1072 -5 l 1080 -5 l 1098 46 l 1098 -5 l 1105 -5 l 1105 58 l 1093 58 l 1080 13 b 1078 7 1077 4 1077 3 b 1077 7 1074 9 1074 13 l 1059 58 l 1047 58 l 1047 -5 z m 616 39 b 618 43 619 46 619 49 b 623 45 621 43 624 39 l 631 21 l 610 21 z m 363 -5 l 363 3 l 352 3 l 352 -5 z m 883 -5 l 883 1 l 852 1 l 852 58 l 844 58 l 844 -5 z m 832 -5 l 832 1 l 795 1 l 795 22 l 829 22 l 829 30 l 795 30 l 795 49 l 832 49 l 832 58 l 787 58 l 787 -5 z m 573 -5 l 573 21 l 598 58 l 589 58 l 577 39 b 573 35 571 31 570 28 b 568 29 566 33 564 39 l 552 58 l 541 58 l 565 21 l 565 -5 z m 409 -5 b 412 -2 414 -4 415 0 b 418 0 420 2 421 6 b 421 7 423 9 423 13 b 423 15 422 18 420 22 b 417 25 414 27 411 28 b 414 28 416 30 417 34 b 419 35 420 37 420 40 b 420 44 419 47 417 49 b 416 52 413 54 409 55 b 408 55 404 58 400 58 l 376 58 l 376 -5 z m 213 -5 l 226 42 b 226 45 227 47 228 49 b 228 47 228 45 229 42 l 241 -5 l 249 -5 l 267 58 l 259 58 l 249 16 b 246 11 247 7 246 3 b 246 11 244 16 241 25 l 232 58 l 222 58 l 210 15 b 210 12 209 8 208 3 b 207 7 208 11 205 16 l 196 58 l 187 58 l 205 -5 z m 130 -5 l 144 42 b 144 45 145 47 147 49 b 147 47 147 45 148 42 l 160 -5 l 168 -5 l 186 58 l 177 58 l 168 16 b 165 11 167 7 163 3 b 163 11 163 16 160 25 l 150 58 l 141 58 l 129 15 b 129 12 128 8 127 3 b 124 7 123 11 123 16 l 115 58 l 105 58 l 123 -5 z m 384 49 l 396 49 b 401 49 404 49 405 48 b 406 48 405 46 408 46 l 409 46 b 410 45 411 43 411 40 b 411 37 410 35 409 34 b 409 33 408 33 405 33 b 404 31 401 30 397 30 l 384 30 z m 294 -5 l 307 42 b 307 45 308 47 310 49 b 310 47 311 45 312 42 l 324 -5 l 331 -5 l 349 58 l 342 58 l 331 16 b 330 11 331 7 327 3 b 327 11 325 16 324 25 l 313 58 l 304 58 l 292 15 b 292 12 291 11 291 3 b 287 7 289 11 286 16 l 277 58 l 268 58 l 285 -5 z m 664 49 l 684 49 b 690 49 693 49 694 48 b 696 46 697 43 697 40 b 697 37 697 35 696 34 b 696 31 695 30 693 30 b 689 30 686 28 682 28 l 664 28 z m 384 22 l 408 22 b 410 22 411 21 411 19 b 413 17 414 15 414 13 l 414 7 b 412 6 410 5 409 3 l 405 3 b 404 2 402 1 400 1 l 384 1 z m 442 -5 l 442 58 l 435 58 l 435 -5 z m 985 25 b 985 34 988 41 993 45 b 996 48 1000 49 1006 49 b 1011 49 1015 49 1018 48 b 1021 47 1024 44 1026 39 b 1027 36 1027 32 1027 27 b 1027 17 1025 10 1021 7 b 1018 3 1013 1 1006 1 b 999 1 994 3 990 7 b 987 10 985 16 985 25 z m 976 25 b 976 20 978 14 981 9 b 982 5 986 1 990 -3 b 995 -6 1001 -6 1006 -6 b 1012 -6 1017 -5 1021 -3 b 1025 0 1029 4 1032 9 b 1034 12 1035 18 1035 27 b 1035 35 1034 40 1033 42 b 1029 47 1028 51 1021 54 b 1017 55 1013 58 1006 58 b 996 58 989 55 985 49 b 979 44 976 36 976 25 z m 600 -5 l 609 13 l 634 13 l 642 -5 l 651 -5 l 625 58 l 616 58 l 592 -5 z m 495 -5 l 495 1 l 466 1 l 466 58 l 459 58 l 459 -5 z m 903 -5 l 903 3 l 892 3 l 892 -5 z m 766 19 l 766 7 b 765 6 763 7 759 3 b 756 2 752 1 748 1 b 743 1 739 2 736 3 b 735 4 733 7 729 13 b 727 15 726 20 726 27 b 726 31 727 35 727 39 b 730 42 732 44 732 45 b 734 47 736 48 739 49 l 756 49 b 760 48 762 47 762 45 b 765 42 766 40 766 39 l 774 40 b 773 43 771 46 768 49 b 767 52 764 54 760 55 b 757 57 753 58 748 58 b 743 58 736 55 732 54 b 727 52 723 48 721 42 b 720 35 717 33 717 25 b 717 20 720 14 721 9 b 724 2 728 1 733 -3 b 737 -5 742 -6 748 -6 b 752 -6 758 -5 762 -5 b 766 -4 770 -1 774 3 l 774 27 l 748 27 l 748 19 z m 664 -5 l 664 22 l 678 22 b 679 22 678 21 681 21 l 682 21 b 685 18 687 20 687 16 b 688 15 689 11 693 7 l 702 -5 l 712 -5 l 700 10 b 696 14 697 17 694 21 b 693 21 692 22 688 22 b 695 26 699 27 702 28 b 705 31 706 35 706 40 b 706 44 705 47 703 49 b 702 52 700 54 697 55 b 693 55 689 58 684 58 l 657 58 l 657 -5 z m 544 -5 l 544 1 l 514 1 l 514 58 l 505 58 l 505 -5 z m 961 16 b 960 12 958 9 955 6 b 952 3 948 1 943 1 b 938 1 934 2 931 3 b 930 7 927 9 927 13 b 924 16 922 21 922 27 b 922 31 924 35 924 39 b 928 43 927 45 931 48 b 933 49 937 49 943 49 b 948 49 952 49 954 48 b 958 46 960 43 960 39 l 969 40 b 966 47 964 50 960 54 b 956 55 950 58 943 58 b 938 58 935 55 928 54 b 926 53 923 50 918 45 b 916 37 915 31 915 27 b 915 23 916 17 918 9 b 922 5 923 1 928 -3 b 932 -5 937 -6 943 -6 b 950 -6 956 -4 960 0 b 964 2 967 7 969 15 z m 1054 -5 l 1054 48 l 1072 -5 l 1080 -5 l 1098 46 l 1098 -5 l 1105 -5 l 1105 58 l 1093 58 l 1080 13 b 1078 7 1077 4 1077 3 b 1077 7 1074 9 1074 13 l 1059 58 l 1047 58 l 1047 -5 z m 616 39 b 618 43 619 46 619 49 b 623 45 621 43 624 39 l 631 21 l 610 21 z m 363 -5 l 363 3 l 352 3 l 352 -5 z m 883 -5 l 883 1 l 852 1 l 852 58 l 844 58 l 844 -5 z m 832 -5 l 832 1 l 795 1 l 795 22 l 829 22 l 829 30 l 795 30 l 795 49 l 832 49 l 832 58 l 787 58 l 787 -5 z m 573 -5 l 573 21 l 598 58 l 589 58 l 577 39 b 573 35 571 31 570 28 b 568 29 566 33 564 39 l 552 58 l 541 58 l 565 21 l 565 -5 z m 409 -5 b 412 -2 414 -4 415 0 b 418 0 420 2 421 6 b 421 7 423 9 423 13 b 423 15 422 18 420 22 b 417 25 414 27 411 28 b 414 28 416 30 417 34 b 419 35 420 37 420 40 b 420 44 419 47 417 49 b 416 52 413 54 409 55 b 408 55 404 58 400 58 l 376 58 l 376 -5 z m 213 -5 l 226 42 b 226 45 227 47 228 49 b 228 47 228 45 229 42 l 241 -5 l 249 -5 l 267 58 l 259 58 l 249 16 b 246 11 247 7 246 3 b 246 11 244 16 241 25 l 232 58 l 222 58 l 210 15 b 210 12 209 8 208 3 b 207 7 208 11 205 16 l 196 58 l 187 58 l 205 -5 z m 130 -5 l 144 42 b 144 45 145 47 147 49 b 147 47 147 45 148 42 l 160 -5 l 168 -5 l 186 58 l 177 58 l 168 16 b 165 11 167 7 163 3 b 163 11 163 16 160 25 l 150 58 l 141 58 l 129 15 b 129 12 128 8 127 3 b 124 7 123 11 123 16 l 115 58 l 105 58 l 123 -5 z m 384 49 l 396 49 b 401 49 404 49 405 48 b 406 48 405 46 408 46 l 409 46 b 410 45 411 43 411 40 b 411 37 410 35 409 34 b 409 33 408 33 405 33 b 404 31 401 30 397 30 l 384 30 z m 294 -5 l 307 42 b 307 45 308 47 310 49 b 310 47 311 45 312 42 l 324 -5 l 331 -5 l 349 58 l 342 58 l 331 16 b 330 11 331 7 327 3 b 327 11 325 16 324 25 l 313 58 l 304 58 l 292 15 b 292 12 291 11 291 3 b 287 7 289 11 286 16 l 277 58 l 268 58 l 285 -5 z m 664 49 l 684 49 b 690 49 693 49 694 48 b 696 46 697 43 697 40 b 697 37 697 35 696 34 b 696 31 695 30 693 30 b 689 30 686 28 682 28 l 664 28 z m 384 22 l 408 22 b 410 22 411 21 411 19 b 413 17 414 15 414 13 l 414 7 b 412 6 410 5 409 3 l 405 3 b 404 2 402 1 400 1 l 384 1 z m 442 -5 l 442 58 l 435 58 l 435 -5 z m 985 25 b 985 34 988 41 993 45 b 996 48 1000 49 1006 49 b 1011 49 1015 49 1018 48 b 1021 47 1024 44 1026 39 b 1027 36 1027 32 1027 27 b 1027 17 1025 10 1021 7 b 1018 3 1013 1 1006 1 b 999 1 994 3 990 7 b 987 10 985 16 985 25 z m 976 25 b 976 20 978 14 981 9 b 982 5 986 1 990 -3 b 995 -6 1001 -6 1006 -6 b 1012 -6 1017 -5 1021 -3 b 1025 0 1029 4 1032 9 b 1034 12 1035 18 1035 27 b 1035 35 1034 40 1033 42 b 1029 47 1028 51 1021 54 b 1017 55 1013 58 1006 58 b 996 58 989 55 985 49 b 979 44 976 36 976 25 z m 600 -5 l 609 13 l 634 13 l 642 -5 l 651 -5 l 625 58 l 616 58 l 592 -5 z m 495 -5 l 495 1 l 466 1 l 466 58 l 459 58 l 459 -5 z m 903 -5 l 903 3 l 892 3 l 892 -5 z m 766 19 l 766 7 b 765 6 763 7 759 3 b 756 2 752 1 748 1 b 743 1 739 2 736 3 b 735 4 733 7 729 13 b 727 15 726 20 726 27 b 726 31 727 35 727 39 b 730 42 732 44 732 45 b 734 47 736 48 739 49 l 756 49 b 760 48 762 47 762 45 b 765 42 766 40 766 39 l 774 40 b 773 43 771 46 768 49 b 767 52 764 54 760 55 b 757 57 753 58 748 58 b 743 58 736 55 732 54 b 727 52 723 48 721 42 b 720 35 717 33 717 25 b 717 20 720 14 721 9 b 724 2 728 1 733 -3 b 737 -5 742 -6 748 -6 b 752 -6 758 -5 762 -5 b 766 -4 770 -1 774 3 l 774 27 l 748 27 l 748 19 z m 664 -5 l 664 22 l 678 22 b 679 22 678 21 681 21 l 682 21 b 685 18 687 20 687 16 b 688 15 689 11 693 7 l 702 -5 l 712 -5 l 700 10 b 696 14 697 17 694 21 b 693 21 692 22 688 22 b 695 26 699 27 702 28 b 705 31 706 35 706 40 b 706 44 705 47 703 49 b 702 52 700 54 697 55 b 693 55 689 58 684 58 l 657 58 l 657 -5 z m 544 -5 l 544 1 l 514 1 l 514 58 l 505 58 l 505 -5 z m 961 16 b 960 12 958 9 955 6 b 952 3 948 1 943 1 b 938 1 934 2 931 3 b 930 7 927 9 927 13 b 924 16 922 21 922 27 b 922 31 924 35 924 39 b 928 43 927 45 931 48 b 933 49 937 49 943 49 b 948 49 952 49 954 48 b 958 46 960 43 960 39 l 969 40 b 966 47 964 50 960 54 b 956 55 950 58 943 58 b 938 58 935 55 928 54 b 926 53 923 50 918 45 b 916 37 915 31 915 27 b 915 23 916 17 918 9 b 922 5 923 1 928 -3 b 932 -5 937 -6 943 -6 b 950 -6 956 -4 960 0 b 964 2 967 7 969 15 z m 1054 -5 l 1054 48 l 1072 -5 l 1080 -5 l 1098 46 l 1098 -5 l 1105 -5 l 1105 58 l 1093 58 l 1080 13 b 1078 7 1077 4 1077 3 b 1077 7 1074 9 1074 13 l 1059 58 l 1047 58 l 1047 -5 z m 175 111 b 174 103 170 97 166 93 b 161 88 155 85 147 85 b 141 85 135 87 130 91 b 126 93 123 98 121 105 b 118 109 117 115 117 124 b 117 133 117 140 118 144 b 120 149 124 153 130 157 b 134 161 140 163 148 163 b 154 163 159 161 163 157 b 166 156 170 152 174 144 l 186 145 b 183 156 178 163 171 165 b 167 170 159 172 148 172 b 139 172 131 170 124 166 b 117 163 112 158 109 151 b 105 144 103 135 103 124 b 103 114 105 106 109 99 b 110 93 115 87 123 81 b 131 77 139 75 148 75 b 157 75 166 78 174 84 b 181 90 185 97 187 106 z m 199 123 b 199 114 201 106 205 99 b 208 91 213 85 220 81 b 228 77 235 75 244 75 b 251 75 259 77 267 81 b 274 85 280 91 285 99 b 289 107 291 115 291 124 b 291 131 289 140 285 150 b 280 158 274 163 268 166 b 261 170 253 172 244 172 b 232 172 221 168 213 159 b 202 151 199 139 199 123 z m 213 123 b 213 138 216 148 222 153 b 229 160 236 163 244 163 b 252 163 258 161 261 157 b 267 155 271 151 273 144 b 274 137 277 132 277 124 b 277 113 274 104 267 97 b 262 89 254 85 244 85 b 235 85 227 88 220 94 b 215 101 213 111 213 123 z m 318 78 l 318 157 l 345 78 l 357 78 l 384 156 l 384 78 l 396 78 l 396 171 l 381 171 l 357 106 b 355 98 353 93 351 91 b 351 94 349 99 346 105 l 324 171 l 306 171 l 306 78 z m 429 78 l 429 117 l 453 117 b 467 117 476 119 481 124 b 486 131 489 138 489 144 b 489 149 487 153 486 157 b 482 162 479 165 478 166 b 475 169 471 171 466 171 l 417 171 l 417 78 z m 429 162 l 453 162 b 459 162 462 161 463 159 b 466 159 470 157 474 153 b 475 152 475 149 475 144 b 475 137 473 133 469 132 b 468 128 463 126 454 126 l 429 126 z m 564 78 l 564 87 l 517 87 l 517 171 l 505 171 l 505 78 z m 649 78 l 649 87 l 591 87 l 591 120 l 643 120 l 643 132 l 591 132 l 591 162 l 648 162 l 648 171 l 579 171 l 579 78 z m 703 78 l 703 162 l 735 162 l 735 171 l 658 171 l 658 162 l 690 162 l 690 78 z m 819 78 l 819 87 l 760 87 l 760 120 l 813 120 l 813 132 l 760 132 l 760 162 l 817 162 l 817 171 l 748 171 l 748 78 z m 870 106 b 870 100 871 95 873 91 b 878 84 883 80 888 79 b 892 78 901 75 909 75 b 917 75 923 78 928 79 b 932 81 936 84 940 88 b 942 91 943 96 943 103 b 943 109 942 114 940 117 b 936 121 935 123 928 126 b 924 127 918 129 907 132 b 895 137 889 139 889 139 b 886 141 885 144 885 147 b 885 151 886 154 889 157 b 891 160 897 162 907 162 b 914 162 919 160 922 157 b 925 156 928 152 930 144 l 942 145 b 942 151 940 156 936 159 b 933 164 929 165 924 169 b 920 171 914 172 907 172 b 897 172 891 172 889 171 b 884 167 880 166 877 162 b 873 158 871 153 871 147 b 871 143 872 139 876 136 b 878 131 881 128 885 126 b 889 123 895 124 904 120 b 914 118 920 117 921 117 b 925 113 927 112 930 111 b 931 109 931 106 931 103 b 931 99 931 96 930 94 b 928 90 925 88 922 88 b 918 87 913 87 909 87 b 902 87 897 87 895 88 b 890 90 887 93 885 97 b 883 99 882 103 882 108 z m 1032 78 l 1032 87 l 975 87 l 975 120 l 1027 120 l 1027 132 l 975 132 l 975 162 l 1029 162 l 1029 171 l 961 171 l 961 78 z m 1086 78 l 1086 162 l 1117 162 l 1117 171 l 1044 171 l 1044 162 l 1074 162 l 1074 78 z m 127 190 l 127 229 l 150 229 b 165 229 174 232 177 237 b 183 243 186 250 186 259 b 186 264 185 268 183 270 b 180 274 178 279 175 280 b 169 282 165 283 163 283 l 112 283 l 112 190 z m 127 274 l 150 274 b 157 274 161 274 162 273 b 164 273 166 271 169 268 b 172 264 174 260 174 256 b 174 252 172 248 168 244 b 165 242 159 241 150 241 l 127 241 z m 271 190 l 271 202 l 214 202 l 214 234 l 265 234 l 265 244 l 214 244 l 214 274 l 268 274 l 268 283 l 201 283 l 201 190 z m 303 190 l 303 234 l 316 234 b 320 234 323 233 324 231 b 326 231 328 230 330 229 b 331 229 332 226 336 223 b 337 219 342 215 343 210 l 357 190 l 372 190 l 355 216 b 353 220 350 224 345 229 b 342 232 341 230 337 234 b 357 238 364 246 364 259 b 364 261 363 266 361 274 b 359 277 356 280 351 282 b 347 283 340 283 331 283 l 288 283 l 288 190 z m 303 274 l 331 274 b 338 274 343 273 346 270 b 349 267 351 263 351 259 b 351 255 350 252 349 250 b 347 249 345 247 342 244 b 340 243 335 243 327 243 l 303 243 z m 381 222 b 381 214 381 209 384 204 b 388 197 392 196 397 192 b 405 190 413 189 420 189 b 425 189 431 190 439 192 b 443 196 446 197 450 204 b 453 208 454 212 454 217 b 454 223 453 228 450 231 b 447 235 443 237 439 241 b 433 241 426 243 417 247 b 407 249 401 251 400 253 b 397 254 396 257 396 261 b 396 265 397 268 400 270 b 403 274 409 276 417 276 b 424 276 429 274 433 270 b 436 268 439 263 441 256 l 453 259 b 453 262 451 267 447 273 b 445 277 441 280 435 283 b 431 285 425 286 417 286 b 408 286 402 285 400 283 b 393 281 389 278 388 274 b 384 270 384 265 384 261 b 384 256 384 252 385 249 b 387 247 391 244 396 240 b 400 237 406 235 415 234 b 423 230 429 232 430 229 b 434 227 438 225 441 223 b 442 222 442 220 442 216 b 442 213 441 211 441 208 b 440 206 436 204 430 202 b 429 201 424 201 420 201 b 416 201 411 202 405 204 b 401 204 397 207 396 210 b 393 214 391 218 391 222 z m 468 237 b 468 227 470 219 474 214 b 475 207 480 201 489 196 b 496 191 504 189 513 189 b 521 189 529 191 537 195 b 543 199 548 204 552 211 b 556 219 558 228 558 237 b 558 247 556 255 552 262 b 548 270 545 276 537 280 b 526 284 521 286 513 286 b 500 286 489 282 480 273 b 472 263 468 251 468 237 z m 480 237 b 480 251 483 261 489 267 b 498 272 502 276 513 276 b 520 276 526 274 531 270 b 534 268 537 264 540 259 b 544 254 544 245 544 237 b 544 226 542 217 537 210 b 531 204 523 201 513 201 b 493 201 480 213 480 237 z m 585 190 l 585 264 l 636 190 l 648 190 l 648 283 l 636 283 l 636 211 l 586 283 l 573 283 l 573 190 z m 670 190 l 682 220 l 721 220 l 732 190 l 747 190 l 708 283 l 694 283 l 658 190 z m 696 256 b 697 263 700 269 700 274 b 703 270 704 263 708 255 l 717 229 l 684 229 z m 814 190 l 814 202 l 768 202 l 768 283 l 754 283 l 754 190 z m 922 231 b 922 218 920 209 916 205 b 911 202 905 201 897 201 b 890 201 887 201 883 204 b 880 205 878 207 876 211 b 874 214 873 221 873 231 l 873 283 l 862 283 l 862 231 b 862 218 863 210 864 208 b 868 203 872 196 877 195 b 881 191 888 189 898 189 b 908 189 916 191 921 195 b 926 198 929 202 931 208 b 933 212 934 220 934 231 l 934 283 l 922 283 z m 951 222 b 951 214 953 209 957 204 b 961 197 966 196 970 192 b 977 189 982 189 993 189 b 998 189 1003 190 1009 192 b 1016 196 1017 197 1021 204 b 1024 207 1026 211 1026 217 b 1026 224 1024 229 1021 231 b 1020 235 1016 237 1009 241 b 1006 241 999 243 988 247 b 968 251 967 254 967 261 b 967 266 969 269 973 270 b 974 274 979 276 988 276 b 996 276 1002 274 1005 270 b 1009 267 1008 263 1012 256 l 1024 259 b 1024 263 1021 269 1020 273 b 1017 277 1012 280 1006 283 b 1002 287 995 286 988 286 b 980 286 974 285 970 283 b 964 281 961 278 960 274 b 957 269 955 265 955 261 b 955 256 957 252 960 249 b 961 245 964 242 969 240 b 970 236 979 235 987 234 b 995 230 1001 232 1005 229 b 1009 228 1008 226 1012 223 b 1013 222 1014 220 1014 216 b 1014 212 1013 209 1012 208 b 1009 205 1007 203 1005 202 b 1002 201 997 201 990 201 b 987 201 982 202 976 204 b 972 204 970 207 967 210 b 966 214 963 218 963 222 z m 1113 190 l 1113 202 l 1057 202 l 1057 234 l 1107 234 l 1107 244 l 1057 244 l 1057 274 l 1111 274 l 1111 283 l 1044 283 l 1044 190 z m 307 388 b 307 379 300 369 285 357 b 277 350 265 346 250 345 b 245 342 236 343 232 343 b 223 344 216 346 210 348 b 219 353 226 361 234 372 l 258 397 l 267 408 b 275 408 281 406 285 406 b 300 404 307 398 307 388 z m 324 433 b 324 430 319 426 310 420 b 303 415 298 412 294 412 l 268 408 b 270 412 272 415 274 417 l 291 432 b 306 437 314 439 316 439 b 321 439 324 437 324 433 z m 342 460 b 339 462 335 463 330 463 l 324 463 b 312 467 303 469 297 469 b 294 469 292 469 289 469 b 274 469 260 464 246 454 b 233 443 226 432 226 421 b 226 415 229 410 235 406 b 235 407 235 408 234 409 b 231 412 229 416 229 420 b 229 433 238 444 256 453 b 271 461 285 465 298 466 b 303 466 310 465 319 462 b 299 456 274 435 243 400 l 225 379 b 226 382 226 386 226 391 l 226 393 b 222 386 223 380 219 376 b 215 372 211 368 207 363 b 207 362 203 359 195 354 b 180 363 172 374 172 387 b 172 394 175 400 181 406 b 183 410 185 412 187 412 l 190 417 b 176 407 168 395 166 382 b 166 368 172 357 183 349 b 175 345 170 343 162 343 b 158 343 155 345 148 346 b 141 348 136 352 132 358 b 128 365 126 370 126 379 b 126 389 130 401 139 415 b 149 427 159 436 169 441 b 170 443 176 446 186 450 b 193 454 199 456 205 456 b 210 456 215 454 220 451 b 216 455 209 457 198 457 b 187 456 177 453 166 444 b 149 433 137 420 130 405 b 126 394 124 389 124 381 b 124 367 129 356 139 349 b 145 343 154 340 165 340 b 173 340 180 342 187 346 l 187 345 b 182 341 176 339 168 339 l 163 339 b 167 338 172 336 178 334 l 181 334 b 186 334 192 336 198 340 b 205 337 211 336 217 336 b 219 336 221 335 224 335 b 230 335 238 337 247 339 b 263 340 279 346 292 354 b 311 367 321 379 321 391 b 321 401 312 407 294 409 b 317 414 331 421 336 430 l 336 436 b 336 441 334 444 330 444 b 327 444 324 445 321 445 b 317 445 314 444 310 444 b 306 441 301 440 297 436 b 310 449 321 457 331 459 b 335 459 335 457 339 457 b 342 457 343 458 343 460 z m 346 363 b 342 359 340 358 339 357 b 332 347 326 342 321 342 b 317 342 315 343 315 346 b 315 349 318 355 324 364 l 334 375 b 340 382 343 387 343 391 b 343 392 342 393 339 393 l 334 393 b 334 391 333 388 330 385 l 325 379 l 324 379 b 317 372 312 369 309 369 b 310 368 310 367 310 367 b 313 367 315 368 316 369 l 318 369 b 312 361 309 354 309 349 b 309 343 311 340 316 340 b 321 340 327 342 334 346 b 341 353 345 359 346 363 z m 354 405 b 354 406 355 408 355 409 b 355 410 354 410 354 411 l 346 414 l 346 411 b 344 404 340 400 333 400 l 328 400 b 332 397 336 396 339 396 b 345 396 350 399 354 405 z m 406 433 b 406 436 405 439 402 441 b 400 435 397 430 394 426 l 385 417 l 367 394 b 347 369 337 354 337 348 b 337 348 337 348 337 348 b 337 343 340 340 346 339 b 352 339 358 341 363 345 b 371 351 375 356 375 361 b 372 357 370 358 369 355 b 362 345 355 340 349 340 b 346 340 345 342 345 345 b 345 351 349 359 358 370 l 360 370 b 391 407 406 428 406 433 z m 432 433 b 432 436 430 439 427 441 b 426 437 423 432 418 426 l 409 417 l 391 394 b 371 369 361 354 361 348 b 361 343 364 340 370 339 b 376 339 382 341 387 345 b 395 351 399 356 400 361 l 394 355 b 385 345 379 340 375 340 b 371 340 369 342 369 345 b 369 350 374 358 384 370 b 416 408 432 429 432 433 z m 387 309 b 380 302 376 298 372 294 b 368 293 364 292 362 292 b 362 292 361 292 361 292 b 357 292 355 294 355 298 b 355 300 359 306 366 315 b 375 324 387 330 403 333 z m 447 430 b 444 425 440 419 436 411 l 418 394 b 397 375 387 360 387 348 b 387 343 389 340 394 340 b 398 340 404 340 412 348 l 403 334 l 399 334 b 396 334 394 333 393 333 b 382 332 368 325 351 313 l 361 315 l 360 313 b 356 309 355 304 352 303 b 350 300 350 298 350 295 b 350 292 351 290 355 289 b 358 285 363 283 369 283 b 376 285 382 289 388 295 l 406 318 b 413 327 420 332 424 336 l 426 337 b 418 333 412 330 409 328 l 423 346 l 435 366 b 440 374 442 379 442 381 b 442 384 441 386 439 388 l 439 397 b 433 375 423 358 408 346 b 404 344 401 343 400 343 b 397 343 396 345 396 348 b 396 353 399 360 405 369 b 404 366 403 364 403 362 b 403 361 403 361 403 360 b 403 362 404 364 406 366 b 413 375 419 382 426 390 b 426 391 427 390 427 393 b 438 404 445 416 447 430 z m 636 450 b 620 444 601 430 579 408 b 559 420 543 426 531 427 b 536 431 541 437 549 441 b 566 450 583 456 603 456 b 607 456 612 455 618 453 z m 627 420 b 616 408 608 398 604 393 l 589 402 l 600 412 b 612 424 619 431 622 433 b 633 444 641 444 649 447 z m 663 475 l 661 475 b 659 465 656 457 652 450 l 651 451 l 642 451 l 624 456 b 614 458 606 459 601 459 b 590 459 582 458 577 457 b 556 454 539 445 525 429 b 510 429 497 425 487 418 b 475 409 469 398 469 385 b 469 376 475 366 487 354 l 484 357 b 478 364 475 372 475 381 b 475 382 475 384 475 385 b 475 397 483 406 499 412 b 502 414 509 416 519 418 b 518 416 517 414 517 411 b 517 405 521 400 528 396 b 524 402 521 405 520 405 b 520 410 521 414 523 418 l 525 418 b 544 418 561 414 576 405 l 547 375 b 522 348 499 334 478 333 b 475 333 471 334 465 336 b 450 341 442 351 442 367 b 442 378 447 391 456 405 b 464 414 473 422 484 430 b 499 439 512 444 522 444 b 529 444 533 443 535 441 l 537 441 b 533 445 526 447 516 447 b 504 444 493 444 481 433 b 464 422 453 409 447 393 b 443 388 441 380 441 370 b 441 356 446 346 456 339 l 454 339 b 461 334 470 331 481 331 b 492 331 502 333 510 337 b 502 330 495 326 488 326 b 486 326 485 327 483 327 b 481 327 480 327 480 327 b 486 324 490 322 493 322 l 498 322 b 510 322 524 330 540 346 b 556 366 566 377 573 385 l 586 399 l 601 391 b 589 374 580 358 580 346 b 580 344 579 342 579 340 b 579 332 583 328 591 328 b 597 328 606 333 618 342 b 615 333 613 326 613 322 l 633 361 b 641 373 646 386 648 400 l 648 402 b 647 403 646 404 646 405 l 646 400 b 643 389 637 377 627 363 l 621 354 b 612 341 603 334 595 334 b 591 334 589 336 589 340 b 589 342 590 345 592 349 b 593 360 600 372 612 385 b 616 384 617 382 621 382 b 622 382 622 383 622 385 b 618 388 617 387 613 388 l 637 417 b 645 425 652 435 657 447 l 658 447 l 657 448 b 660 455 661 462 661 469 b 662 470 663 471 663 472 z m 682 375 b 682 381 678 385 670 388 b 675 395 678 399 678 400 l 676 402 b 675 402 675 401 675 400 b 668 394 664 391 664 390 b 664 387 666 388 666 387 b 663 382 657 375 648 367 b 639 357 632 352 628 352 l 631 351 l 637 354 b 646 358 657 368 669 385 b 672 383 674 381 674 378 b 674 378 673 377 673 376 b 673 374 670 369 663 360 b 654 351 649 344 649 340 b 649 338 652 337 657 337 b 657 338 657 339 658 339 b 659 339 660 339 661 340 l 658 340 b 665 351 670 358 681 367 b 682 369 682 372 682 375 z m 726 378 b 722 374 719 368 715 364 l 717 367 b 717 372 715 375 711 375 b 712 375 712 374 712 372 b 712 369 710 363 706 355 b 702 350 697 347 691 345 b 689 345 688 346 688 347 b 688 347 688 348 688 348 b 688 357 704 378 711 382 b 713 384 716 385 720 385 b 721 386 722 386 723 386 b 725 386 726 384 726 379 z m 759 393 b 757 396 754 397 751 397 b 747 397 743 395 738 390 l 730 381 l 729 381 b 729 389 725 393 718 393 b 713 393 708 390 702 384 b 689 372 682 361 682 352 b 682 344 686 340 694 340 b 696 340 699 341 702 342 l 685 318 b 675 303 666 295 658 295 b 658 295 657 295 657 295 b 656 295 655 296 655 297 b 654 298 654 299 654 300 b 654 303 654 305 655 307 b 659 319 671 328 690 334 l 688 336 b 684 336 685 334 682 334 b 670 331 659 325 649 315 b 652 315 655 315 657 316 b 653 312 651 308 651 303 b 651 303 651 300 651 295 b 653 291 657 289 662 289 b 663 289 663 289 664 289 b 671 289 681 297 694 313 b 697 317 706 328 715 348 b 726 364 733 376 741 385 b 746 390 750 393 754 393 z m 781 382 b 781 385 779 388 775 391 b 774 392 773 393 771 393 b 761 393 753 388 747 379 b 736 369 730 359 730 349 b 730 343 733 340 739 340 b 740 340 740 340 741 340 b 741 340 741 340 741 340 b 743 339 744 339 746 339 b 751 339 756 341 762 345 b 771 350 774 356 778 361 b 775 359 773 357 771 355 b 764 349 755 344 745 340 b 741 340 739 341 739 343 b 738 344 738 345 738 346 b 738 349 739 353 741 357 b 742 360 743 363 745 367 b 745 362 746 359 747 358 b 747 362 746 367 753 375 l 753 376 b 762 385 768 390 772 390 l 772 384 b 770 377 766 371 759 367 b 756 367 753 368 751 370 b 754 365 757 363 760 363 l 762 363 b 763 363 764 363 765 364 b 776 370 781 376 781 382 z m 841 433 b 841 436 840 439 837 441 b 837 437 834 432 828 426 l 819 417 l 801 394 b 782 371 772 356 772 348 b 772 344 775 341 780 339 b 787 339 793 341 798 345 b 806 351 810 356 810 361 b 807 357 805 358 804 355 b 797 345 790 340 784 340 b 781 340 780 342 780 345 b 780 351 784 359 793 370 b 825 408 841 429 841 433 z m 922 387 b 913 371 900 362 892 354 b 879 344 865 339 850 339 l 844 339 b 841 340 840 343 840 349 b 840 364 849 381 868 399 b 875 404 886 410 895 415 b 896 402 905 393 922 387 z m 936 405 l 925 391 b 908 394 899 403 897 417 b 914 425 928 429 940 430 l 952 430 z m 979 457 b 970 448 962 440 958 433 b 949 436 943 435 939 435 b 936 435 933 435 930 435 b 921 435 910 434 897 430 b 901 438 904 443 907 445 b 921 457 937 463 955 463 b 956 463 958 463 960 463 b 941 459 927 453 916 444 b 932 453 954 457 979 457 z m 1074 459 b 1070 458 1063 457 1054 457 b 1048 457 1040 459 1030 462 b 1021 466 1013 465 1005 468 b 1010 472 1016 474 1020 475 b 1020 475 1025 476 1036 478 b 1034 480 1031 481 1027 481 b 1025 481 1023 482 1021 482 b 1013 482 1006 477 991 468 l 990 468 b 979 469 975 469 964 469 b 943 469 926 464 913 453 l 900 439 b 900 435 899 432 897 430 b 878 422 863 411 852 397 b 843 386 837 373 835 358 b 835 357 835 355 835 354 b 835 349 836 345 837 340 b 823 345 815 357 813 375 b 813 387 817 400 825 414 b 831 424 840 434 852 444 b 866 455 879 461 892 463 b 898 463 903 462 906 459 l 907 460 b 902 464 896 466 889 466 b 876 466 861 459 844 444 b 831 429 821 419 814 400 b 810 392 811 384 811 375 b 812 361 819 349 831 340 b 835 338 837 337 838 337 b 843 332 850 328 858 324 l 846 336 l 855 334 b 863 334 874 337 888 343 b 877 333 866 328 856 328 b 862 328 868 328 873 327 b 884 327 896 334 909 348 b 917 356 924 368 939 384 l 946 384 b 954 384 964 386 973 390 b 983 395 990 400 993 406 l 991 406 b 987 396 973 390 948 388 l 940 388 l 951 403 b 955 411 962 418 970 427 l 994 423 b 1000 421 1006 420 1011 420 b 1014 420 1018 420 1021 421 b 1032 423 1040 426 1044 430 b 1039 427 1029 426 1015 426 b 1003 426 989 429 973 430 l 994 456 b 1010 456 1023 452 1032 445 b 1028 441 1030 439 1027 438 b 1028 437 1029 436 1030 436 l 1033 436 b 1040 436 1048 439 1056 444 b 1065 448 1070 452 1074 459 z m 982 354 b 975 347 971 343 969 343 b 967 343 966 344 966 346 b 966 347 966 347 966 348 b 966 354 970 363 979 375 b 979 371 978 368 978 364 b 978 360 979 357 982 354 z m 1002 385 b 1000 378 997 373 994 370 b 994 371 993 374 991 378 b 992 377 993 376 993 375 b 993 373 992 369 990 363 b 987 360 988 361 987 358 l 987 360 l 987 358 l 982 354 b 981 355 981 357 981 360 b 981 363 983 369 988 379 b 990 383 992 386 993 387 b 995 388 997 388 999 388 b 1001 388 1002 387 1002 385 z m 1008 381 b 1008 389 1004 393 997 393 b 988 393 980 388 973 379 b 962 366 957 356 957 348 b 957 343 960 340 966 340 l 978 340 b 982 343 988 349 997 358 b 1004 368 1008 376 1008 381 z m 1057 384 b 1056 388 1054 391 1050 393 b 1043 393 1036 390 1030 385 b 1030 389 1027 392 1021 394 b 1021 393 1023 391 1023 388 b 1023 384 1020 379 1015 372 l 1006 361 b 999 354 995 347 993 340 b 992 339 992 337 992 336 b 992 334 993 331 993 327 b 997 335 999 339 1000 340 b 1001 343 1004 348 1009 354 b 1017 363 1025 370 1029 379 b 1037 385 1041 388 1041 388 b 1042 389 1044 389 1045 389 b 1047 389 1048 387 1048 384 b 1048 381 1047 382 1047 379 b 1043 371 1040 366 1038 364 b 1039 366 1039 367 1039 367 l 1039 372 b 1038 369 1037 367 1036 366 b 1032 358 1029 353 1021 345 b 1013 336 1009 325 1008 313 b 1010 321 1014 329 1021 336 l 1039 352 b 1041 354 1045 359 1051 367 b 1055 374 1057 380 1057 382 b 1057 383 1057 384 1057 384 z m 1123 405 l 1108 405 l 1096 406 l 1102 415 b 1104 417 1105 420 1105 423 b 1105 427 1104 429 1102 430 b 1098 425 1094 417 1087 408 l 1083 409 b 1055 413 1039 417 1038 417 b 1017 417 1001 412 991 402 l 993 402 b 1005 407 1017 409 1029 409 l 1042 409 b 1048 409 1053 409 1057 408 l 1083 405 l 1048 363 b 1044 355 1042 350 1042 348 b 1043 344 1046 341 1051 339 b 1058 339 1064 341 1069 345 b 1076 351 1080 356 1080 361 b 1077 360 1078 358 1077 357 l 1075 355 b 1066 345 1059 340 1054 340 b 1052 340 1051 342 1051 345 b 1051 350 1053 355 1057 360 b 1059 365 1061 367 1063 367 b 1079 390 1092 401 1093 405 z m 1126 385 b 1126 387 1126 389 1125 390 b 1125 391 1123 392 1119 394 b 1115 394 1114 396 1110 396 b 1101 396 1096 391 1096 381 b 1096 377 1097 373 1098 370 b 1099 367 1099 363 1099 358 b 1099 347 1095 342 1087 342 b 1079 342 1075 346 1075 354 b 1075 356 1077 359 1080 364 b 1082 366 1085 367 1089 367 l 1092 367 l 1086 369 b 1074 367 1068 362 1068 354 b 1068 352 1068 350 1069 349 b 1071 343 1077 340 1086 340 b 1102 340 1110 346 1110 359 b 1110 360 1110 360 1110 361 b 1107 376 1105 385 1105 387 b 1106 391 1109 393 1114 393 l 1119 393 l 1119 387 b 1119 382 1117 378 1114 375 l 1116 376 b 1123 379 1126 382 1126 385 z"},"J":{"x_min":0,"x_max":408,"ha":408,"o":"m 166 696 b 141 685 129 670 129 649 l 129 218 b 129 211 121 206 106 205 b 42 199 10 180 10 147 l 10 60 b 10 23 25 4 55 4 l 246 4 b 344 4 393 57 393 163 l 393 649 b 393 682 378 698 349 698 l 173 698 b 172 698 169 697 166 696 z m 220 689 l 351 689 b 366 689 374 684 374 674 l 373 673 b 360 682 352 686 349 686 l 213 686 z m 284 631 b 284 640 296 644 321 644 b 326 644 328 643 329 642 b 315 627 305 619 299 619 b 289 619 284 623 284 631 z m 79 185 b 82 191 99 194 130 194 l 148 194 b 134 188 111 185 80 185 z m 280 29 b 271 24 259 22 244 22 l 97 22 b 88 22 81 27 75 36 l 76 36 l 77 36 b 83 33 87 30 90 29 b 93 28 96 27 97 27 l 253 27 b 262 28 270 29 275 29 l 280 29 z"},"V":{"x_min":0,"x_max":709,"ha":709,"o":"m 14 648 b 14 637 16 626 21 613 l 231 49 b 243 18 260 2 281 2 l 428 2 b 449 2 466 18 477 49 l 688 613 b 693 625 695 637 695 648 b 695 683 678 700 645 700 l 473 700 b 451 700 435 688 426 664 l 355 478 l 352 481 l 283 664 b 274 688 258 700 236 700 l 64 700 b 31 700 14 683 14 648 z m 95 687 b 98 690 107 691 124 691 l 177 691 l 229 691 b 253 688 266 682 269 671 b 254 682 243 687 234 687 z m 529 691 l 641 691 b 656 691 668 685 679 673 l 678 673 l 676 673 b 659 683 648 688 643 688 l 511 688 z m 564 631 b 564 640 586 645 629 645 l 629 642 b 629 629 613 622 581 622 b 570 622 564 625 564 631 z m 195 630 b 195 635 203 638 219 638 b 219 629 214 623 205 619 b 198 617 195 621 195 630 z m 377 423 b 370 423 364 429 359 441 b 367 430 374 425 379 425 b 382 425 385 427 388 432 l 388 429 b 388 425 384 423 377 423 z m 312 363 b 312 367 313 369 316 369 b 327 369 340 360 354 342 b 355 342 355 342 355 341 b 355 337 351 335 344 335 b 323 335 312 344 312 363 z m 325 20 b 307 20 298 25 298 35 l 298 36 b 305 27 313 23 323 23 l 433 23 l 421 20 z"},"7":{"x_min":0,"x_max":1219,"ha":1219,"o":"m 690 802 l 615 972 l 537 801 l 351 781 l 489 652 l 450 471 l 615 565 l 775 471 l 739 657 l 876 781 z m 663 562 l 642 576 l 631 634 l 592 634 l 583 576 l 564 562 l 541 576 l 586 834 l 639 834 l 682 576 z m 612 774 l 598 672 l 628 672 z m 616 39 b 618 43 619 46 619 49 b 623 45 621 43 624 39 l 631 21 l 610 21 z m 363 -5 l 363 3 l 352 3 l 352 -5 z m 883 -5 l 883 1 l 852 1 l 852 58 l 844 58 l 844 -5 z m 832 -5 l 832 1 l 795 1 l 795 22 l 829 22 l 829 30 l 795 30 l 795 49 l 832 49 l 832 58 l 787 58 l 787 -5 z m 573 -5 l 573 21 l 598 58 l 589 58 l 577 39 b 573 35 571 31 570 28 b 568 29 566 33 564 39 l 552 58 l 541 58 l 565 21 l 565 -5 z m 409 -5 b 412 -2 414 -4 415 0 b 418 0 420 2 421 6 b 421 7 423 9 423 13 b 423 15 422 18 420 22 b 417 25 414 27 411 28 b 414 28 416 30 417 34 b 419 35 420 37 420 40 b 420 44 419 47 417 49 b 416 52 413 54 409 55 b 408 55 404 58 400 58 l 376 58 l 376 -5 z m 213 -5 l 226 42 b 226 45 227 47 228 49 b 228 47 228 45 229 42 l 241 -5 l 249 -5 l 267 58 l 259 58 l 249 16 b 246 11 247 7 246 3 b 246 11 244 16 241 25 l 232 58 l 222 58 l 210 15 b 210 12 209 8 208 3 b 207 7 208 11 205 16 l 196 58 l 187 58 l 205 -5 z m 130 -5 l 144 42 b 144 45 145 47 147 49 b 147 47 147 45 148 42 l 160 -5 l 168 -5 l 186 58 l 177 58 l 168 16 b 165 11 167 7 163 3 b 163 11 163 16 160 25 l 150 58 l 141 58 l 129 15 b 129 12 128 8 127 3 b 124 7 123 11 123 16 l 115 58 l 105 58 l 123 -5 z m 384 49 l 396 49 b 401 49 404 49 405 48 b 406 48 405 46 408 46 l 409 46 b 410 45 411 43 411 40 b 411 37 410 35 409 34 b 409 33 408 33 405 33 b 404 31 401 30 397 30 l 384 30 z m 294 -5 l 307 42 b 307 45 308 47 310 49 b 310 47 311 45 312 42 l 324 -5 l 331 -5 l 349 58 l 342 58 l 331 16 b 330 11 331 7 327 3 b 327 11 325 16 324 25 l 313 58 l 304 58 l 292 15 b 292 12 291 11 291 3 b 287 7 289 11 286 16 l 277 58 l 268 58 l 285 -5 z m 664 49 l 684 49 b 690 49 693 49 694 48 b 696 46 697 43 697 40 b 697 37 697 35 696 34 b 696 31 695 30 693 30 b 689 30 686 28 682 28 l 664 28 z m 384 22 l 408 22 b 410 22 411 21 411 19 b 413 17 414 15 414 13 l 414 7 b 412 6 410 5 409 3 l 405 3 b 404 2 402 1 400 1 l 384 1 z m 442 -5 l 442 58 l 435 58 l 435 -5 z m 985 25 b 985 34 988 41 993 45 b 996 48 1000 49 1006 49 b 1011 49 1015 49 1018 48 b 1021 47 1024 44 1026 39 b 1027 36 1027 32 1027 27 b 1027 17 1025 10 1021 7 b 1018 3 1013 1 1006 1 b 999 1 994 3 990 7 b 987 10 985 16 985 25 z m 976 25 b 976 20 978 14 981 9 b 982 5 986 1 990 -3 b 995 -6 1001 -6 1006 -6 b 1012 -6 1017 -5 1021 -3 b 1025 0 1029 4 1032 9 b 1034 12 1035 18 1035 27 b 1035 35 1034 40 1033 42 b 1029 47 1028 51 1021 54 b 1017 55 1013 58 1006 58 b 996 58 989 55 985 49 b 979 44 976 36 976 25 z m 600 -5 l 609 13 l 634 13 l 642 -5 l 651 -5 l 625 58 l 616 58 l 592 -5 z m 495 -5 l 495 1 l 466 1 l 466 58 l 459 58 l 459 -5 z m 903 -5 l 903 3 l 892 3 l 892 -5 z m 766 19 l 766 7 b 765 6 763 7 759 3 b 756 2 752 1 748 1 b 743 1 739 2 736 3 b 735 4 733 7 729 13 b 727 15 726 20 726 27 b 726 31 727 35 727 39 b 730 42 732 44 732 45 b 734 47 736 48 739 49 l 756 49 b 760 48 762 47 762 45 b 765 42 766 40 766 39 l 774 40 b 773 43 771 46 768 49 b 767 52 764 54 760 55 b 757 57 753 58 748 58 b 743 58 736 55 732 54 b 727 52 723 48 721 42 b 720 35 717 33 717 25 b 717 20 720 14 721 9 b 724 2 728 1 733 -3 b 737 -5 742 -6 748 -6 b 752 -6 758 -5 762 -5 b 766 -4 770 -1 774 3 l 774 27 l 748 27 l 748 19 z m 664 -5 l 664 22 l 678 22 b 679 22 678 21 681 21 l 682 21 b 685 18 687 20 687 16 b 688 15 689 11 693 7 l 702 -5 l 712 -5 l 700 10 b 696 14 697 17 694 21 b 693 21 692 22 688 22 b 695 26 699 27 702 28 b 705 31 706 35 706 40 b 706 44 705 47 703 49 b 702 52 700 54 697 55 b 693 55 689 58 684 58 l 657 58 l 657 -5 z m 544 -5 l 544 1 l 514 1 l 514 58 l 505 58 l 505 -5 z m 961 16 b 960 12 958 9 955 6 b 952 3 948 1 943 1 b 938 1 934 2 931 3 b 930 7 927 9 927 13 b 924 16 922 21 922 27 b 922 31 924 35 924 39 b 928 43 927 45 931 48 b 933 49 937 49 943 49 b 948 49 952 49 954 48 b 958 46 960 43 960 39 l 969 40 b 966 47 964 50 960 54 b 956 55 950 58 943 58 b 938 58 935 55 928 54 b 926 53 923 50 918 45 b 916 37 915 31 915 27 b 915 23 916 17 918 9 b 922 5 923 1 928 -3 b 932 -5 937 -6 943 -6 b 950 -6 956 -4 960 0 b 964 2 967 7 969 15 z m 1054 -5 l 1054 48 l 1072 -5 l 1080 -5 l 1098 46 l 1098 -5 l 1105 -5 l 1105 58 l 1093 58 l 1080 13 b 1078 7 1077 4 1077 3 b 1077 7 1074 9 1074 13 l 1059 58 l 1047 58 l 1047 -5 z m 616 39 b 618 43 619 46 619 49 b 623 45 621 43 624 39 l 631 21 l 610 21 z m 363 -5 l 363 3 l 352 3 l 352 -5 z m 883 -5 l 883 1 l 852 1 l 852 58 l 844 58 l 844 -5 z m 832 -5 l 832 1 l 795 1 l 795 22 l 829 22 l 829 30 l 795 30 l 795 49 l 832 49 l 832 58 l 787 58 l 787 -5 z m 573 -5 l 573 21 l 598 58 l 589 58 l 577 39 b 573 35 571 31 570 28 b 568 29 566 33 564 39 l 552 58 l 541 58 l 565 21 l 565 -5 z m 409 -5 b 412 -2 414 -4 415 0 b 418 0 420 2 421 6 b 421 7 423 9 423 13 b 423 15 422 18 420 22 b 417 25 414 27 411 28 b 414 28 416 30 417 34 b 419 35 420 37 420 40 b 420 44 419 47 417 49 b 416 52 413 54 409 55 b 408 55 404 58 400 58 l 376 58 l 376 -5 z m 213 -5 l 226 42 b 226 45 227 47 228 49 b 228 47 228 45 229 42 l 241 -5 l 249 -5 l 267 58 l 259 58 l 249 16 b 246 11 247 7 246 3 b 246 11 244 16 241 25 l 232 58 l 222 58 l 210 15 b 210 12 209 8 208 3 b 207 7 208 11 205 16 l 196 58 l 187 58 l 205 -5 z m 130 -5 l 144 42 b 144 45 145 47 147 49 b 147 47 147 45 148 42 l 160 -5 l 168 -5 l 186 58 l 177 58 l 168 16 b 165 11 167 7 163 3 b 163 11 163 16 160 25 l 150 58 l 141 58 l 129 15 b 129 12 128 8 127 3 b 124 7 123 11 123 16 l 115 58 l 105 58 l 123 -5 z m 384 49 l 396 49 b 401 49 404 49 405 48 b 406 48 405 46 408 46 l 409 46 b 410 45 411 43 411 40 b 411 37 410 35 409 34 b 409 33 408 33 405 33 b 404 31 401 30 397 30 l 384 30 z m 294 -5 l 307 42 b 307 45 308 47 310 49 b 310 47 311 45 312 42 l 324 -5 l 331 -5 l 349 58 l 342 58 l 331 16 b 330 11 331 7 327 3 b 327 11 325 16 324 25 l 313 58 l 304 58 l 292 15 b 292 12 291 11 291 3 b 287 7 289 11 286 16 l 277 58 l 268 58 l 285 -5 z m 664 49 l 684 49 b 690 49 693 49 694 48 b 696 46 697 43 697 40 b 697 37 697 35 696 34 b 696 31 695 30 693 30 b 689 30 686 28 682 28 l 664 28 z m 384 22 l 408 22 b 410 22 411 21 411 19 b 413 17 414 15 414 13 l 414 7 b 412 6 410 5 409 3 l 405 3 b 404 2 402 1 400 1 l 384 1 z m 442 -5 l 442 58 l 435 58 l 435 -5 z m 985 25 b 985 34 988 41 993 45 b 996 48 1000 49 1006 49 b 1011 49 1015 49 1018 48 b 1021 47 1024 44 1026 39 b 1027 36 1027 32 1027 27 b 1027 17 1025 10 1021 7 b 1018 3 1013 1 1006 1 b 999 1 994 3 990 7 b 987 10 985 16 985 25 z m 976 25 b 976 20 978 14 981 9 b 982 5 986 1 990 -3 b 995 -6 1001 -6 1006 -6 b 1012 -6 1017 -5 1021 -3 b 1025 0 1029 4 1032 9 b 1034 12 1035 18 1035 27 b 1035 35 1034 40 1033 42 b 1029 47 1028 51 1021 54 b 1017 55 1013 58 1006 58 b 996 58 989 55 985 49 b 979 44 976 36 976 25 z m 600 -5 l 609 13 l 634 13 l 642 -5 l 651 -5 l 625 58 l 616 58 l 592 -5 z m 495 -5 l 495 1 l 466 1 l 466 58 l 459 58 l 459 -5 z m 903 -5 l 903 3 l 892 3 l 892 -5 z m 766 19 l 766 7 b 765 6 763 7 759 3 b 756 2 752 1 748 1 b 743 1 739 2 736 3 b 735 4 733 7 729 13 b 727 15 726 20 726 27 b 726 31 727 35 727 39 b 730 42 732 44 732 45 b 734 47 736 48 739 49 l 756 49 b 760 48 762 47 762 45 b 765 42 766 40 766 39 l 774 40 b 773 43 771 46 768 49 b 767 52 764 54 760 55 b 757 57 753 58 748 58 b 743 58 736 55 732 54 b 727 52 723 48 721 42 b 720 35 717 33 717 25 b 717 20 720 14 721 9 b 724 2 728 1 733 -3 b 737 -5 742 -6 748 -6 b 752 -6 758 -5 762 -5 b 766 -4 770 -1 774 3 l 774 27 l 748 27 l 748 19 z m 664 -5 l 664 22 l 678 22 b 679 22 678 21 681 21 l 682 21 b 685 18 687 20 687 16 b 688 15 689 11 693 7 l 702 -5 l 712 -5 l 700 10 b 696 14 697 17 694 21 b 693 21 692 22 688 22 b 695 26 699 27 702 28 b 705 31 706 35 706 40 b 706 44 705 47 703 49 b 702 52 700 54 697 55 b 693 55 689 58 684 58 l 657 58 l 657 -5 z m 544 -5 l 544 1 l 514 1 l 514 58 l 505 58 l 505 -5 z m 961 16 b 960 12 958 9 955 6 b 952 3 948 1 943 1 b 938 1 934 2 931 3 b 930 7 927 9 927 13 b 924 16 922 21 922 27 b 922 31 924 35 924 39 b 928 43 927 45 931 48 b 933 49 937 49 943 49 b 948 49 952 49 954 48 b 958 46 960 43 960 39 l 969 40 b 966 47 964 50 960 54 b 956 55 950 58 943 58 b 938 58 935 55 928 54 b 926 53 923 50 918 45 b 916 37 915 31 915 27 b 915 23 916 17 918 9 b 922 5 923 1 928 -3 b 932 -5 937 -6 943 -6 b 950 -6 956 -4 960 0 b 964 2 967 7 969 15 z m 1054 -5 l 1054 48 l 1072 -5 l 1080 -5 l 1098 46 l 1098 -5 l 1105 -5 l 1105 58 l 1093 58 l 1080 13 b 1078 7 1077 4 1077 3 b 1077 7 1074 9 1074 13 l 1059 58 l 1047 58 l 1047 -5 z m 616 39 b 618 43 619 46 619 49 b 623 45 621 43 624 39 l 631 21 l 610 21 z m 363 -5 l 363 3 l 352 3 l 352 -5 z m 883 -5 l 883 1 l 852 1 l 852 58 l 844 58 l 844 -5 z m 832 -5 l 832 1 l 795 1 l 795 22 l 829 22 l 829 30 l 795 30 l 795 49 l 832 49 l 832 58 l 787 58 l 787 -5 z m 573 -5 l 573 21 l 598 58 l 589 58 l 577 39 b 573 35 571 31 570 28 b 568 29 566 33 564 39 l 552 58 l 541 58 l 565 21 l 565 -5 z m 409 -5 b 412 -2 414 -4 415 0 b 418 0 420 2 421 6 b 421 7 423 9 423 13 b 423 15 422 18 420 22 b 417 25 414 27 411 28 b 414 28 416 30 417 34 b 419 35 420 37 420 40 b 420 44 419 47 417 49 b 416 52 413 54 409 55 b 408 55 404 58 400 58 l 376 58 l 376 -5 z m 213 -5 l 226 42 b 226 45 227 47 228 49 b 228 47 228 45 229 42 l 241 -5 l 249 -5 l 267 58 l 259 58 l 249 16 b 246 11 247 7 246 3 b 246 11 244 16 241 25 l 232 58 l 222 58 l 210 15 b 210 12 209 8 208 3 b 207 7 208 11 205 16 l 196 58 l 187 58 l 205 -5 z m 130 -5 l 144 42 b 144 45 145 47 147 49 b 147 47 147 45 148 42 l 160 -5 l 168 -5 l 186 58 l 177 58 l 168 16 b 165 11 167 7 163 3 b 163 11 163 16 160 25 l 150 58 l 141 58 l 129 15 b 129 12 128 8 127 3 b 124 7 123 11 123 16 l 115 58 l 105 58 l 123 -5 z m 384 49 l 396 49 b 401 49 404 49 405 48 b 406 48 405 46 408 46 l 409 46 b 410 45 411 43 411 40 b 411 37 410 35 409 34 b 409 33 408 33 405 33 b 404 31 401 30 397 30 l 384 30 z m 294 -5 l 307 42 b 307 45 308 47 310 49 b 310 47 311 45 312 42 l 324 -5 l 331 -5 l 349 58 l 342 58 l 331 16 b 330 11 331 7 327 3 b 327 11 325 16 324 25 l 313 58 l 304 58 l 292 15 b 292 12 291 11 291 3 b 287 7 289 11 286 16 l 277 58 l 268 58 l 285 -5 z m 664 49 l 684 49 b 690 49 693 49 694 48 b 696 46 697 43 697 40 b 697 37 697 35 696 34 b 696 31 695 30 693 30 b 689 30 686 28 682 28 l 664 28 z m 384 22 l 408 22 b 410 22 411 21 411 19 b 413 17 414 15 414 13 l 414 7 b 412 6 410 5 409 3 l 405 3 b 404 2 402 1 400 1 l 384 1 z m 442 -5 l 442 58 l 435 58 l 435 -5 z m 985 25 b 985 34 988 41 993 45 b 996 48 1000 49 1006 49 b 1011 49 1015 49 1018 48 b 1021 47 1024 44 1026 39 b 1027 36 1027 32 1027 27 b 1027 17 1025 10 1021 7 b 1018 3 1013 1 1006 1 b 999 1 994 3 990 7 b 987 10 985 16 985 25 z m 976 25 b 976 20 978 14 981 9 b 982 5 986 1 990 -3 b 995 -6 1001 -6 1006 -6 b 1012 -6 1017 -5 1021 -3 b 1025 0 1029 4 1032 9 b 1034 12 1035 18 1035 27 b 1035 35 1034 40 1033 42 b 1029 47 1028 51 1021 54 b 1017 55 1013 58 1006 58 b 996 58 989 55 985 49 b 979 44 976 36 976 25 z m 600 -5 l 609 13 l 634 13 l 642 -5 l 651 -5 l 625 58 l 616 58 l 592 -5 z m 495 -5 l 495 1 l 466 1 l 466 58 l 459 58 l 459 -5 z m 903 -5 l 903 3 l 892 3 l 892 -5 z m 766 19 l 766 7 b 765 6 763 7 759 3 b 756 2 752 1 748 1 b 743 1 739 2 736 3 b 735 4 733 7 729 13 b 727 15 726 20 726 27 b 726 31 727 35 727 39 b 730 42 732 44 732 45 b 734 47 736 48 739 49 l 756 49 b 760 48 762 47 762 45 b 765 42 766 40 766 39 l 774 40 b 773 43 771 46 768 49 b 767 52 764 54 760 55 b 757 57 753 58 748 58 b 743 58 736 55 732 54 b 727 52 723 48 721 42 b 720 35 717 33 717 25 b 717 20 720 14 721 9 b 724 2 728 1 733 -3 b 737 -5 742 -6 748 -6 b 752 -6 758 -5 762 -5 b 766 -4 770 -1 774 3 l 774 27 l 748 27 l 748 19 z m 664 -5 l 664 22 l 678 22 b 679 22 678 21 681 21 l 682 21 b 685 18 687 20 687 16 b 688 15 689 11 693 7 l 702 -5 l 712 -5 l 700 10 b 696 14 697 17 694 21 b 693 21 692 22 688 22 b 695 26 699 27 702 28 b 705 31 706 35 706 40 b 706 44 705 47 703 49 b 702 52 700 54 697 55 b 693 55 689 58 684 58 l 657 58 l 657 -5 z m 544 -5 l 544 1 l 514 1 l 514 58 l 505 58 l 505 -5 z m 961 16 b 960 12 958 9 955 6 b 952 3 948 1 943 1 b 938 1 934 2 931 3 b 930 7 927 9 927 13 b 924 16 922 21 922 27 b 922 31 924 35 924 39 b 928 43 927 45 931 48 b 933 49 937 49 943 49 b 948 49 952 49 954 48 b 958 46 960 43 960 39 l 969 40 b 966 47 964 50 960 54 b 956 55 950 58 943 58 b 938 58 935 55 928 54 b 926 53 923 50 918 45 b 916 37 915 31 915 27 b 915 23 916 17 918 9 b 922 5 923 1 928 -3 b 932 -5 937 -6 943 -6 b 950 -6 956 -4 960 0 b 964 2 967 7 969 15 z m 1054 -5 l 1054 48 l 1072 -5 l 1080 -5 l 1098 46 l 1098 -5 l 1105 -5 l 1105 58 l 1093 58 l 1080 13 b 1078 7 1077 4 1077 3 b 1077 7 1074 9 1074 13 l 1059 58 l 1047 58 l 1047 -5 z m 175 111 b 174 103 170 97 166 93 b 161 88 155 85 147 85 b 141 85 135 87 130 91 b 126 93 123 98 121 105 b 118 109 117 115 117 124 b 117 133 117 140 118 144 b 120 149 124 153 130 157 b 134 161 140 163 148 163 b 154 163 159 161 163 157 b 166 156 170 152 174 144 l 186 145 b 183 156 178 163 171 165 b 167 170 159 172 148 172 b 139 172 131 170 124 166 b 117 163 112 158 109 151 b 105 144 103 135 103 124 b 103 114 105 106 109 99 b 110 93 115 87 123 81 b 131 77 139 75 148 75 b 157 75 166 78 174 84 b 181 90 185 97 187 106 z m 199 123 b 199 114 201 106 205 99 b 208 91 213 85 220 81 b 228 77 235 75 244 75 b 251 75 259 77 267 81 b 274 85 280 91 285 99 b 289 107 291 115 291 124 b 291 131 289 140 285 150 b 280 158 274 163 268 166 b 261 170 253 172 244 172 b 232 172 221 168 213 159 b 202 151 199 139 199 123 z m 213 123 b 213 138 216 148 222 153 b 229 160 236 163 244 163 b 252 163 258 161 261 157 b 267 155 271 151 273 144 b 274 137 277 132 277 124 b 277 113 274 104 267 97 b 262 89 254 85 244 85 b 235 85 227 88 220 94 b 215 101 213 111 213 123 z m 318 78 l 318 157 l 345 78 l 357 78 l 384 156 l 384 78 l 396 78 l 396 171 l 381 171 l 357 106 b 355 98 353 93 351 91 b 351 94 349 99 346 105 l 324 171 l 306 171 l 306 78 z m 429 78 l 429 117 l 453 117 b 467 117 476 119 481 124 b 486 131 489 138 489 144 b 489 149 487 153 486 157 b 482 162 479 165 478 166 b 475 169 471 171 466 171 l 417 171 l 417 78 z m 429 162 l 453 162 b 459 162 462 161 463 159 b 466 159 470 157 474 153 b 475 152 475 149 475 144 b 475 137 473 133 469 132 b 468 128 463 126 454 126 l 429 126 z m 564 78 l 564 87 l 517 87 l 517 171 l 505 171 l 505 78 z m 649 78 l 649 87 l 591 87 l 591 120 l 643 120 l 643 132 l 591 132 l 591 162 l 648 162 l 648 171 l 579 171 l 579 78 z m 703 78 l 703 162 l 735 162 l 735 171 l 658 171 l 658 162 l 690 162 l 690 78 z m 819 78 l 819 87 l 760 87 l 760 120 l 813 120 l 813 132 l 760 132 l 760 162 l 817 162 l 817 171 l 748 171 l 748 78 z m 870 106 b 870 100 871 95 873 91 b 878 84 883 80 888 79 b 892 78 901 75 909 75 b 917 75 923 78 928 79 b 932 81 936 84 940 88 b 942 91 943 96 943 103 b 943 109 942 114 940 117 b 936 121 935 123 928 126 b 924 127 918 129 907 132 b 895 137 889 139 889 139 b 886 141 885 144 885 147 b 885 151 886 154 889 157 b 891 160 897 162 907 162 b 914 162 919 160 922 157 b 925 156 928 152 930 144 l 942 145 b 942 151 940 156 936 159 b 933 164 929 165 924 169 b 920 171 914 172 907 172 b 897 172 891 172 889 171 b 884 167 880 166 877 162 b 873 158 871 153 871 147 b 871 143 872 139 876 136 b 878 131 881 128 885 126 b 889 123 895 124 904 120 b 914 118 920 117 921 117 b 925 113 927 112 930 111 b 931 109 931 106 931 103 b 931 99 931 96 930 94 b 928 90 925 88 922 88 b 918 87 913 87 909 87 b 902 87 897 87 895 88 b 890 90 887 93 885 97 b 883 99 882 103 882 108 z m 1032 78 l 1032 87 l 975 87 l 975 120 l 1027 120 l 1027 132 l 975 132 l 975 162 l 1029 162 l 1029 171 l 961 171 l 961 78 z m 1086 78 l 1086 162 l 1117 162 l 1117 171 l 1044 171 l 1044 162 l 1074 162 l 1074 78 z m 127 190 l 127 229 l 150 229 b 165 229 174 232 177 237 b 183 243 186 250 186 259 b 186 264 185 268 183 270 b 180 274 178 279 175 280 b 169 282 165 283 163 283 l 112 283 l 112 190 z m 127 274 l 150 274 b 157 274 161 274 162 273 b 164 273 166 271 169 268 b 172 264 174 260 174 256 b 174 252 172 248 168 244 b 165 242 159 241 150 241 l 127 241 z m 271 190 l 271 202 l 214 202 l 214 234 l 265 234 l 265 244 l 214 244 l 214 274 l 268 274 l 268 283 l 201 283 l 201 190 z m 303 190 l 303 234 l 316 234 b 320 234 323 233 324 231 b 326 231 328 230 330 229 b 331 229 332 226 336 223 b 337 219 342 215 343 210 l 357 190 l 372 190 l 355 216 b 353 220 350 224 345 229 b 342 232 341 230 337 234 b 357 238 364 246 364 259 b 364 261 363 266 361 274 b 359 277 356 280 351 282 b 347 283 340 283 331 283 l 288 283 l 288 190 z m 303 274 l 331 274 b 338 274 343 273 346 270 b 349 267 351 263 351 259 b 351 255 350 252 349 250 b 347 249 345 247 342 244 b 340 243 335 243 327 243 l 303 243 z m 381 222 b 381 214 381 209 384 204 b 388 197 392 196 397 192 b 405 190 413 189 420 189 b 425 189 431 190 439 192 b 443 196 446 197 450 204 b 453 208 454 212 454 217 b 454 223 453 228 450 231 b 447 235 443 237 439 241 b 433 241 426 243 417 247 b 407 249 401 251 400 253 b 397 254 396 257 396 261 b 396 265 397 268 400 270 b 403 274 409 276 417 276 b 424 276 429 274 433 270 b 436 268 439 263 441 256 l 453 259 b 453 262 451 267 447 273 b 445 277 441 280 435 283 b 431 285 425 286 417 286 b 408 286 402 285 400 283 b 393 281 389 278 388 274 b 384 270 384 265 384 261 b 384 256 384 252 385 249 b 387 247 391 244 396 240 b 400 237 406 235 415 234 b 423 230 429 232 430 229 b 434 227 438 225 441 223 b 442 222 442 220 442 216 b 442 213 441 211 441 208 b 440 206 436 204 430 202 b 429 201 424 201 420 201 b 416 201 411 202 405 204 b 401 204 397 207 396 210 b 393 214 391 218 391 222 z m 468 237 b 468 227 470 219 474 214 b 475 207 480 201 489 196 b 496 191 504 189 513 189 b 521 189 529 191 537 195 b 543 199 548 204 552 211 b 556 219 558 228 558 237 b 558 247 556 255 552 262 b 548 270 545 276 537 280 b 526 284 521 286 513 286 b 500 286 489 282 480 273 b 472 263 468 251 468 237 z m 480 237 b 480 251 483 261 489 267 b 498 272 502 276 513 276 b 520 276 526 274 531 270 b 534 268 537 264 540 259 b 544 254 544 245 544 237 b 544 226 542 217 537 210 b 531 204 523 201 513 201 b 493 201 480 213 480 237 z m 585 190 l 585 264 l 636 190 l 648 190 l 648 283 l 636 283 l 636 211 l 586 283 l 573 283 l 573 190 z m 670 190 l 682 220 l 721 220 l 732 190 l 747 190 l 708 283 l 694 283 l 658 190 z m 696 256 b 697 263 700 269 700 274 b 703 270 704 263 708 255 l 717 229 l 684 229 z m 814 190 l 814 202 l 768 202 l 768 283 l 754 283 l 754 190 z m 922 231 b 922 218 920 209 916 205 b 911 202 905 201 897 201 b 890 201 887 201 883 204 b 880 205 878 207 876 211 b 874 214 873 221 873 231 l 873 283 l 862 283 l 862 231 b 862 218 863 210 864 208 b 868 203 872 196 877 195 b 881 191 888 189 898 189 b 908 189 916 191 921 195 b 926 198 929 202 931 208 b 933 212 934 220 934 231 l 934 283 l 922 283 z m 951 222 b 951 214 953 209 957 204 b 961 197 966 196 970 192 b 977 189 982 189 993 189 b 998 189 1003 190 1009 192 b 1016 196 1017 197 1021 204 b 1024 207 1026 211 1026 217 b 1026 224 1024 229 1021 231 b 1020 235 1016 237 1009 241 b 1006 241 999 243 988 247 b 968 251 967 254 967 261 b 967 266 969 269 973 270 b 974 274 979 276 988 276 b 996 276 1002 274 1005 270 b 1009 267 1008 263 1012 256 l 1024 259 b 1024 263 1021 269 1020 273 b 1017 277 1012 280 1006 283 b 1002 287 995 286 988 286 b 980 286 974 285 970 283 b 964 281 961 278 960 274 b 957 269 955 265 955 261 b 955 256 957 252 960 249 b 961 245 964 242 969 240 b 970 236 979 235 987 234 b 995 230 1001 232 1005 229 b 1009 228 1008 226 1012 223 b 1013 222 1014 220 1014 216 b 1014 212 1013 209 1012 208 b 1009 205 1007 203 1005 202 b 1002 201 997 201 990 201 b 987 201 982 202 976 204 b 972 204 970 207 967 210 b 966 214 963 218 963 222 z m 1113 190 l 1113 202 l 1057 202 l 1057 234 l 1107 234 l 1107 244 l 1057 244 l 1057 274 l 1111 274 l 1111 283 l 1044 283 l 1044 190 z m 307 388 b 307 379 300 369 285 357 b 277 350 265 346 250 345 b 245 342 236 343 232 343 b 223 344 216 346 210 348 b 219 353 226 361 234 372 l 258 397 l 267 408 b 275 408 281 406 285 406 b 300 404 307 398 307 388 z m 324 433 b 324 430 319 426 310 420 b 303 415 298 412 294 412 l 268 408 b 270 412 272 415 274 417 l 291 432 b 306 437 314 439 316 439 b 321 439 324 437 324 433 z m 342 460 b 339 462 335 463 330 463 l 324 463 b 312 467 303 469 297 469 b 294 469 292 469 289 469 b 274 469 260 464 246 454 b 233 443 226 432 226 421 b 226 415 229 410 235 406 b 235 407 235 408 234 409 b 231 412 229 416 229 420 b 229 433 238 444 256 453 b 271 461 285 465 298 466 b 303 466 310 465 319 462 b 299 456 274 435 243 400 l 225 379 b 226 382 226 386 226 391 l 226 393 b 222 386 223 380 219 376 b 215 372 211 368 207 363 b 207 362 203 359 195 354 b 180 363 172 374 172 387 b 172 394 175 400 181 406 b 183 410 185 412 187 412 l 190 417 b 176 407 168 395 166 382 b 166 368 172 357 183 349 b 175 345 170 343 162 343 b 158 343 155 345 148 346 b 141 348 136 352 132 358 b 128 365 126 370 126 379 b 126 389 130 401 139 415 b 149 427 159 436 169 441 b 170 443 176 446 186 450 b 193 454 199 456 205 456 b 210 456 215 454 220 451 b 216 455 209 457 198 457 b 187 456 177 453 166 444 b 149 433 137 420 130 405 b 126 394 124 389 124 381 b 124 367 129 356 139 349 b 145 343 154 340 165 340 b 173 340 180 342 187 346 l 187 345 b 182 341 176 339 168 339 l 163 339 b 167 338 172 336 178 334 l 181 334 b 186 334 192 336 198 340 b 205 337 211 336 217 336 b 219 336 221 335 224 335 b 230 335 238 337 247 339 b 263 340 279 346 292 354 b 311 367 321 379 321 391 b 321 401 312 407 294 409 b 317 414 331 421 336 430 l 336 436 b 336 441 334 444 330 444 b 327 444 324 445 321 445 b 317 445 314 444 310 444 b 306 441 301 440 297 436 b 310 449 321 457 331 459 b 335 459 335 457 339 457 b 342 457 343 458 343 460 z m 346 363 b 342 359 340 358 339 357 b 332 347 326 342 321 342 b 317 342 315 343 315 346 b 315 349 318 355 324 364 l 334 375 b 340 382 343 387 343 391 b 343 392 342 393 339 393 l 334 393 b 334 391 333 388 330 385 l 325 379 l 324 379 b 317 372 312 369 309 369 b 310 368 310 367 310 367 b 313 367 315 368 316 369 l 318 369 b 312 361 309 354 309 349 b 309 343 311 340 316 340 b 321 340 327 342 334 346 b 341 353 345 359 346 363 z m 354 405 b 354 406 355 408 355 409 b 355 410 354 410 354 411 l 346 414 l 346 411 b 344 404 340 400 333 400 l 328 400 b 332 397 336 396 339 396 b 345 396 350 399 354 405 z m 406 433 b 406 436 405 439 402 441 b 400 435 397 430 394 426 l 385 417 l 367 394 b 347 369 337 354 337 348 b 337 348 337 348 337 348 b 337 343 340 340 346 339 b 352 339 358 341 363 345 b 371 351 375 356 375 361 b 372 357 370 358 369 355 b 362 345 355 340 349 340 b 346 340 345 342 345 345 b 345 351 349 359 358 370 l 360 370 b 391 407 406 428 406 433 z m 432 433 b 432 436 430 439 427 441 b 426 437 423 432 418 426 l 409 417 l 391 394 b 371 369 361 354 361 348 b 361 343 364 340 370 339 b 376 339 382 341 387 345 b 395 351 399 356 400 361 l 394 355 b 385 345 379 340 375 340 b 371 340 369 342 369 345 b 369 350 374 358 384 370 b 416 408 432 429 432 433 z m 387 309 b 380 302 376 298 372 294 b 368 293 364 292 362 292 b 362 292 361 292 361 292 b 357 292 355 294 355 298 b 355 300 359 306 366 315 b 375 324 387 330 403 333 z m 447 430 b 444 425 440 419 436 411 l 418 394 b 397 375 387 360 387 348 b 387 343 389 340 394 340 b 398 340 404 340 412 348 l 403 334 l 399 334 b 396 334 394 333 393 333 b 382 332 368 325 351 313 l 361 315 l 360 313 b 356 309 355 304 352 303 b 350 300 350 298 350 295 b 350 292 351 290 355 289 b 358 285 363 283 369 283 b 376 285 382 289 388 295 l 406 318 b 413 327 420 332 424 336 l 426 337 b 418 333 412 330 409 328 l 423 346 l 435 366 b 440 374 442 379 442 381 b 442 384 441 386 439 388 l 439 397 b 433 375 423 358 408 346 b 404 344 401 343 400 343 b 397 343 396 345 396 348 b 396 353 399 360 405 369 b 404 366 403 364 403 362 b 403 361 403 361 403 360 b 403 362 404 364 406 366 b 413 375 419 382 426 390 b 426 391 427 390 427 393 b 438 404 445 416 447 430 z m 636 450 b 620 444 601 430 579 408 b 559 420 543 426 531 427 b 536 431 541 437 549 441 b 566 450 583 456 603 456 b 607 456 612 455 618 453 z m 627 420 b 616 408 608 398 604 393 l 589 402 l 600 412 b 612 424 619 431 622 433 b 633 444 641 444 649 447 z m 663 475 l 661 475 b 659 465 656 457 652 450 l 651 451 l 642 451 l 624 456 b 614 458 606 459 601 459 b 590 459 582 458 577 457 b 556 454 539 445 525 429 b 510 429 497 425 487 418 b 475 409 469 398 469 385 b 469 376 475 366 487 354 l 484 357 b 478 364 475 372 475 381 b 475 382 475 384 475 385 b 475 397 483 406 499 412 b 502 414 509 416 519 418 b 518 416 517 414 517 411 b 517 405 521 400 528 396 b 524 402 521 405 520 405 b 520 410 521 414 523 418 l 525 418 b 544 418 561 414 576 405 l 547 375 b 522 348 499 334 478 333 b 475 333 471 334 465 336 b 450 341 442 351 442 367 b 442 378 447 391 456 405 b 464 414 473 422 484 430 b 499 439 512 444 522 444 b 529 444 533 443 535 441 l 537 441 b 533 445 526 447 516 447 b 504 444 493 444 481 433 b 464 422 453 409 447 393 b 443 388 441 380 441 370 b 441 356 446 346 456 339 l 454 339 b 461 334 470 331 481 331 b 492 331 502 333 510 337 b 502 330 495 326 488 326 b 486 326 485 327 483 327 b 481 327 480 327 480 327 b 486 324 490 322 493 322 l 498 322 b 510 322 524 330 540 346 b 556 366 566 377 573 385 l 586 399 l 601 391 b 589 374 580 358 580 346 b 580 344 579 342 579 340 b 579 332 583 328 591 328 b 597 328 606 333 618 342 b 615 333 613 326 613 322 l 633 361 b 641 373 646 386 648 400 l 648 402 b 647 403 646 404 646 405 l 646 400 b 643 389 637 377 627 363 l 621 354 b 612 341 603 334 595 334 b 591 334 589 336 589 340 b 589 342 590 345 592 349 b 593 360 600 372 612 385 b 616 384 617 382 621 382 b 622 382 622 383 622 385 b 618 388 617 387 613 388 l 637 417 b 645 425 652 435 657 447 l 658 447 l 657 448 b 660 455 661 462 661 469 b 662 470 663 471 663 472 z m 682 375 b 682 381 678 385 670 388 b 675 395 678 399 678 400 l 676 402 b 675 402 675 401 675 400 b 668 394 664 391 664 390 b 664 387 666 388 666 387 b 663 382 657 375 648 367 b 639 357 632 352 628 352 l 631 351 l 637 354 b 646 358 657 368 669 385 b 672 383 674 381 674 378 b 674 378 673 377 673 376 b 673 374 670 369 663 360 b 654 351 649 344 649 340 b 649 338 652 337 657 337 b 657 338 657 339 658 339 b 659 339 660 339 661 340 l 658 340 b 665 351 670 358 681 367 b 682 369 682 372 682 375 z m 726 378 b 722 374 719 368 715 364 l 717 367 b 717 372 715 375 711 375 b 712 375 712 374 712 372 b 712 369 710 363 706 355 b 702 350 697 347 691 345 b 689 345 688 346 688 347 b 688 347 688 348 688 348 b 688 357 704 378 711 382 b 713 384 716 385 720 385 b 721 386 722 386 723 386 b 725 386 726 384 726 379 z m 759 393 b 757 396 754 397 751 397 b 747 397 743 395 738 390 l 730 381 l 729 381 b 729 389 725 393 718 393 b 713 393 708 390 702 384 b 689 372 682 361 682 352 b 682 344 686 340 694 340 b 696 340 699 341 702 342 l 685 318 b 675 303 666 295 658 295 b 658 295 657 295 657 295 b 656 295 655 296 655 297 b 654 298 654 299 654 300 b 654 303 654 305 655 307 b 659 319 671 328 690 334 l 688 336 b 684 336 685 334 682 334 b 670 331 659 325 649 315 b 652 315 655 315 657 316 b 653 312 651 308 651 303 b 651 303 651 300 651 295 b 653 291 657 289 662 289 b 663 289 663 289 664 289 b 671 289 681 297 694 313 b 697 317 706 328 715 348 b 726 364 733 376 741 385 b 746 390 750 393 754 393 z m 781 382 b 781 385 779 388 775 391 b 774 392 773 393 771 393 b 761 393 753 388 747 379 b 736 369 730 359 730 349 b 730 343 733 340 739 340 b 740 340 740 340 741 340 b 741 340 741 340 741 340 b 743 339 744 339 746 339 b 751 339 756 341 762 345 b 771 350 774 356 778 361 b 775 359 773 357 771 355 b 764 349 755 344 745 340 b 741 340 739 341 739 343 b 738 344 738 345 738 346 b 738 349 739 353 741 357 b 742 360 743 363 745 367 b 745 362 746 359 747 358 b 747 362 746 367 753 375 l 753 376 b 762 385 768 390 772 390 l 772 384 b 770 377 766 371 759 367 b 756 367 753 368 751 370 b 754 365 757 363 760 363 l 762 363 b 763 363 764 363 765 364 b 776 370 781 376 781 382 z m 841 433 b 841 436 840 439 837 441 b 837 437 834 432 828 426 l 819 417 l 801 394 b 782 371 772 356 772 348 b 772 344 775 341 780 339 b 787 339 793 341 798 345 b 806 351 810 356 810 361 b 807 357 805 358 804 355 b 797 345 790 340 784 340 b 781 340 780 342 780 345 b 780 351 784 359 793 370 b 825 408 841 429 841 433 z m 922 387 b 913 371 900 362 892 354 b 879 344 865 339 850 339 l 844 339 b 841 340 840 343 840 349 b 840 364 849 381 868 399 b 875 404 886 410 895 415 b 896 402 905 393 922 387 z m 936 405 l 925 391 b 908 394 899 403 897 417 b 914 425 928 429 940 430 l 952 430 z m 979 457 b 970 448 962 440 958 433 b 949 436 943 435 939 435 b 936 435 933 435 930 435 b 921 435 910 434 897 430 b 901 438 904 443 907 445 b 921 457 937 463 955 463 b 956 463 958 463 960 463 b 941 459 927 453 916 444 b 932 453 954 457 979 457 z m 1074 459 b 1070 458 1063 457 1054 457 b 1048 457 1040 459 1030 462 b 1021 466 1013 465 1005 468 b 1010 472 1016 474 1020 475 b 1020 475 1025 476 1036 478 b 1034 480 1031 481 1027 481 b 1025 481 1023 482 1021 482 b 1013 482 1006 477 991 468 l 990 468 b 979 469 975 469 964 469 b 943 469 926 464 913 453 l 900 439 b 900 435 899 432 897 430 b 878 422 863 411 852 397 b 843 386 837 373 835 358 b 835 357 835 355 835 354 b 835 349 836 345 837 340 b 823 345 815 357 813 375 b 813 387 817 400 825 414 b 831 424 840 434 852 444 b 866 455 879 461 892 463 b 898 463 903 462 906 459 l 907 460 b 902 464 896 466 889 466 b 876 466 861 459 844 444 b 831 429 821 419 814 400 b 810 392 811 384 811 375 b 812 361 819 349 831 340 b 835 338 837 337 838 337 b 843 332 850 328 858 324 l 846 336 l 855 334 b 863 334 874 337 888 343 b 877 333 866 328 856 328 b 862 328 868 328 873 327 b 884 327 896 334 909 348 b 917 356 924 368 939 384 l 946 384 b 954 384 964 386 973 390 b 983 395 990 400 993 406 l 991 406 b 987 396 973 390 948 388 l 940 388 l 951 403 b 955 411 962 418 970 427 l 994 423 b 1000 421 1006 420 1011 420 b 1014 420 1018 420 1021 421 b 1032 423 1040 426 1044 430 b 1039 427 1029 426 1015 426 b 1003 426 989 429 973 430 l 994 456 b 1010 456 1023 452 1032 445 b 1028 441 1030 439 1027 438 b 1028 437 1029 436 1030 436 l 1033 436 b 1040 436 1048 439 1056 444 b 1065 448 1070 452 1074 459 z m 982 354 b 975 347 971 343 969 343 b 967 343 966 344 966 346 b 966 347 966 347 966 348 b 966 354 970 363 979 375 b 979 371 978 368 978 364 b 978 360 979 357 982 354 z m 1002 385 b 1000 378 997 373 994 370 b 994 371 993 374 991 378 b 992 377 993 376 993 375 b 993 373 992 369 990 363 b 987 360 988 361 987 358 l 987 360 l 987 358 l 982 354 b 981 355 981 357 981 360 b 981 363 983 369 988 379 b 990 383 992 386 993 387 b 995 388 997 388 999 388 b 1001 388 1002 387 1002 385 z m 1008 381 b 1008 389 1004 393 997 393 b 988 393 980 388 973 379 b 962 366 957 356 957 348 b 957 343 960 340 966 340 l 978 340 b 982 343 988 349 997 358 b 1004 368 1008 376 1008 381 z m 1057 384 b 1056 388 1054 391 1050 393 b 1043 393 1036 390 1030 385 b 1030 389 1027 392 1021 394 b 1021 393 1023 391 1023 388 b 1023 384 1020 379 1015 372 l 1006 361 b 999 354 995 347 993 340 b 992 339 992 337 992 336 b 992 334 993 331 993 327 b 997 335 999 339 1000 340 b 1001 343 1004 348 1009 354 b 1017 363 1025 370 1029 379 b 1037 385 1041 388 1041 388 b 1042 389 1044 389 1045 389 b 1047 389 1048 387 1048 384 b 1048 381 1047 382 1047 379 b 1043 371 1040 366 1038 364 b 1039 366 1039 367 1039 367 l 1039 372 b 1038 369 1037 367 1036 366 b 1032 358 1029 353 1021 345 b 1013 336 1009 325 1008 313 b 1010 321 1014 329 1021 336 l 1039 352 b 1041 354 1045 359 1051 367 b 1055 374 1057 380 1057 382 b 1057 383 1057 384 1057 384 z m 1123 405 l 1108 405 l 1096 406 l 1102 415 b 1104 417 1105 420 1105 423 b 1105 427 1104 429 1102 430 b 1098 425 1094 417 1087 408 l 1083 409 b 1055 413 1039 417 1038 417 b 1017 417 1001 412 991 402 l 993 402 b 1005 407 1017 409 1029 409 l 1042 409 b 1048 409 1053 409 1057 408 l 1083 405 l 1048 363 b 1044 355 1042 350 1042 348 b 1043 344 1046 341 1051 339 b 1058 339 1064 341 1069 345 b 1076 351 1080 356 1080 361 b 1077 360 1078 358 1077 357 l 1075 355 b 1066 345 1059 340 1054 340 b 1052 340 1051 342 1051 345 b 1051 350 1053 355 1057 360 b 1059 365 1061 367 1063 367 b 1079 390 1092 401 1093 405 z m 1126 385 b 1126 387 1126 389 1125 390 b 1125 391 1123 392 1119 394 b 1115 394 1114 396 1110 396 b 1101 396 1096 391 1096 381 b 1096 377 1097 373 1098 370 b 1099 367 1099 363 1099 358 b 1099 347 1095 342 1087 342 b 1079 342 1075 346 1075 354 b 1075 356 1077 359 1080 364 b 1082 366 1085 367 1089 367 l 1092 367 l 1086 369 b 1074 367 1068 362 1068 354 b 1068 352 1068 350 1069 349 b 1071 343 1077 340 1086 340 b 1102 340 1110 346 1110 359 b 1110 360 1110 360 1110 361 b 1107 376 1105 385 1105 387 b 1106 391 1109 393 1114 393 l 1119 393 l 1119 387 b 1119 382 1117 378 1114 375 l 1116 376 b 1123 379 1126 382 1126 385 z"},"S":{"x_min":0,"x_max":469,"ha":469,"o":"m 10 497 b 10 436 29 385 66 346 l 111 301 b 121 292 137 280 159 264 b 168 256 177 248 185 239 l 185 237 b 185 232 179 230 166 230 l 157 230 b 143 231 122 234 94 239 l 67 239 l 40 239 b 21 234 12 223 12 208 l 12 55 b 12 24 42 4 101 -3 b 126 -6 158 -8 197 -8 b 242 -8 276 -5 297 1 b 402 31 454 102 454 214 b 454 272 437 323 402 368 b 388 386 376 400 366 409 b 327 443 305 463 299 470 l 353 470 b 379 470 392 486 392 519 l 392 637 b 392 667 371 687 329 696 b 315 699 290 700 255 700 b 210 700 175 696 150 689 b 57 662 10 598 10 497 z m 202 683 b 219 687 243 689 275 689 b 302 689 321 688 331 687 b 357 683 371 675 374 663 b 359 678 325 685 272 685 b 253 685 234 684 213 683 l 207 683 l 202 683 z m 249 623 b 249 633 267 638 303 638 b 312 638 318 638 321 637 l 325 635 b 314 622 296 616 271 616 b 256 616 249 618 249 623 z m 293 484 b 296 490 312 493 339 493 l 357 493 l 355 491 b 336 490 316 488 297 484 l 295 484 l 293 484 z m 377 385 b 375 387 358 403 325 433 b 320 437 316 441 312 446 b 327 437 349 417 379 385 z m 230 256 b 178 296 142 328 122 351 l 217 271 b 223 266 227 261 230 256 z m 77 226 b 78 229 83 230 91 230 l 96 230 b 147 223 185 220 211 219 l 208 217 b 204 216 197 216 187 216 b 171 216 160 216 154 217 b 127 221 107 224 94 226 b 88 227 82 227 77 226 z m 221 10 b 201 10 181 11 161 12 b 114 15 86 23 77 36 b 108 21 156 14 221 14 b 231 14 253 16 286 19 l 290 19 l 295 19 b 272 13 248 10 221 10 z"},"Z":{"x_min":0,"x_max":559,"ha":559,"o":"m 55 538 b 55 501 74 483 111 483 l 199 483 l 17 83 b 14 76 12 67 12 57 b 12 20 28 2 59 2 l 451 2 b 470 2 486 16 498 45 b 507 69 518 96 529 125 b 534 138 536 150 536 162 b 536 193 516 212 477 219 l 433 219 b 409 219 387 218 366 217 l 359 217 l 359 221 l 544 631 b 545 631 545 635 545 643 b 545 681 528 700 493 700 l 142 700 b 121 700 104 684 91 653 b 67 597 55 559 55 538 z m 173 687 b 174 690 179 691 187 691 l 498 691 b 510 691 521 684 531 671 l 530 671 l 529 671 b 512 682 500 687 495 687 z m 361 622 b 361 627 368 630 383 633 b 430 642 455 646 457 646 l 482 646 l 482 644 b 482 623 450 613 387 613 b 370 613 361 616 361 622 z m 166 501 b 133 501 117 506 117 515 l 117 517 b 134 509 153 505 172 505 b 177 505 193 506 220 508 l 224 508 b 243 508 252 506 252 501 l 252 498 b 250 498 248 498 247 499 b 232 502 223 503 221 503 l 209 503 b 195 502 185 501 178 501 l 166 501 z m 363 207 b 376 207 404 208 448 210 l 460 210 b 493 210 513 203 522 188 b 505 200 480 206 447 206 b 424 206 399 205 372 204 l 363 206 z m 376 159 l 397 159 b 417 161 432 162 442 163 l 458 163 l 475 163 b 466 150 436 143 383 143 b 336 143 311 148 307 157 b 306 159 307 160 310 161 l 319 161 l 328 161 b 359 160 375 159 376 159 z m 103 20 b 92 20 84 25 77 34 b 86 28 95 25 102 25 l 460 25 l 457 22 b 456 21 338 20 103 20 z"},"x":{"x_min":0,"x_max":618,"ha":618,"o":"m 23 647 b 23 634 25 624 30 615 l 162 368 l 162 358 l 17 83 b 14 77 12 68 12 57 b 12 20 28 2 61 2 l 234 2 b 251 2 265 13 276 34 b 286 51 296 69 305 87 l 307 89 l 310 87 b 320 68 330 50 341 31 b 352 12 366 2 381 2 l 556 2 b 589 2 605 22 605 62 b 605 69 603 75 600 81 l 460 344 b 455 353 453 358 453 361 l 453 362 l 589 624 b 592 630 594 637 594 646 b 594 682 576 700 540 700 l 370 700 b 354 700 334 681 310 642 b 309 641 308 640 307 640 l 296 658 b 279 686 262 700 245 700 l 75 700 b 40 700 23 682 23 647 z m 113 689 l 254 689 b 267 689 277 679 285 660 b 270 678 254 687 236 687 l 104 687 z m 408 689 l 551 689 b 568 689 576 683 576 672 l 576 671 b 564 682 551 687 536 687 l 410 687 z m 453 631 b 458 640 479 644 515 644 l 529 644 b 522 631 501 624 468 624 b 460 624 455 626 453 631 z m 211 632 b 211 635 216 637 226 637 l 227 637 b 225 630 221 625 216 622 b 213 627 211 630 211 632 z m 332 590 b 320 589 314 594 314 603 l 314 604 b 320 599 326 595 332 593 z m 260 550 b 260 553 261 555 264 555 l 265 555 b 290 538 303 528 303 523 b 303 520 301 519 297 519 b 272 519 260 529 260 550 z m 426 20 b 416 20 407 25 399 36 b 414 27 423 23 426 23 l 560 23 l 551 20 z m 104 20 b 93 20 84 25 77 34 b 84 27 92 23 102 23 l 238 23 l 229 20 z"},"v":{"x_min":0,"x_max":709,"ha":709,"o":"m 14 648 b 14 637 16 626 21 613 l 231 49 b 243 18 260 2 281 2 l 428 2 b 449 2 466 18 477 49 l 688 613 b 693 625 695 637 695 648 b 695 683 678 700 645 700 l 473 700 b 451 700 435 688 426 664 l 355 478 l 352 481 l 283 664 b 274 688 258 700 236 700 l 64 700 b 31 700 14 683 14 648 z m 95 687 b 98 690 107 691 124 691 l 177 691 l 229 691 b 253 688 266 682 269 671 b 254 682 243 687 234 687 z m 529 691 l 641 691 b 656 691 668 685 679 673 l 678 673 l 676 673 b 659 683 648 688 643 688 l 511 688 z m 564 631 b 564 640 586 645 629 645 l 629 642 b 629 629 613 622 581 622 b 570 622 564 625 564 631 z m 195 630 b 195 635 203 638 219 638 b 219 629 214 623 205 619 b 198 617 195 621 195 630 z m 377 423 b 370 423 364 429 359 441 b 367 430 374 425 379 425 b 382 425 385 427 388 432 l 388 429 b 388 425 384 423 377 423 z m 312 363 b 312 367 313 369 316 369 b 327 369 340 360 354 342 b 355 342 355 342 355 341 b 355 337 351 335 344 335 b 323 335 312 344 312 363 z m 325 20 b 307 20 298 25 298 35 l 298 36 b 305 27 313 23 323 23 l 433 23 l 421 20 z"},"O":{"x_min":0,"x_max":736,"ha":736,"o":"m 10 355 b 10 289 27 225 61 163 b 124 48 225 -10 365 -10 b 489 -10 585 38 653 134 b 700 201 723 272 723 347 b 723 414 706 478 672 541 b 610 656 525 713 416 713 l 315 713 b 208 713 123 656 61 543 b 27 481 10 418 10 355 z m 313 695 b 334 701 362 704 397 704 b 502 704 578 668 624 596 b 551 665 471 700 383 700 b 370 700 349 698 321 695 l 317 695 l 313 695 z m 396 634 b 396 637 398 639 403 640 l 416 640 b 436 640 456 636 476 627 b 510 611 527 599 527 590 b 527 587 525 585 521 585 l 520 585 b 513 588 508 590 505 591 l 483 600 l 405 627 b 399 628 396 631 396 634 z m 354 483 b 361 486 373 488 390 488 b 451 488 484 472 491 439 b 454 470 409 485 354 483 z m 264 354 b 264 427 298 463 366 463 b 433 463 467 426 467 353 b 467 279 433 242 366 242 b 298 242 264 279 264 354 z m 385 227 b 347 227 315 242 288 271 b 334 243 378 230 419 231 b 409 228 398 227 385 227 z m 338 163 b 278 163 248 180 248 215 b 252 215 259 212 268 207 b 289 196 315 185 346 172 b 349 170 350 168 350 166 b 350 164 346 163 338 163 z m 385 10 b 296 10 219 45 156 114 l 165 108 b 199 77 227 57 248 46 b 289 25 323 15 350 15 l 432 15 b 439 16 444 17 449 17 l 454 17 b 448 16 437 14 421 11 b 409 10 397 10 385 10 z"},"C":{"x_min":0,"x_max":638,"ha":638,"o":"m 12 351 b 12 178 86 65 233 12 b 274 -3 322 -10 375 -10 b 411 -10 450 -6 493 3 b 514 7 537 14 561 25 b 604 43 625 66 625 94 b 625 106 617 127 601 157 b 594 171 580 195 559 230 b 545 254 523 266 492 266 b 477 266 450 259 411 245 b 402 242 392 241 381 241 b 308 241 272 279 272 354 b 272 427 306 464 375 464 b 380 464 401 458 440 446 b 451 443 465 441 482 441 b 490 441 498 441 506 442 b 523 446 537 457 548 475 b 565 505 576 524 581 532 b 603 573 614 600 614 614 b 614 641 596 662 559 678 b 503 701 439 713 367 713 b 199 713 89 640 36 495 b 20 450 12 402 12 351 z m 319 695 b 336 700 360 702 391 702 b 426 702 457 699 486 693 b 537 682 573 665 594 642 b 547 681 478 700 387 700 l 378 700 b 355 698 339 696 328 695 l 323 695 l 319 695 z m 403 636 b 403 638 404 639 407 640 l 432 640 b 467 640 493 636 508 627 l 509 626 b 509 621 497 618 472 618 b 452 618 430 622 407 629 b 404 632 402 634 403 636 z m 361 481 b 368 484 380 486 398 486 b 433 486 469 478 508 462 l 489 462 b 454 475 431 481 420 481 z m 403 227 b 339 227 303 243 294 274 b 324 245 361 230 405 230 l 414 230 b 425 231 433 232 438 232 l 442 232 l 447 232 b 438 229 424 227 403 227 z m 500 252 b 503 253 507 254 514 254 b 525 254 535 249 544 239 b 531 247 517 251 500 252 z m 353 162 b 336 162 320 166 303 173 b 272 188 256 202 256 215 b 281 215 319 199 369 168 b 370 168 370 168 370 167 b 370 164 364 162 353 162 z m 466 171 b 466 190 477 200 500 200 b 500 177 493 166 479 166 b 470 166 466 168 466 171 z m 396 9 b 294 9 212 44 151 113 b 226 47 309 14 400 14 b 413 14 436 15 469 18 l 474 18 l 480 18 b 455 12 427 9 396 9 z"},"W":{"x_min":0,"x_max":905,"ha":905,"o":"m 10 640 b 10 636 11 632 12 627 l 194 49 b 203 19 218 4 239 4 l 381 4 b 402 4 416 16 423 40 l 452 128 l 479 44 b 488 17 502 4 521 4 l 663 4 b 684 4 701 22 712 58 l 824 402 l 824 411 l 886 607 b 890 622 892 634 892 644 b 892 680 877 698 848 698 l 674 698 b 653 698 639 687 632 664 l 594 547 l 592 547 l 557 658 b 548 685 533 698 512 698 l 392 698 b 371 698 357 687 350 664 l 310 546 l 308 551 b 297 586 285 621 274 656 b 265 684 251 698 230 698 l 54 698 b 25 698 10 679 10 640 z m 99 689 l 232 689 b 241 689 250 683 259 671 l 258 671 b 257 671 255 672 252 673 b 243 679 236 683 232 684 b 151 686 105 687 94 687 z m 437 689 l 514 689 b 522 689 531 683 541 671 l 540 671 b 538 671 529 676 514 686 l 432 686 z m 719 689 l 852 689 b 869 689 877 683 877 672 l 877 671 b 875 672 873 672 872 673 b 858 682 851 686 850 686 l 717 686 z m 770 629 b 770 634 789 639 828 642 l 828 641 b 828 634 823 633 814 636 l 817 633 b 812 626 806 622 801 622 l 774 622 b 771 622 770 624 770 629 z m 183 629 b 184 634 193 637 208 638 l 208 637 b 208 635 203 629 194 618 l 193 618 b 185 618 182 622 183 629 z m 474 627 b 474 634 480 638 491 638 l 492 638 b 483 626 478 619 477 618 b 475 619 474 622 474 627 z m 333 480 b 322 480 317 486 317 497 l 317 498 l 328 487 l 329 487 b 332 487 336 489 343 493 b 345 494 346 494 347 494 b 347 485 342 480 333 480 z m 617 480 b 605 480 599 486 599 497 l 599 498 b 602 497 604 495 606 493 l 612 487 b 618 487 623 489 628 493 l 628 491 b 628 484 624 480 617 480 z m 293 393 b 276 393 267 404 267 427 b 290 427 301 418 301 400 b 301 395 298 393 293 393 z m 554 400 b 554 404 555 406 557 407 l 566 407 b 577 407 593 402 612 391 b 613 390 613 388 613 387 b 613 381 606 378 592 378 b 577 378 565 384 554 396 l 554 400 z m 472 211 b 472 214 473 215 474 216 b 477 215 479 212 479 208 b 479 205 478 203 477 202 b 474 204 472 207 472 211 z m 274 24 b 265 24 261 27 261 34 l 261 36 b 272 29 281 26 286 26 l 381 26 z m 557 24 b 548 24 543 27 543 34 l 543 36 b 554 29 563 26 570 26 l 663 26 z"},"A":{"x_min":0,"x_max":678,"ha":678,"o":"m 12 58 b 12 24 26 7 54 7 l 219 7 b 234 7 250 25 266 62 l 410 62 b 424 25 440 7 457 7 l 621 7 b 650 7 664 24 664 59 b 664 64 664 66 663 67 l 454 647 b 442 681 427 698 408 698 l 266 698 b 249 698 236 687 228 664 l 17 84 b 14 76 12 67 12 58 z m 312 689 l 410 689 b 416 689 423 684 432 673 b 426 682 418 686 408 686 l 306 686 z m 359 626 b 359 634 368 639 386 640 l 386 639 b 386 620 379 611 366 611 b 361 611 359 616 359 626 z m 337 242 l 344 242 b 353 242 361 241 368 240 l 341 240 z m 292 198 l 299 198 b 326 198 339 195 339 190 b 339 187 332 186 317 186 b 312 186 306 186 301 187 b 298 188 294 191 290 196 z m 268 84 l 452 84 l 459 78 l 458 78 l 457 78 b 442 81 433 82 432 82 l 266 82 z m 97 24 b 88 24 81 29 74 38 b 85 33 92 30 97 28 l 219 28 l 214 24 z m 501 24 b 492 24 485 29 479 38 b 490 33 497 30 501 28 l 623 28 l 617 24 z"},"f":{"x_min":0,"x_max":449,"ha":449,"o":"m 274 251 l 279 251 b 303 250 322 249 335 249 b 402 249 435 284 435 353 b 435 418 416 453 377 458 l 336 458 b 311 458 290 457 272 456 l 271 456 b 269 456 268 457 268 458 l 268 484 l 381 484 b 410 484 428 498 434 527 b 436 534 437 558 437 600 l 437 642 b 432 679 417 698 392 698 l 52 698 b 24 698 10 681 10 647 l 10 60 b 10 25 25 7 54 7 l 223 7 b 253 7 268 25 268 60 l 268 249 b 268 250 270 251 274 251 z m 97 689 l 394 689 b 405 689 413 684 417 673 b 405 682 397 686 392 686 l 92 686 z m 288 632 b 288 642 314 647 365 647 b 370 647 372 646 372 644 b 361 631 344 624 323 624 b 300 624 288 627 288 632 z m 266 502 b 267 505 270 507 274 507 l 399 509 l 399 507 l 390 504 b 384 503 344 502 270 502 l 266 502 z m 326 447 b 335 448 346 449 360 449 b 387 449 406 442 417 429 l 416 429 l 414 429 b 396 440 367 446 326 447 z m 268 447 l 314 447 l 317 444 l 270 444 z m 221 400 b 221 403 223 405 228 404 b 243 401 263 400 289 400 b 296 400 318 401 354 404 b 355 405 358 405 361 405 b 367 405 370 404 370 401 b 370 390 358 384 334 384 l 246 384 b 229 384 221 389 221 400 z m 266 269 b 267 272 270 273 277 273 l 392 273 b 391 270 387 269 381 269 z m 97 24 b 88 24 82 28 77 36 l 78 36 b 81 36 88 33 97 28 l 228 28 l 221 24 z"},"Q":{"x_min":0,"x_max":747,"ha":747,"o":"m 10 352 b 10 294 22 240 45 191 b 110 56 218 -11 368 -11 b 421 -11 457 -5 477 6 l 630 6 b 644 6 660 20 679 49 b 692 76 706 104 719 131 b 728 150 732 165 732 175 b 732 190 722 205 703 218 b 702 219 701 220 701 221 b 701 222 702 228 705 238 b 718 283 725 322 725 357 b 725 417 709 477 677 537 b 612 655 527 714 420 714 l 313 714 b 250 714 192 688 138 636 b 53 554 10 459 10 352 z m 316 696 b 329 702 355 705 394 705 b 482 705 558 670 623 599 b 549 667 471 701 388 701 b 371 701 349 699 322 696 l 319 696 l 316 696 z m 398 636 b 398 640 400 642 404 643 l 417 643 b 437 643 456 639 473 632 b 510 616 528 604 528 595 b 528 590 525 587 520 587 l 519 588 b 501 595 483 603 464 610 b 420 626 398 635 398 636 z m 349 481 b 356 486 370 488 392 488 b 442 488 476 472 493 439 b 459 469 424 484 388 484 b 379 484 368 483 353 481 l 351 481 l 349 481 z m 265 354 b 265 427 299 464 368 464 b 435 464 469 427 469 354 b 469 279 435 242 367 242 b 299 242 265 279 265 354 z m 386 226 b 349 226 316 242 287 273 b 322 243 367 229 420 231 b 410 228 399 226 386 226 z m 340 164 b 324 164 309 167 296 173 b 265 188 249 200 249 209 l 249 216 l 256 216 b 280 201 310 187 347 173 l 353 167 l 351 165 b 350 164 346 164 340 164 z m 716 198 b 713 199 709 202 705 207 b 708 206 712 203 716 198 z m 388 7 b 285 7 206 44 152 118 b 224 47 303 12 389 12 b 393 12 412 13 446 16 l 450 16 l 453 16 b 439 10 417 7 388 7 z m 486 27 l 634 27 l 628 25 l 479 25 z"},"w":{"x_min":0,"x_max":905,"ha":905,"o":"m 10 640 b 10 636 11 632 12 627 l 194 49 b 203 19 218 4 239 4 l 381 4 b 402 4 416 16 423 40 l 452 128 l 479 44 b 488 17 502 4 521 4 l 663 4 b 684 4 701 22 712 58 l 824 402 l 824 411 l 886 607 b 890 622 892 634 892 644 b 892 680 877 698 848 698 l 674 698 b 653 698 639 687 632 664 l 594 547 l 592 547 l 557 658 b 548 685 533 698 512 698 l 392 698 b 371 698 357 687 350 664 l 310 546 l 308 551 b 297 586 285 621 274 656 b 265 684 251 698 230 698 l 54 698 b 25 698 10 679 10 640 z m 99 689 l 232 689 b 241 689 250 683 259 671 l 258 671 b 257 671 255 672 252 673 b 243 679 236 683 232 684 b 151 686 105 687 94 687 z m 437 689 l 514 689 b 522 689 531 683 541 671 l 540 671 b 538 671 529 676 514 686 l 432 686 z m 719 689 l 852 689 b 869 689 877 683 877 672 l 877 671 b 875 672 873 672 872 673 b 858 682 851 686 850 686 l 717 686 z m 770 629 b 770 634 789 639 828 642 l 828 641 b 828 634 823 633 814 636 l 817 633 b 812 626 806 622 801 622 l 774 622 b 771 622 770 624 770 629 z m 183 629 b 184 634 193 637 208 638 l 208 637 b 208 635 203 629 194 618 l 193 618 b 185 618 182 622 183 629 z m 474 627 b 474 634 480 638 491 638 l 492 638 b 483 626 478 619 477 618 b 475 619 474 622 474 627 z m 333 480 b 322 480 317 486 317 497 l 317 498 l 328 487 l 329 487 b 332 487 336 489 343 493 b 345 494 346 494 347 494 b 347 485 342 480 333 480 z m 617 480 b 605 480 599 486 599 497 l 599 498 b 602 497 604 495 606 493 l 612 487 b 618 487 623 489 628 493 l 628 491 b 628 484 624 480 617 480 z m 293 393 b 276 393 267 404 267 427 b 290 427 301 418 301 400 b 301 395 298 393 293 393 z m 554 400 b 554 404 555 406 557 407 l 566 407 b 577 407 593 402 612 391 b 613 390 613 388 613 387 b 613 381 606 378 592 378 b 577 378 565 384 554 396 l 554 400 z m 472 211 b 472 214 473 215 474 216 b 477 215 479 212 479 208 b 479 205 478 203 477 202 b 474 204 472 207 472 211 z m 274 24 b 265 24 261 27 261 34 l 261 36 b 272 29 281 26 286 26 l 381 26 z m 557 24 b 548 24 543 27 543 34 l 543 36 b 554 29 563 26 570 26 l 663 26 z"},"E":{"x_min":0,"x_max":460,"ha":460,"o":"m 380 221 l 343 221 b 330 221 310 220 284 218 l 277 218 b 272 218 269 219 269 221 l 269 249 l 385 249 b 419 249 436 266 436 299 l 436 408 b 436 436 417 452 378 457 l 337 457 b 314 457 293 456 275 455 l 273 455 b 270 455 269 456 269 457 l 269 484 l 385 484 b 420 484 438 501 438 535 l 438 651 b 438 682 424 698 396 698 l 55 698 b 26 698 12 683 12 653 l 12 49 b 12 19 27 4 57 4 l 400 4 b 430 4 445 21 445 54 l 445 172 b 445 199 423 215 380 221 z m 101 689 l 396 689 b 404 689 411 684 418 675 l 417 675 b 415 675 408 679 396 686 l 95 686 z m 291 632 b 291 642 317 647 369 647 b 373 647 375 646 376 644 b 365 631 349 624 327 624 b 303 624 291 627 291 632 z m 269 502 b 270 505 273 506 280 506 l 396 506 l 393 504 b 392 503 352 502 273 502 l 269 502 z m 322 446 b 335 447 349 448 364 448 b 400 448 418 442 418 429 l 418 428 b 405 439 373 445 322 446 z m 271 446 l 279 446 b 288 446 299 445 311 444 l 275 444 z m 293 399 b 299 399 320 401 356 404 l 365 404 l 371 404 l 373 401 b 363 389 350 383 335 383 l 249 383 b 232 383 223 389 223 402 b 231 402 239 402 246 401 b 276 400 292 399 293 399 z m 271 270 b 272 271 312 272 391 272 l 396 272 l 393 270 b 392 268 353 267 278 267 b 275 267 272 267 269 268 z m 429 189 b 416 200 404 205 393 205 l 278 205 b 271 205 268 207 268 211 l 275 211 l 396 210 b 409 209 420 202 429 189 z m 242 147 b 227 151 220 157 220 166 b 228 166 238 165 251 163 b 271 160 286 158 297 158 l 311 158 b 333 161 349 164 360 165 l 369 165 b 376 165 381 164 382 163 b 374 153 364 147 353 145 l 329 145 b 301 145 272 146 242 147 z m 97 22 b 85 22 79 26 79 33 b 85 28 92 26 99 26 l 405 26 l 398 22 z"},"s":{"x_min":0,"x_max":469,"ha":469,"o":"m 10 497 b 10 436 29 385 66 346 l 111 301 b 121 292 137 280 159 264 b 168 256 177 248 185 239 l 185 237 b 185 232 179 230 166 230 l 157 230 b 143 231 122 234 94 239 l 67 239 l 40 239 b 21 234 12 223 12 208 l 12 55 b 12 24 42 4 101 -3 b 126 -6 158 -8 197 -8 b 242 -8 276 -5 297 1 b 402 31 454 102 454 214 b 454 272 437 323 402 368 b 388 386 376 400 366 409 b 327 443 305 463 299 470 l 353 470 b 379 470 392 486 392 519 l 392 637 b 392 667 371 687 329 696 b 315 699 290 700 255 700 b 210 700 175 696 150 689 b 57 662 10 598 10 497 z m 202 683 b 219 687 243 689 275 689 b 302 689 321 688 331 687 b 357 683 371 675 374 663 b 359 678 325 685 272 685 b 253 685 234 684 213 683 l 207 683 l 202 683 z m 249 623 b 249 633 267 638 303 638 b 312 638 318 638 321 637 l 325 635 b 314 622 296 616 271 616 b 256 616 249 618 249 623 z m 293 484 b 296 490 312 493 339 493 l 357 493 l 355 491 b 336 490 316 488 297 484 l 295 484 l 293 484 z m 377 385 b 375 387 358 403 325 433 b 320 437 316 441 312 446 b 327 437 349 417 379 385 z m 230 256 b 178 296 142 328 122 351 l 217 271 b 223 266 227 261 230 256 z m 77 226 b 78 229 83 230 91 230 l 96 230 b 147 223 185 220 211 219 l 208 217 b 204 216 197 216 187 216 b 171 216 160 216 154 217 b 127 221 107 224 94 226 b 88 227 82 227 77 226 z m 221 10 b 201 10 181 11 161 12 b 114 15 86 23 77 36 b 108 21 156 14 221 14 b 231 14 253 16 286 19 l 290 19 l 295 19 b 272 13 248 10 221 10 z"},"l":{"x_min":0,"x_max":460,"ha":460,"o":"m 448 62 l 448 107 b 448 184 415 222 348 222 b 344 222 327 221 297 220 l 284 220 l 277 220 l 274 231 l 274 647 b 274 681 259 698 228 698 l 54 698 b 25 698 10 682 10 651 l 10 53 b 10 20 28 4 63 4 l 394 4 b 431 4 449 23 448 62 z m 230 689 b 239 689 248 683 257 671 b 255 672 253 672 252 673 b 240 680 232 684 228 684 l 92 684 l 92 689 z m 168 629 b 168 634 181 638 208 640 l 208 638 b 208 627 200 621 183 618 b 173 616 168 620 168 629 z m 279 211 l 392 211 b 417 211 430 205 430 192 l 430 191 b 418 202 404 207 388 207 l 283 207 l 277 209 z m 228 159 b 228 161 230 162 234 162 b 239 162 246 161 254 160 l 296 160 b 318 160 343 161 370 162 l 372 162 b 375 162 378 161 381 160 b 372 149 361 144 348 144 l 257 144 b 238 144 228 149 228 159 z m 79 34 b 81 34 85 32 92 28 l 408 28 l 403 24 l 92 24 l 79 31 z"},"8":{"x_min":0,"x_max":1219,"ha":1219,"o":"m 690 802 l 615 972 l 537 801 l 351 781 l 489 652 l 450 471 l 615 565 l 775 471 l 739 657 l 876 781 z m 663 562 l 642 576 l 631 634 l 592 634 l 583 576 l 564 562 l 541 576 l 586 834 l 639 834 l 682 576 z m 612 774 l 598 672 l 628 672 z m 616 39 b 618 43 619 46 619 49 b 623 45 621 43 624 39 l 631 21 l 610 21 z m 363 -5 l 363 3 l 352 3 l 352 -5 z m 883 -5 l 883 1 l 852 1 l 852 58 l 844 58 l 844 -5 z m 832 -5 l 832 1 l 795 1 l 795 22 l 829 22 l 829 30 l 795 30 l 795 49 l 832 49 l 832 58 l 787 58 l 787 -5 z m 573 -5 l 573 21 l 598 58 l 589 58 l 577 39 b 573 35 571 31 570 28 b 568 29 566 33 564 39 l 552 58 l 541 58 l 565 21 l 565 -5 z m 409 -5 b 412 -2 414 -4 415 0 b 418 0 420 2 421 6 b 421 7 423 9 423 13 b 423 15 422 18 420 22 b 417 25 414 27 411 28 b 414 28 416 30 417 34 b 419 35 420 37 420 40 b 420 44 419 47 417 49 b 416 52 413 54 409 55 b 408 55 404 58 400 58 l 376 58 l 376 -5 z m 213 -5 l 226 42 b 226 45 227 47 228 49 b 228 47 228 45 229 42 l 241 -5 l 249 -5 l 267 58 l 259 58 l 249 16 b 246 11 247 7 246 3 b 246 11 244 16 241 25 l 232 58 l 222 58 l 210 15 b 210 12 209 8 208 3 b 207 7 208 11 205 16 l 196 58 l 187 58 l 205 -5 z m 130 -5 l 144 42 b 144 45 145 47 147 49 b 147 47 147 45 148 42 l 160 -5 l 168 -5 l 186 58 l 177 58 l 168 16 b 165 11 167 7 163 3 b 163 11 163 16 160 25 l 150 58 l 141 58 l 129 15 b 129 12 128 8 127 3 b 124 7 123 11 123 16 l 115 58 l 105 58 l 123 -5 z m 384 49 l 396 49 b 401 49 404 49 405 48 b 406 48 405 46 408 46 l 409 46 b 410 45 411 43 411 40 b 411 37 410 35 409 34 b 409 33 408 33 405 33 b 404 31 401 30 397 30 l 384 30 z m 294 -5 l 307 42 b 307 45 308 47 310 49 b 310 47 311 45 312 42 l 324 -5 l 331 -5 l 349 58 l 342 58 l 331 16 b 330 11 331 7 327 3 b 327 11 325 16 324 25 l 313 58 l 304 58 l 292 15 b 292 12 291 11 291 3 b 287 7 289 11 286 16 l 277 58 l 268 58 l 285 -5 z m 664 49 l 684 49 b 690 49 693 49 694 48 b 696 46 697 43 697 40 b 697 37 697 35 696 34 b 696 31 695 30 693 30 b 689 30 686 28 682 28 l 664 28 z m 384 22 l 408 22 b 410 22 411 21 411 19 b 413 17 414 15 414 13 l 414 7 b 412 6 410 5 409 3 l 405 3 b 404 2 402 1 400 1 l 384 1 z m 442 -5 l 442 58 l 435 58 l 435 -5 z m 985 25 b 985 34 988 41 993 45 b 996 48 1000 49 1006 49 b 1011 49 1015 49 1018 48 b 1021 47 1024 44 1026 39 b 1027 36 1027 32 1027 27 b 1027 17 1025 10 1021 7 b 1018 3 1013 1 1006 1 b 999 1 994 3 990 7 b 987 10 985 16 985 25 z m 976 25 b 976 20 978 14 981 9 b 982 5 986 1 990 -3 b 995 -6 1001 -6 1006 -6 b 1012 -6 1017 -5 1021 -3 b 1025 0 1029 4 1032 9 b 1034 12 1035 18 1035 27 b 1035 35 1034 40 1033 42 b 1029 47 1028 51 1021 54 b 1017 55 1013 58 1006 58 b 996 58 989 55 985 49 b 979 44 976 36 976 25 z m 600 -5 l 609 13 l 634 13 l 642 -5 l 651 -5 l 625 58 l 616 58 l 592 -5 z m 495 -5 l 495 1 l 466 1 l 466 58 l 459 58 l 459 -5 z m 903 -5 l 903 3 l 892 3 l 892 -5 z m 766 19 l 766 7 b 765 6 763 7 759 3 b 756 2 752 1 748 1 b 743 1 739 2 736 3 b 735 4 733 7 729 13 b 727 15 726 20 726 27 b 726 31 727 35 727 39 b 730 42 732 44 732 45 b 734 47 736 48 739 49 l 756 49 b 760 48 762 47 762 45 b 765 42 766 40 766 39 l 774 40 b 773 43 771 46 768 49 b 767 52 764 54 760 55 b 757 57 753 58 748 58 b 743 58 736 55 732 54 b 727 52 723 48 721 42 b 720 35 717 33 717 25 b 717 20 720 14 721 9 b 724 2 728 1 733 -3 b 737 -5 742 -6 748 -6 b 752 -6 758 -5 762 -5 b 766 -4 770 -1 774 3 l 774 27 l 748 27 l 748 19 z m 664 -5 l 664 22 l 678 22 b 679 22 678 21 681 21 l 682 21 b 685 18 687 20 687 16 b 688 15 689 11 693 7 l 702 -5 l 712 -5 l 700 10 b 696 14 697 17 694 21 b 693 21 692 22 688 22 b 695 26 699 27 702 28 b 705 31 706 35 706 40 b 706 44 705 47 703 49 b 702 52 700 54 697 55 b 693 55 689 58 684 58 l 657 58 l 657 -5 z m 544 -5 l 544 1 l 514 1 l 514 58 l 505 58 l 505 -5 z m 961 16 b 960 12 958 9 955 6 b 952 3 948 1 943 1 b 938 1 934 2 931 3 b 930 7 927 9 927 13 b 924 16 922 21 922 27 b 922 31 924 35 924 39 b 928 43 927 45 931 48 b 933 49 937 49 943 49 b 948 49 952 49 954 48 b 958 46 960 43 960 39 l 969 40 b 966 47 964 50 960 54 b 956 55 950 58 943 58 b 938 58 935 55 928 54 b 926 53 923 50 918 45 b 916 37 915 31 915 27 b 915 23 916 17 918 9 b 922 5 923 1 928 -3 b 932 -5 937 -6 943 -6 b 950 -6 956 -4 960 0 b 964 2 967 7 969 15 z m 1054 -5 l 1054 48 l 1072 -5 l 1080 -5 l 1098 46 l 1098 -5 l 1105 -5 l 1105 58 l 1093 58 l 1080 13 b 1078 7 1077 4 1077 3 b 1077 7 1074 9 1074 13 l 1059 58 l 1047 58 l 1047 -5 z m 616 39 b 618 43 619 46 619 49 b 623 45 621 43 624 39 l 631 21 l 610 21 z m 363 -5 l 363 3 l 352 3 l 352 -5 z m 883 -5 l 883 1 l 852 1 l 852 58 l 844 58 l 844 -5 z m 832 -5 l 832 1 l 795 1 l 795 22 l 829 22 l 829 30 l 795 30 l 795 49 l 832 49 l 832 58 l 787 58 l 787 -5 z m 573 -5 l 573 21 l 598 58 l 589 58 l 577 39 b 573 35 571 31 570 28 b 568 29 566 33 564 39 l 552 58 l 541 58 l 565 21 l 565 -5 z m 409 -5 b 412 -2 414 -4 415 0 b 418 0 420 2 421 6 b 421 7 423 9 423 13 b 423 15 422 18 420 22 b 417 25 414 27 411 28 b 414 28 416 30 417 34 b 419 35 420 37 420 40 b 420 44 419 47 417 49 b 416 52 413 54 409 55 b 408 55 404 58 400 58 l 376 58 l 376 -5 z m 213 -5 l 226 42 b 226 45 227 47 228 49 b 228 47 228 45 229 42 l 241 -5 l 249 -5 l 267 58 l 259 58 l 249 16 b 246 11 247 7 246 3 b 246 11 244 16 241 25 l 232 58 l 222 58 l 210 15 b 210 12 209 8 208 3 b 207 7 208 11 205 16 l 196 58 l 187 58 l 205 -5 z m 130 -5 l 144 42 b 144 45 145 47 147 49 b 147 47 147 45 148 42 l 160 -5 l 168 -5 l 186 58 l 177 58 l 168 16 b 165 11 167 7 163 3 b 163 11 163 16 160 25 l 150 58 l 141 58 l 129 15 b 129 12 128 8 127 3 b 124 7 123 11 123 16 l 115 58 l 105 58 l 123 -5 z m 384 49 l 396 49 b 401 49 404 49 405 48 b 406 48 405 46 408 46 l 409 46 b 410 45 411 43 411 40 b 411 37 410 35 409 34 b 409 33 408 33 405 33 b 404 31 401 30 397 30 l 384 30 z m 294 -5 l 307 42 b 307 45 308 47 310 49 b 310 47 311 45 312 42 l 324 -5 l 331 -5 l 349 58 l 342 58 l 331 16 b 330 11 331 7 327 3 b 327 11 325 16 324 25 l 313 58 l 304 58 l 292 15 b 292 12 291 11 291 3 b 287 7 289 11 286 16 l 277 58 l 268 58 l 285 -5 z m 664 49 l 684 49 b 690 49 693 49 694 48 b 696 46 697 43 697 40 b 697 37 697 35 696 34 b 696 31 695 30 693 30 b 689 30 686 28 682 28 l 664 28 z m 384 22 l 408 22 b 410 22 411 21 411 19 b 413 17 414 15 414 13 l 414 7 b 412 6 410 5 409 3 l 405 3 b 404 2 402 1 400 1 l 384 1 z m 442 -5 l 442 58 l 435 58 l 435 -5 z m 985 25 b 985 34 988 41 993 45 b 996 48 1000 49 1006 49 b 1011 49 1015 49 1018 48 b 1021 47 1024 44 1026 39 b 1027 36 1027 32 1027 27 b 1027 17 1025 10 1021 7 b 1018 3 1013 1 1006 1 b 999 1 994 3 990 7 b 987 10 985 16 985 25 z m 976 25 b 976 20 978 14 981 9 b 982 5 986 1 990 -3 b 995 -6 1001 -6 1006 -6 b 1012 -6 1017 -5 1021 -3 b 1025 0 1029 4 1032 9 b 1034 12 1035 18 1035 27 b 1035 35 1034 40 1033 42 b 1029 47 1028 51 1021 54 b 1017 55 1013 58 1006 58 b 996 58 989 55 985 49 b 979 44 976 36 976 25 z m 600 -5 l 609 13 l 634 13 l 642 -5 l 651 -5 l 625 58 l 616 58 l 592 -5 z m 495 -5 l 495 1 l 466 1 l 466 58 l 459 58 l 459 -5 z m 903 -5 l 903 3 l 892 3 l 892 -5 z m 766 19 l 766 7 b 765 6 763 7 759 3 b 756 2 752 1 748 1 b 743 1 739 2 736 3 b 735 4 733 7 729 13 b 727 15 726 20 726 27 b 726 31 727 35 727 39 b 730 42 732 44 732 45 b 734 47 736 48 739 49 l 756 49 b 760 48 762 47 762 45 b 765 42 766 40 766 39 l 774 40 b 773 43 771 46 768 49 b 767 52 764 54 760 55 b 757 57 753 58 748 58 b 743 58 736 55 732 54 b 727 52 723 48 721 42 b 720 35 717 33 717 25 b 717 20 720 14 721 9 b 724 2 728 1 733 -3 b 737 -5 742 -6 748 -6 b 752 -6 758 -5 762 -5 b 766 -4 770 -1 774 3 l 774 27 l 748 27 l 748 19 z m 664 -5 l 664 22 l 678 22 b 679 22 678 21 681 21 l 682 21 b 685 18 687 20 687 16 b 688 15 689 11 693 7 l 702 -5 l 712 -5 l 700 10 b 696 14 697 17 694 21 b 693 21 692 22 688 22 b 695 26 699 27 702 28 b 705 31 706 35 706 40 b 706 44 705 47 703 49 b 702 52 700 54 697 55 b 693 55 689 58 684 58 l 657 58 l 657 -5 z m 544 -5 l 544 1 l 514 1 l 514 58 l 505 58 l 505 -5 z m 961 16 b 960 12 958 9 955 6 b 952 3 948 1 943 1 b 938 1 934 2 931 3 b 930 7 927 9 927 13 b 924 16 922 21 922 27 b 922 31 924 35 924 39 b 928 43 927 45 931 48 b 933 49 937 49 943 49 b 948 49 952 49 954 48 b 958 46 960 43 960 39 l 969 40 b 966 47 964 50 960 54 b 956 55 950 58 943 58 b 938 58 935 55 928 54 b 926 53 923 50 918 45 b 916 37 915 31 915 27 b 915 23 916 17 918 9 b 922 5 923 1 928 -3 b 932 -5 937 -6 943 -6 b 950 -6 956 -4 960 0 b 964 2 967 7 969 15 z m 1054 -5 l 1054 48 l 1072 -5 l 1080 -5 l 1098 46 l 1098 -5 l 1105 -5 l 1105 58 l 1093 58 l 1080 13 b 1078 7 1077 4 1077 3 b 1077 7 1074 9 1074 13 l 1059 58 l 1047 58 l 1047 -5 z m 616 39 b 618 43 619 46 619 49 b 623 45 621 43 624 39 l 631 21 l 610 21 z m 363 -5 l 363 3 l 352 3 l 352 -5 z m 883 -5 l 883 1 l 852 1 l 852 58 l 844 58 l 844 -5 z m 832 -5 l 832 1 l 795 1 l 795 22 l 829 22 l 829 30 l 795 30 l 795 49 l 832 49 l 832 58 l 787 58 l 787 -5 z m 573 -5 l 573 21 l 598 58 l 589 58 l 577 39 b 573 35 571 31 570 28 b 568 29 566 33 564 39 l 552 58 l 541 58 l 565 21 l 565 -5 z m 409 -5 b 412 -2 414 -4 415 0 b 418 0 420 2 421 6 b 421 7 423 9 423 13 b 423 15 422 18 420 22 b 417 25 414 27 411 28 b 414 28 416 30 417 34 b 419 35 420 37 420 40 b 420 44 419 47 417 49 b 416 52 413 54 409 55 b 408 55 404 58 400 58 l 376 58 l 376 -5 z m 213 -5 l 226 42 b 226 45 227 47 228 49 b 228 47 228 45 229 42 l 241 -5 l 249 -5 l 267 58 l 259 58 l 249 16 b 246 11 247 7 246 3 b 246 11 244 16 241 25 l 232 58 l 222 58 l 210 15 b 210 12 209 8 208 3 b 207 7 208 11 205 16 l 196 58 l 187 58 l 205 -5 z m 130 -5 l 144 42 b 144 45 145 47 147 49 b 147 47 147 45 148 42 l 160 -5 l 168 -5 l 186 58 l 177 58 l 168 16 b 165 11 167 7 163 3 b 163 11 163 16 160 25 l 150 58 l 141 58 l 129 15 b 129 12 128 8 127 3 b 124 7 123 11 123 16 l 115 58 l 105 58 l 123 -5 z m 384 49 l 396 49 b 401 49 404 49 405 48 b 406 48 405 46 408 46 l 409 46 b 410 45 411 43 411 40 b 411 37 410 35 409 34 b 409 33 408 33 405 33 b 404 31 401 30 397 30 l 384 30 z m 294 -5 l 307 42 b 307 45 308 47 310 49 b 310 47 311 45 312 42 l 324 -5 l 331 -5 l 349 58 l 342 58 l 331 16 b 330 11 331 7 327 3 b 327 11 325 16 324 25 l 313 58 l 304 58 l 292 15 b 292 12 291 11 291 3 b 287 7 289 11 286 16 l 277 58 l 268 58 l 285 -5 z m 664 49 l 684 49 b 690 49 693 49 694 48 b 696 46 697 43 697 40 b 697 37 697 35 696 34 b 696 31 695 30 693 30 b 689 30 686 28 682 28 l 664 28 z m 384 22 l 408 22 b 410 22 411 21 411 19 b 413 17 414 15 414 13 l 414 7 b 412 6 410 5 409 3 l 405 3 b 404 2 402 1 400 1 l 384 1 z m 442 -5 l 442 58 l 435 58 l 435 -5 z m 985 25 b 985 34 988 41 993 45 b 996 48 1000 49 1006 49 b 1011 49 1015 49 1018 48 b 1021 47 1024 44 1026 39 b 1027 36 1027 32 1027 27 b 1027 17 1025 10 1021 7 b 1018 3 1013 1 1006 1 b 999 1 994 3 990 7 b 987 10 985 16 985 25 z m 976 25 b 976 20 978 14 981 9 b 982 5 986 1 990 -3 b 995 -6 1001 -6 1006 -6 b 1012 -6 1017 -5 1021 -3 b 1025 0 1029 4 1032 9 b 1034 12 1035 18 1035 27 b 1035 35 1034 40 1033 42 b 1029 47 1028 51 1021 54 b 1017 55 1013 58 1006 58 b 996 58 989 55 985 49 b 979 44 976 36 976 25 z m 600 -5 l 609 13 l 634 13 l 642 -5 l 651 -5 l 625 58 l 616 58 l 592 -5 z m 495 -5 l 495 1 l 466 1 l 466 58 l 459 58 l 459 -5 z m 903 -5 l 903 3 l 892 3 l 892 -5 z m 766 19 l 766 7 b 765 6 763 7 759 3 b 756 2 752 1 748 1 b 743 1 739 2 736 3 b 735 4 733 7 729 13 b 727 15 726 20 726 27 b 726 31 727 35 727 39 b 730 42 732 44 732 45 b 734 47 736 48 739 49 l 756 49 b 760 48 762 47 762 45 b 765 42 766 40 766 39 l 774 40 b 773 43 771 46 768 49 b 767 52 764 54 760 55 b 757 57 753 58 748 58 b 743 58 736 55 732 54 b 727 52 723 48 721 42 b 720 35 717 33 717 25 b 717 20 720 14 721 9 b 724 2 728 1 733 -3 b 737 -5 742 -6 748 -6 b 752 -6 758 -5 762 -5 b 766 -4 770 -1 774 3 l 774 27 l 748 27 l 748 19 z m 664 -5 l 664 22 l 678 22 b 679 22 678 21 681 21 l 682 21 b 685 18 687 20 687 16 b 688 15 689 11 693 7 l 702 -5 l 712 -5 l 700 10 b 696 14 697 17 694 21 b 693 21 692 22 688 22 b 695 26 699 27 702 28 b 705 31 706 35 706 40 b 706 44 705 47 703 49 b 702 52 700 54 697 55 b 693 55 689 58 684 58 l 657 58 l 657 -5 z m 544 -5 l 544 1 l 514 1 l 514 58 l 505 58 l 505 -5 z m 961 16 b 960 12 958 9 955 6 b 952 3 948 1 943 1 b 938 1 934 2 931 3 b 930 7 927 9 927 13 b 924 16 922 21 922 27 b 922 31 924 35 924 39 b 928 43 927 45 931 48 b 933 49 937 49 943 49 b 948 49 952 49 954 48 b 958 46 960 43 960 39 l 969 40 b 966 47 964 50 960 54 b 956 55 950 58 943 58 b 938 58 935 55 928 54 b 926 53 923 50 918 45 b 916 37 915 31 915 27 b 915 23 916 17 918 9 b 922 5 923 1 928 -3 b 932 -5 937 -6 943 -6 b 950 -6 956 -4 960 0 b 964 2 967 7 969 15 z m 1054 -5 l 1054 48 l 1072 -5 l 1080 -5 l 1098 46 l 1098 -5 l 1105 -5 l 1105 58 l 1093 58 l 1080 13 b 1078 7 1077 4 1077 3 b 1077 7 1074 9 1074 13 l 1059 58 l 1047 58 l 1047 -5 z m 175 111 b 174 103 170 97 166 93 b 161 88 155 85 147 85 b 141 85 135 87 130 91 b 126 93 123 98 121 105 b 118 109 117 115 117 124 b 117 133 117 140 118 144 b 120 149 124 153 130 157 b 134 161 140 163 148 163 b 154 163 159 161 163 157 b 166 156 170 152 174 144 l 186 145 b 183 156 178 163 171 165 b 167 170 159 172 148 172 b 139 172 131 170 124 166 b 117 163 112 158 109 151 b 105 144 103 135 103 124 b 103 114 105 106 109 99 b 110 93 115 87 123 81 b 131 77 139 75 148 75 b 157 75 166 78 174 84 b 181 90 185 97 187 106 z m 199 123 b 199 114 201 106 205 99 b 208 91 213 85 220 81 b 228 77 235 75 244 75 b 251 75 259 77 267 81 b 274 85 280 91 285 99 b 289 107 291 115 291 124 b 291 131 289 140 285 150 b 280 158 274 163 268 166 b 261 170 253 172 244 172 b 232 172 221 168 213 159 b 202 151 199 139 199 123 z m 213 123 b 213 138 216 148 222 153 b 229 160 236 163 244 163 b 252 163 258 161 261 157 b 267 155 271 151 273 144 b 274 137 277 132 277 124 b 277 113 274 104 267 97 b 262 89 254 85 244 85 b 235 85 227 88 220 94 b 215 101 213 111 213 123 z m 318 78 l 318 157 l 345 78 l 357 78 l 384 156 l 384 78 l 396 78 l 396 171 l 381 171 l 357 106 b 355 98 353 93 351 91 b 351 94 349 99 346 105 l 324 171 l 306 171 l 306 78 z m 429 78 l 429 117 l 453 117 b 467 117 476 119 481 124 b 486 131 489 138 489 144 b 489 149 487 153 486 157 b 482 162 479 165 478 166 b 475 169 471 171 466 171 l 417 171 l 417 78 z m 429 162 l 453 162 b 459 162 462 161 463 159 b 466 159 470 157 474 153 b 475 152 475 149 475 144 b 475 137 473 133 469 132 b 468 128 463 126 454 126 l 429 126 z m 564 78 l 564 87 l 517 87 l 517 171 l 505 171 l 505 78 z m 649 78 l 649 87 l 591 87 l 591 120 l 643 120 l 643 132 l 591 132 l 591 162 l 648 162 l 648 171 l 579 171 l 579 78 z m 703 78 l 703 162 l 735 162 l 735 171 l 658 171 l 658 162 l 690 162 l 690 78 z m 819 78 l 819 87 l 760 87 l 760 120 l 813 120 l 813 132 l 760 132 l 760 162 l 817 162 l 817 171 l 748 171 l 748 78 z m 870 106 b 870 100 871 95 873 91 b 878 84 883 80 888 79 b 892 78 901 75 909 75 b 917 75 923 78 928 79 b 932 81 936 84 940 88 b 942 91 943 96 943 103 b 943 109 942 114 940 117 b 936 121 935 123 928 126 b 924 127 918 129 907 132 b 895 137 889 139 889 139 b 886 141 885 144 885 147 b 885 151 886 154 889 157 b 891 160 897 162 907 162 b 914 162 919 160 922 157 b 925 156 928 152 930 144 l 942 145 b 942 151 940 156 936 159 b 933 164 929 165 924 169 b 920 171 914 172 907 172 b 897 172 891 172 889 171 b 884 167 880 166 877 162 b 873 158 871 153 871 147 b 871 143 872 139 876 136 b 878 131 881 128 885 126 b 889 123 895 124 904 120 b 914 118 920 117 921 117 b 925 113 927 112 930 111 b 931 109 931 106 931 103 b 931 99 931 96 930 94 b 928 90 925 88 922 88 b 918 87 913 87 909 87 b 902 87 897 87 895 88 b 890 90 887 93 885 97 b 883 99 882 103 882 108 z m 1032 78 l 1032 87 l 975 87 l 975 120 l 1027 120 l 1027 132 l 975 132 l 975 162 l 1029 162 l 1029 171 l 961 171 l 961 78 z m 1086 78 l 1086 162 l 1117 162 l 1117 171 l 1044 171 l 1044 162 l 1074 162 l 1074 78 z m 127 190 l 127 229 l 150 229 b 165 229 174 232 177 237 b 183 243 186 250 186 259 b 186 264 185 268 183 270 b 180 274 178 279 175 280 b 169 282 165 283 163 283 l 112 283 l 112 190 z m 127 274 l 150 274 b 157 274 161 274 162 273 b 164 273 166 271 169 268 b 172 264 174 260 174 256 b 174 252 172 248 168 244 b 165 242 159 241 150 241 l 127 241 z m 271 190 l 271 202 l 214 202 l 214 234 l 265 234 l 265 244 l 214 244 l 214 274 l 268 274 l 268 283 l 201 283 l 201 190 z m 303 190 l 303 234 l 316 234 b 320 234 323 233 324 231 b 326 231 328 230 330 229 b 331 229 332 226 336 223 b 337 219 342 215 343 210 l 357 190 l 372 190 l 355 216 b 353 220 350 224 345 229 b 342 232 341 230 337 234 b 357 238 364 246 364 259 b 364 261 363 266 361 274 b 359 277 356 280 351 282 b 347 283 340 283 331 283 l 288 283 l 288 190 z m 303 274 l 331 274 b 338 274 343 273 346 270 b 349 267 351 263 351 259 b 351 255 350 252 349 250 b 347 249 345 247 342 244 b 340 243 335 243 327 243 l 303 243 z m 381 222 b 381 214 381 209 384 204 b 388 197 392 196 397 192 b 405 190 413 189 420 189 b 425 189 431 190 439 192 b 443 196 446 197 450 204 b 453 208 454 212 454 217 b 454 223 453 228 450 231 b 447 235 443 237 439 241 b 433 241 426 243 417 247 b 407 249 401 251 400 253 b 397 254 396 257 396 261 b 396 265 397 268 400 270 b 403 274 409 276 417 276 b 424 276 429 274 433 270 b 436 268 439 263 441 256 l 453 259 b 453 262 451 267 447 273 b 445 277 441 280 435 283 b 431 285 425 286 417 286 b 408 286 402 285 400 283 b 393 281 389 278 388 274 b 384 270 384 265 384 261 b 384 256 384 252 385 249 b 387 247 391 244 396 240 b 400 237 406 235 415 234 b 423 230 429 232 430 229 b 434 227 438 225 441 223 b 442 222 442 220 442 216 b 442 213 441 211 441 208 b 440 206 436 204 430 202 b 429 201 424 201 420 201 b 416 201 411 202 405 204 b 401 204 397 207 396 210 b 393 214 391 218 391 222 z m 468 237 b 468 227 470 219 474 214 b 475 207 480 201 489 196 b 496 191 504 189 513 189 b 521 189 529 191 537 195 b 543 199 548 204 552 211 b 556 219 558 228 558 237 b 558 247 556 255 552 262 b 548 270 545 276 537 280 b 526 284 521 286 513 286 b 500 286 489 282 480 273 b 472 263 468 251 468 237 z m 480 237 b 480 251 483 261 489 267 b 498 272 502 276 513 276 b 520 276 526 274 531 270 b 534 268 537 264 540 259 b 544 254 544 245 544 237 b 544 226 542 217 537 210 b 531 204 523 201 513 201 b 493 201 480 213 480 237 z m 585 190 l 585 264 l 636 190 l 648 190 l 648 283 l 636 283 l 636 211 l 586 283 l 573 283 l 573 190 z m 670 190 l 682 220 l 721 220 l 732 190 l 747 190 l 708 283 l 694 283 l 658 190 z m 696 256 b 697 263 700 269 700 274 b 703 270 704 263 708 255 l 717 229 l 684 229 z m 814 190 l 814 202 l 768 202 l 768 283 l 754 283 l 754 190 z m 922 231 b 922 218 920 209 916 205 b 911 202 905 201 897 201 b 890 201 887 201 883 204 b 880 205 878 207 876 211 b 874 214 873 221 873 231 l 873 283 l 862 283 l 862 231 b 862 218 863 210 864 208 b 868 203 872 196 877 195 b 881 191 888 189 898 189 b 908 189 916 191 921 195 b 926 198 929 202 931 208 b 933 212 934 220 934 231 l 934 283 l 922 283 z m 951 222 b 951 214 953 209 957 204 b 961 197 966 196 970 192 b 977 189 982 189 993 189 b 998 189 1003 190 1009 192 b 1016 196 1017 197 1021 204 b 1024 207 1026 211 1026 217 b 1026 224 1024 229 1021 231 b 1020 235 1016 237 1009 241 b 1006 241 999 243 988 247 b 968 251 967 254 967 261 b 967 266 969 269 973 270 b 974 274 979 276 988 276 b 996 276 1002 274 1005 270 b 1009 267 1008 263 1012 256 l 1024 259 b 1024 263 1021 269 1020 273 b 1017 277 1012 280 1006 283 b 1002 287 995 286 988 286 b 980 286 974 285 970 283 b 964 281 961 278 960 274 b 957 269 955 265 955 261 b 955 256 957 252 960 249 b 961 245 964 242 969 240 b 970 236 979 235 987 234 b 995 230 1001 232 1005 229 b 1009 228 1008 226 1012 223 b 1013 222 1014 220 1014 216 b 1014 212 1013 209 1012 208 b 1009 205 1007 203 1005 202 b 1002 201 997 201 990 201 b 987 201 982 202 976 204 b 972 204 970 207 967 210 b 966 214 963 218 963 222 z m 1113 190 l 1113 202 l 1057 202 l 1057 234 l 1107 234 l 1107 244 l 1057 244 l 1057 274 l 1111 274 l 1111 283 l 1044 283 l 1044 190 z m 307 388 b 307 379 300 369 285 357 b 277 350 265 346 250 345 b 245 342 236 343 232 343 b 223 344 216 346 210 348 b 219 353 226 361 234 372 l 258 397 l 267 408 b 275 408 281 406 285 406 b 300 404 307 398 307 388 z m 324 433 b 324 430 319 426 310 420 b 303 415 298 412 294 412 l 268 408 b 270 412 272 415 274 417 l 291 432 b 306 437 314 439 316 439 b 321 439 324 437 324 433 z m 342 460 b 339 462 335 463 330 463 l 324 463 b 312 467 303 469 297 469 b 294 469 292 469 289 469 b 274 469 260 464 246 454 b 233 443 226 432 226 421 b 226 415 229 410 235 406 b 235 407 235 408 234 409 b 231 412 229 416 229 420 b 229 433 238 444 256 453 b 271 461 285 465 298 466 b 303 466 310 465 319 462 b 299 456 274 435 243 400 l 225 379 b 226 382 226 386 226 391 l 226 393 b 222 386 223 380 219 376 b 215 372 211 368 207 363 b 207 362 203 359 195 354 b 180 363 172 374 172 387 b 172 394 175 400 181 406 b 183 410 185 412 187 412 l 190 417 b 176 407 168 395 166 382 b 166 368 172 357 183 349 b 175 345 170 343 162 343 b 158 343 155 345 148 346 b 141 348 136 352 132 358 b 128 365 126 370 126 379 b 126 389 130 401 139 415 b 149 427 159 436 169 441 b 170 443 176 446 186 450 b 193 454 199 456 205 456 b 210 456 215 454 220 451 b 216 455 209 457 198 457 b 187 456 177 453 166 444 b 149 433 137 420 130 405 b 126 394 124 389 124 381 b 124 367 129 356 139 349 b 145 343 154 340 165 340 b 173 340 180 342 187 346 l 187 345 b 182 341 176 339 168 339 l 163 339 b 167 338 172 336 178 334 l 181 334 b 186 334 192 336 198 340 b 205 337 211 336 217 336 b 219 336 221 335 224 335 b 230 335 238 337 247 339 b 263 340 279 346 292 354 b 311 367 321 379 321 391 b 321 401 312 407 294 409 b 317 414 331 421 336 430 l 336 436 b 336 441 334 444 330 444 b 327 444 324 445 321 445 b 317 445 314 444 310 444 b 306 441 301 440 297 436 b 310 449 321 457 331 459 b 335 459 335 457 339 457 b 342 457 343 458 343 460 z m 346 363 b 342 359 340 358 339 357 b 332 347 326 342 321 342 b 317 342 315 343 315 346 b 315 349 318 355 324 364 l 334 375 b 340 382 343 387 343 391 b 343 392 342 393 339 393 l 334 393 b 334 391 333 388 330 385 l 325 379 l 324 379 b 317 372 312 369 309 369 b 310 368 310 367 310 367 b 313 367 315 368 316 369 l 318 369 b 312 361 309 354 309 349 b 309 343 311 340 316 340 b 321 340 327 342 334 346 b 341 353 345 359 346 363 z m 354 405 b 354 406 355 408 355 409 b 355 410 354 410 354 411 l 346 414 l 346 411 b 344 404 340 400 333 400 l 328 400 b 332 397 336 396 339 396 b 345 396 350 399 354 405 z m 406 433 b 406 436 405 439 402 441 b 400 435 397 430 394 426 l 385 417 l 367 394 b 347 369 337 354 337 348 b 337 348 337 348 337 348 b 337 343 340 340 346 339 b 352 339 358 341 363 345 b 371 351 375 356 375 361 b 372 357 370 358 369 355 b 362 345 355 340 349 340 b 346 340 345 342 345 345 b 345 351 349 359 358 370 l 360 370 b 391 407 406 428 406 433 z m 432 433 b 432 436 430 439 427 441 b 426 437 423 432 418 426 l 409 417 l 391 394 b 371 369 361 354 361 348 b 361 343 364 340 370 339 b 376 339 382 341 387 345 b 395 351 399 356 400 361 l 394 355 b 385 345 379 340 375 340 b 371 340 369 342 369 345 b 369 350 374 358 384 370 b 416 408 432 429 432 433 z m 387 309 b 380 302 376 298 372 294 b 368 293 364 292 362 292 b 362 292 361 292 361 292 b 357 292 355 294 355 298 b 355 300 359 306 366 315 b 375 324 387 330 403 333 z m 447 430 b 444 425 440 419 436 411 l 418 394 b 397 375 387 360 387 348 b 387 343 389 340 394 340 b 398 340 404 340 412 348 l 403 334 l 399 334 b 396 334 394 333 393 333 b 382 332 368 325 351 313 l 361 315 l 360 313 b 356 309 355 304 352 303 b 350 300 350 298 350 295 b 350 292 351 290 355 289 b 358 285 363 283 369 283 b 376 285 382 289 388 295 l 406 318 b 413 327 420 332 424 336 l 426 337 b 418 333 412 330 409 328 l 423 346 l 435 366 b 440 374 442 379 442 381 b 442 384 441 386 439 388 l 439 397 b 433 375 423 358 408 346 b 404 344 401 343 400 343 b 397 343 396 345 396 348 b 396 353 399 360 405 369 b 404 366 403 364 403 362 b 403 361 403 361 403 360 b 403 362 404 364 406 366 b 413 375 419 382 426 390 b 426 391 427 390 427 393 b 438 404 445 416 447 430 z m 636 450 b 620 444 601 430 579 408 b 559 420 543 426 531 427 b 536 431 541 437 549 441 b 566 450 583 456 603 456 b 607 456 612 455 618 453 z m 627 420 b 616 408 608 398 604 393 l 589 402 l 600 412 b 612 424 619 431 622 433 b 633 444 641 444 649 447 z m 663 475 l 661 475 b 659 465 656 457 652 450 l 651 451 l 642 451 l 624 456 b 614 458 606 459 601 459 b 590 459 582 458 577 457 b 556 454 539 445 525 429 b 510 429 497 425 487 418 b 475 409 469 398 469 385 b 469 376 475 366 487 354 l 484 357 b 478 364 475 372 475 381 b 475 382 475 384 475 385 b 475 397 483 406 499 412 b 502 414 509 416 519 418 b 518 416 517 414 517 411 b 517 405 521 400 528 396 b 524 402 521 405 520 405 b 520 410 521 414 523 418 l 525 418 b 544 418 561 414 576 405 l 547 375 b 522 348 499 334 478 333 b 475 333 471 334 465 336 b 450 341 442 351 442 367 b 442 378 447 391 456 405 b 464 414 473 422 484 430 b 499 439 512 444 522 444 b 529 444 533 443 535 441 l 537 441 b 533 445 526 447 516 447 b 504 444 493 444 481 433 b 464 422 453 409 447 393 b 443 388 441 380 441 370 b 441 356 446 346 456 339 l 454 339 b 461 334 470 331 481 331 b 492 331 502 333 510 337 b 502 330 495 326 488 326 b 486 326 485 327 483 327 b 481 327 480 327 480 327 b 486 324 490 322 493 322 l 498 322 b 510 322 524 330 540 346 b 556 366 566 377 573 385 l 586 399 l 601 391 b 589 374 580 358 580 346 b 580 344 579 342 579 340 b 579 332 583 328 591 328 b 597 328 606 333 618 342 b 615 333 613 326 613 322 l 633 361 b 641 373 646 386 648 400 l 648 402 b 647 403 646 404 646 405 l 646 400 b 643 389 637 377 627 363 l 621 354 b 612 341 603 334 595 334 b 591 334 589 336 589 340 b 589 342 590 345 592 349 b 593 360 600 372 612 385 b 616 384 617 382 621 382 b 622 382 622 383 622 385 b 618 388 617 387 613 388 l 637 417 b 645 425 652 435 657 447 l 658 447 l 657 448 b 660 455 661 462 661 469 b 662 470 663 471 663 472 z m 682 375 b 682 381 678 385 670 388 b 675 395 678 399 678 400 l 676 402 b 675 402 675 401 675 400 b 668 394 664 391 664 390 b 664 387 666 388 666 387 b 663 382 657 375 648 367 b 639 357 632 352 628 352 l 631 351 l 637 354 b 646 358 657 368 669 385 b 672 383 674 381 674 378 b 674 378 673 377 673 376 b 673 374 670 369 663 360 b 654 351 649 344 649 340 b 649 338 652 337 657 337 b 657 338 657 339 658 339 b 659 339 660 339 661 340 l 658 340 b 665 351 670 358 681 367 b 682 369 682 372 682 375 z m 726 378 b 722 374 719 368 715 364 l 717 367 b 717 372 715 375 711 375 b 712 375 712 374 712 372 b 712 369 710 363 706 355 b 702 350 697 347 691 345 b 689 345 688 346 688 347 b 688 347 688 348 688 348 b 688 357 704 378 711 382 b 713 384 716 385 720 385 b 721 386 722 386 723 386 b 725 386 726 384 726 379 z m 759 393 b 757 396 754 397 751 397 b 747 397 743 395 738 390 l 730 381 l 729 381 b 729 389 725 393 718 393 b 713 393 708 390 702 384 b 689 372 682 361 682 352 b 682 344 686 340 694 340 b 696 340 699 341 702 342 l 685 318 b 675 303 666 295 658 295 b 658 295 657 295 657 295 b 656 295 655 296 655 297 b 654 298 654 299 654 300 b 654 303 654 305 655 307 b 659 319 671 328 690 334 l 688 336 b 684 336 685 334 682 334 b 670 331 659 325 649 315 b 652 315 655 315 657 316 b 653 312 651 308 651 303 b 651 303 651 300 651 295 b 653 291 657 289 662 289 b 663 289 663 289 664 289 b 671 289 681 297 694 313 b 697 317 706 328 715 348 b 726 364 733 376 741 385 b 746 390 750 393 754 393 z m 781 382 b 781 385 779 388 775 391 b 774 392 773 393 771 393 b 761 393 753 388 747 379 b 736 369 730 359 730 349 b 730 343 733 340 739 340 b 740 340 740 340 741 340 b 741 340 741 340 741 340 b 743 339 744 339 746 339 b 751 339 756 341 762 345 b 771 350 774 356 778 361 b 775 359 773 357 771 355 b 764 349 755 344 745 340 b 741 340 739 341 739 343 b 738 344 738 345 738 346 b 738 349 739 353 741 357 b 742 360 743 363 745 367 b 745 362 746 359 747 358 b 747 362 746 367 753 375 l 753 376 b 762 385 768 390 772 390 l 772 384 b 770 377 766 371 759 367 b 756 367 753 368 751 370 b 754 365 757 363 760 363 l 762 363 b 763 363 764 363 765 364 b 776 370 781 376 781 382 z m 841 433 b 841 436 840 439 837 441 b 837 437 834 432 828 426 l 819 417 l 801 394 b 782 371 772 356 772 348 b 772 344 775 341 780 339 b 787 339 793 341 798 345 b 806 351 810 356 810 361 b 807 357 805 358 804 355 b 797 345 790 340 784 340 b 781 340 780 342 780 345 b 780 351 784 359 793 370 b 825 408 841 429 841 433 z m 922 387 b 913 371 900 362 892 354 b 879 344 865 339 850 339 l 844 339 b 841 340 840 343 840 349 b 840 364 849 381 868 399 b 875 404 886 410 895 415 b 896 402 905 393 922 387 z m 936 405 l 925 391 b 908 394 899 403 897 417 b 914 425 928 429 940 430 l 952 430 z m 979 457 b 970 448 962 440 958 433 b 949 436 943 435 939 435 b 936 435 933 435 930 435 b 921 435 910 434 897 430 b 901 438 904 443 907 445 b 921 457 937 463 955 463 b 956 463 958 463 960 463 b 941 459 927 453 916 444 b 932 453 954 457 979 457 z m 1074 459 b 1070 458 1063 457 1054 457 b 1048 457 1040 459 1030 462 b 1021 466 1013 465 1005 468 b 1010 472 1016 474 1020 475 b 1020 475 1025 476 1036 478 b 1034 480 1031 481 1027 481 b 1025 481 1023 482 1021 482 b 1013 482 1006 477 991 468 l 990 468 b 979 469 975 469 964 469 b 943 469 926 464 913 453 l 900 439 b 900 435 899 432 897 430 b 878 422 863 411 852 397 b 843 386 837 373 835 358 b 835 357 835 355 835 354 b 835 349 836 345 837 340 b 823 345 815 357 813 375 b 813 387 817 400 825 414 b 831 424 840 434 852 444 b 866 455 879 461 892 463 b 898 463 903 462 906 459 l 907 460 b 902 464 896 466 889 466 b 876 466 861 459 844 444 b 831 429 821 419 814 400 b 810 392 811 384 811 375 b 812 361 819 349 831 340 b 835 338 837 337 838 337 b 843 332 850 328 858 324 l 846 336 l 855 334 b 863 334 874 337 888 343 b 877 333 866 328 856 328 b 862 328 868 328 873 327 b 884 327 896 334 909 348 b 917 356 924 368 939 384 l 946 384 b 954 384 964 386 973 390 b 983 395 990 400 993 406 l 991 406 b 987 396 973 390 948 388 l 940 388 l 951 403 b 955 411 962 418 970 427 l 994 423 b 1000 421 1006 420 1011 420 b 1014 420 1018 420 1021 421 b 1032 423 1040 426 1044 430 b 1039 427 1029 426 1015 426 b 1003 426 989 429 973 430 l 994 456 b 1010 456 1023 452 1032 445 b 1028 441 1030 439 1027 438 b 1028 437 1029 436 1030 436 l 1033 436 b 1040 436 1048 439 1056 444 b 1065 448 1070 452 1074 459 z m 982 354 b 975 347 971 343 969 343 b 967 343 966 344 966 346 b 966 347 966 347 966 348 b 966 354 970 363 979 375 b 979 371 978 368 978 364 b 978 360 979 357 982 354 z m 1002 385 b 1000 378 997 373 994 370 b 994 371 993 374 991 378 b 992 377 993 376 993 375 b 993 373 992 369 990 363 b 987 360 988 361 987 358 l 987 360 l 987 358 l 982 354 b 981 355 981 357 981 360 b 981 363 983 369 988 379 b 990 383 992 386 993 387 b 995 388 997 388 999 388 b 1001 388 1002 387 1002 385 z m 1008 381 b 1008 389 1004 393 997 393 b 988 393 980 388 973 379 b 962 366 957 356 957 348 b 957 343 960 340 966 340 l 978 340 b 982 343 988 349 997 358 b 1004 368 1008 376 1008 381 z m 1057 384 b 1056 388 1054 391 1050 393 b 1043 393 1036 390 1030 385 b 1030 389 1027 392 1021 394 b 1021 393 1023 391 1023 388 b 1023 384 1020 379 1015 372 l 1006 361 b 999 354 995 347 993 340 b 992 339 992 337 992 336 b 992 334 993 331 993 327 b 997 335 999 339 1000 340 b 1001 343 1004 348 1009 354 b 1017 363 1025 370 1029 379 b 1037 385 1041 388 1041 388 b 1042 389 1044 389 1045 389 b 1047 389 1048 387 1048 384 b 1048 381 1047 382 1047 379 b 1043 371 1040 366 1038 364 b 1039 366 1039 367 1039 367 l 1039 372 b 1038 369 1037 367 1036 366 b 1032 358 1029 353 1021 345 b 1013 336 1009 325 1008 313 b 1010 321 1014 329 1021 336 l 1039 352 b 1041 354 1045 359 1051 367 b 1055 374 1057 380 1057 382 b 1057 383 1057 384 1057 384 z m 1123 405 l 1108 405 l 1096 406 l 1102 415 b 1104 417 1105 420 1105 423 b 1105 427 1104 429 1102 430 b 1098 425 1094 417 1087 408 l 1083 409 b 1055 413 1039 417 1038 417 b 1017 417 1001 412 991 402 l 993 402 b 1005 407 1017 409 1029 409 l 1042 409 b 1048 409 1053 409 1057 408 l 1083 405 l 1048 363 b 1044 355 1042 350 1042 348 b 1043 344 1046 341 1051 339 b 1058 339 1064 341 1069 345 b 1076 351 1080 356 1080 361 b 1077 360 1078 358 1077 357 l 1075 355 b 1066 345 1059 340 1054 340 b 1052 340 1051 342 1051 345 b 1051 350 1053 355 1057 360 b 1059 365 1061 367 1063 367 b 1079 390 1092 401 1093 405 z m 1126 385 b 1126 387 1126 389 1125 390 b 1125 391 1123 392 1119 394 b 1115 394 1114 396 1110 396 b 1101 396 1096 391 1096 381 b 1096 377 1097 373 1098 370 b 1099 367 1099 363 1099 358 b 1099 347 1095 342 1087 342 b 1079 342 1075 346 1075 354 b 1075 356 1077 359 1080 364 b 1082 366 1085 367 1089 367 l 1092 367 l 1086 369 b 1074 367 1068 362 1068 354 b 1068 352 1068 350 1069 349 b 1071 343 1077 340 1086 340 b 1102 340 1110 346 1110 359 b 1110 360 1110 360 1110 361 b 1107 376 1105 385 1105 387 b 1106 391 1109 393 1114 393 l 1119 393 l 1119 387 b 1119 382 1117 378 1114 375 l 1116 376 b 1123 379 1126 382 1126 385 z"},"e":{"x_min":0,"x_max":460,"ha":460,"o":"m 380 221 l 343 221 b 330 221 310 220 284 218 l 277 218 b 272 218 269 219 269 221 l 269 249 l 385 249 b 419 249 436 266 436 299 l 436 408 b 436 436 417 452 378 457 l 337 457 b 314 457 293 456 275 455 l 273 455 b 270 455 269 456 269 457 l 269 484 l 385 484 b 420 484 438 501 438 535 l 438 651 b 438 682 424 698 396 698 l 55 698 b 26 698 12 683 12 653 l 12 49 b 12 19 27 4 57 4 l 400 4 b 430 4 445 21 445 54 l 445 172 b 445 199 423 215 380 221 z m 101 689 l 396 689 b 404 689 411 684 418 675 l 417 675 b 415 675 408 679 396 686 l 95 686 z m 291 632 b 291 642 317 647 369 647 b 373 647 375 646 376 644 b 365 631 349 624 327 624 b 303 624 291 627 291 632 z m 269 502 b 270 505 273 506 280 506 l 396 506 l 393 504 b 392 503 352 502 273 502 l 269 502 z m 322 446 b 335 447 349 448 364 448 b 400 448 418 442 418 429 l 418 428 b 405 439 373 445 322 446 z m 271 446 l 279 446 b 288 446 299 445 311 444 l 275 444 z m 293 399 b 299 399 320 401 356 404 l 365 404 l 371 404 l 373 401 b 363 389 350 383 335 383 l 249 383 b 232 383 223 389 223 402 b 231 402 239 402 246 401 b 276 400 292 399 293 399 z m 271 270 b 272 271 312 272 391 272 l 396 272 l 393 270 b 392 268 353 267 278 267 b 275 267 272 267 269 268 z m 429 189 b 416 200 404 205 393 205 l 278 205 b 271 205 268 207 268 211 l 275 211 l 396 210 b 409 209 420 202 429 189 z m 242 147 b 227 151 220 157 220 166 b 228 166 238 165 251 163 b 271 160 286 158 297 158 l 311 158 b 333 161 349 164 360 165 l 369 165 b 376 165 381 164 382 163 b 374 153 364 147 353 145 l 329 145 b 301 145 272 146 242 147 z m 97 22 b 85 22 79 26 79 33 b 85 28 92 26 99 26 l 405 26 l 398 22 z"},"b":{"x_min":0,"x_max":567,"ha":567,"o":"m 552 236 b 552 290 532 340 492 387 l 492 388 l 499 400 b 516 429 524 463 524 502 b 524 633 461 698 334 698 l 54 698 b 26 698 12 683 12 653 l 12 51 b 12 22 26 7 54 7 l 343 7 b 434 7 497 48 532 129 b 545 160 552 196 552 236 z m 101 689 l 341 689 b 358 689 385 682 421 667 b 458 652 477 637 477 624 l 477 622 b 432 665 386 686 339 686 l 92 686 z m 301 635 b 324 635 345 633 363 629 b 393 622 408 612 408 599 b 408 596 405 595 399 595 b 397 595 395 595 392 596 b 363 611 333 622 301 631 z m 263 522 l 297 522 b 312 522 319 517 319 508 l 319 507 b 304 516 285 519 261 518 l 259 520 z m 263 498 b 269 493 272 487 272 479 b 272 468 269 462 264 462 l 263 462 z m 275 444 b 269 444 264 446 261 449 l 264 449 b 269 449 279 448 292 447 b 287 445 281 444 275 444 z m 214 399 b 214 400 215 401 217 402 l 226 402 b 247 402 260 400 266 396 b 263 391 254 389 240 389 b 223 389 214 392 214 399 z m 261 291 l 306 291 b 325 291 337 284 341 271 b 313 282 286 288 259 289 z m 263 269 b 286 269 297 258 297 237 b 297 217 287 207 268 207 l 263 207 z m 268 191 b 265 192 262 194 261 196 l 262 196 b 264 196 279 195 306 193 b 301 192 293 191 281 191 l 268 191 z m 244 135 b 223 135 213 140 213 150 b 238 150 258 147 272 140 b 271 137 262 135 244 135 z m 377 31 b 367 26 351 24 330 24 l 99 24 b 90 24 82 29 77 38 b 86 32 94 29 99 29 l 339 29 b 357 30 368 31 373 31 l 377 31 z"},"m":{"x_min":0,"x_max":741,"ha":741,"o":"m 267 156 b 268 156 276 146 289 127 b 312 94 338 78 369 78 l 389 78 b 409 83 435 109 468 156 l 468 54 b 468 19 485 2 518 2 l 674 2 b 709 2 726 18 726 51 l 726 646 b 726 681 711 698 681 698 l 532 698 b 518 698 507 691 498 678 l 368 480 l 237 678 b 228 691 217 698 204 698 l 55 698 b 25 698 10 682 10 649 l 10 51 b 10 18 26 2 59 2 l 217 2 b 250 2 267 18 267 49 z m 99 689 l 204 689 b 223 689 233 683 233 670 l 233 669 b 220 680 210 686 204 686 l 95 686 z m 578 689 l 681 689 b 699 689 708 683 708 672 l 708 671 b 694 681 684 686 679 686 l 570 686 z m 610 626 l 616 629 b 628 635 640 638 652 638 l 659 638 l 628 609 b 626 607 624 606 623 606 b 614 609 609 614 609 621 b 609 623 609 625 610 626 z m 171 626 b 171 627 172 628 173 629 b 178 631 180 632 179 633 b 190 615 195 598 195 581 b 195 578 194 577 192 577 b 177 577 170 590 170 615 b 170 619 170 623 171 626 z m 387 445 b 380 445 374 451 369 464 b 381 453 387 447 387 445 z m 331 387 b 331 391 334 393 339 393 b 362 393 374 387 374 376 b 374 374 372 372 369 370 l 359 370 b 340 370 331 376 331 387 z m 513 238 b 513 245 514 250 516 252 b 517 251 518 249 518 246 b 518 241 516 238 513 238 z m 271 236 b 266 240 264 245 264 250 b 278 250 281 246 273 239 z m 388 98 b 379 98 372 101 367 107 l 369 107 l 371 107 b 384 102 393 100 396 100 b 395 99 393 98 388 98 z m 549 22 b 537 29 531 34 531 37 l 532 38 b 544 28 554 23 561 23 l 679 23 b 673 21 656 20 629 20 b 594 20 567 21 549 22 z m 167 20 l 124 20 b 99 21 83 25 77 33 b 87 28 95 25 101 25 l 228 25 l 226 22 b 225 21 205 20 167 20 z"},"n":{"x_min":0,"x_max":616,"ha":616,"o":"m 266 178 l 378 20 b 386 8 399 2 416 2 l 549 2 b 585 2 603 21 603 58 l 603 640 b 603 679 587 698 556 698 l 396 698 b 365 698 349 679 349 642 l 349 518 l 235 680 b 227 692 216 698 202 698 l 57 698 b 26 698 10 679 10 642 l 10 60 b 10 21 28 2 64 2 l 211 2 b 246 2 263 29 264 82 b 265 115 265 148 264 181 z m 90 684 b 91 687 97 689 106 689 l 204 689 b 214 689 223 684 231 673 b 219 680 209 684 202 684 z m 431 684 b 432 687 437 689 445 689 l 558 689 b 567 689 575 684 583 673 l 582 673 l 581 673 b 566 680 557 684 554 684 z m 500 631 b 503 637 512 640 529 640 l 536 640 b 525 628 518 622 515 622 b 509 622 504 625 500 631 z m 171 624 b 176 631 180 634 183 634 b 183 630 184 626 186 622 b 197 598 202 584 202 579 b 202 574 199 571 194 571 l 193 571 b 178 593 170 608 170 616 b 170 619 170 621 171 624 z m 379 466 b 373 466 367 473 362 486 b 365 483 371 477 380 466 z m 388 459 b 388 462 388 463 389 464 b 396 471 399 475 400 477 l 400 473 b 400 464 396 459 388 459 z m 337 390 b 337 395 339 397 342 397 b 366 397 378 390 378 376 b 378 372 374 370 366 370 b 347 370 337 377 337 390 z m 269 253 b 264 253 261 257 261 266 b 266 266 269 262 269 253 z m 449 22 b 434 22 427 26 427 35 l 427 36 b 436 31 443 28 449 27 b 514 25 552 24 561 25 l 554 22 z m 95 22 b 88 22 82 26 77 33 b 77 34 77 34 78 34 b 79 34 79 34 79 33 b 83 31 86 30 88 29 b 90 28 92 28 95 27 b 163 25 206 24 224 25 l 220 22 z"},"h":{"x_min":0,"x_max":596,"ha":596,"o":"m 323 243 l 323 49 b 323 19 338 4 367 4 l 536 4 b 566 4 581 18 581 47 l 581 655 b 581 684 567 698 538 698 l 367 698 b 338 698 323 683 323 653 l 323 479 l 268 479 b 268 545 267 604 266 655 b 259 684 245 698 224 698 l 52 698 b 24 698 10 681 10 646 l 10 58 b 10 22 25 4 55 4 l 224 4 b 254 4 269 23 269 60 l 269 243 z m 99 689 l 226 689 b 241 689 249 684 249 674 l 249 673 b 234 682 225 686 222 686 l 92 686 z m 414 689 l 538 689 b 545 689 554 684 563 673 l 562 673 l 561 673 l 536 686 l 407 686 z m 159 632 b 159 641 171 645 195 645 b 199 645 201 645 202 644 l 204 642 b 203 641 195 634 182 622 b 179 621 177 621 175 621 b 164 621 159 625 159 632 z m 473 632 b 473 641 487 645 516 645 l 516 642 b 516 629 507 622 489 622 b 478 622 473 625 473 632 z m 275 466 b 272 466 270 467 270 470 b 273 470 300 469 351 468 l 351 466 z m 213 419 b 213 422 215 424 220 424 l 224 424 l 282 410 b 285 409 287 408 287 406 b 287 401 276 399 255 399 l 237 399 b 221 403 213 410 213 419 z m 271 265 l 364 265 b 369 265 372 263 372 258 b 371 258 370 258 369 259 l 351 263 l 269 263 z m 228 27 b 223 24 220 22 217 22 l 101 22 b 85 22 77 26 77 35 l 77 36 b 85 30 95 27 106 27 z m 543 27 b 538 24 534 22 529 22 l 416 22 b 405 22 396 27 389 36 b 399 30 409 27 418 27 z"},"z":{"x_min":0,"x_max":559,"ha":559,"o":"m 55 538 b 55 501 74 483 111 483 l 199 483 l 17 83 b 14 76 12 67 12 57 b 12 20 28 2 59 2 l 451 2 b 470 2 486 16 498 45 b 507 69 518 96 529 125 b 534 138 536 150 536 162 b 536 193 516 212 477 219 l 433 219 b 409 219 387 218 366 217 l 359 217 l 359 221 l 544 631 b 545 631 545 635 545 643 b 545 681 528 700 493 700 l 142 700 b 121 700 104 684 91 653 b 67 597 55 559 55 538 z m 173 687 b 174 690 179 691 187 691 l 498 691 b 510 691 521 684 531 671 l 530 671 l 529 671 b 512 682 500 687 495 687 z m 361 622 b 361 627 368 630 383 633 b 430 642 455 646 457 646 l 482 646 l 482 644 b 482 623 450 613 387 613 b 370 613 361 616 361 622 z m 166 501 b 133 501 117 506 117 515 l 117 517 b 134 509 153 505 172 505 b 177 505 193 506 220 508 l 224 508 b 243 508 252 506 252 501 l 252 498 b 250 498 248 498 247 499 b 232 502 223 503 221 503 l 209 503 b 195 502 185 501 178 501 l 166 501 z m 363 207 b 376 207 404 208 448 210 l 460 210 b 493 210 513 203 522 188 b 505 200 480 206 447 206 b 424 206 399 205 372 204 l 363 206 z m 376 159 l 397 159 b 417 161 432 162 442 163 l 458 163 l 475 163 b 466 150 436 143 383 143 b 336 143 311 148 307 157 b 306 159 307 160 310 161 l 319 161 l 328 161 b 359 160 375 159 376 159 z m 103 20 b 92 20 84 25 77 34 b 86 28 95 25 102 25 l 460 25 l 457 22 b 456 21 338 20 103 20 z"},"B":{"x_min":0,"x_max":567,"ha":567,"o":"m 552 236 b 552 290 532 340 492 387 l 492 388 l 499 400 b 516 429 524 463 524 502 b 524 633 461 698 334 698 l 54 698 b 26 698 12 683 12 653 l 12 51 b 12 22 26 7 54 7 l 343 7 b 434 7 497 48 532 129 b 545 160 552 196 552 236 z m 101 689 l 341 689 b 358 689 385 682 421 667 b 458 652 477 637 477 624 l 477 622 b 432 665 386 686 339 686 l 92 686 z m 301 635 b 324 635 345 633 363 629 b 393 622 408 612 408 599 b 408 596 405 595 399 595 b 397 595 395 595 392 596 b 363 611 333 622 301 631 z m 263 522 l 297 522 b 312 522 319 517 319 508 l 319 507 b 304 516 285 519 261 518 l 259 520 z m 263 498 b 269 493 272 487 272 479 b 272 468 269 462 264 462 l 263 462 z m 275 444 b 269 444 264 446 261 449 l 264 449 b 269 449 279 448 292 447 b 287 445 281 444 275 444 z m 214 399 b 214 400 215 401 217 402 l 226 402 b 247 402 260 400 266 396 b 263 391 254 389 240 389 b 223 389 214 392 214 399 z m 261 291 l 306 291 b 325 291 337 284 341 271 b 313 282 286 288 259 289 z m 263 269 b 286 269 297 258 297 237 b 297 217 287 207 268 207 l 263 207 z m 268 191 b 265 192 262 194 261 196 l 262 196 b 264 196 279 195 306 193 b 301 192 293 191 281 191 l 268 191 z m 244 135 b 223 135 213 140 213 150 b 238 150 258 147 272 140 b 271 137 262 135 244 135 z m 377 31 b 367 26 351 24 330 24 l 99 24 b 90 24 82 29 77 38 b 86 32 94 29 99 29 l 339 29 b 357 30 368 31 373 31 l 377 31 z"},"K":{"x_min":0,"x_max":634,"ha":634,"o":"m 269 45 b 270 62 270 89 270 127 l 273 127 l 340 27 b 351 10 365 2 382 2 l 563 2 b 600 2 619 19 619 53 b 619 68 616 80 610 89 l 420 377 l 594 613 b 601 623 605 634 605 647 b 605 681 589 698 556 698 l 360 698 b 349 698 336 690 322 673 b 289 634 271 614 270 614 b 270 670 254 698 222 698 l 57 698 b 26 698 10 681 10 646 l 10 54 b 10 19 28 2 64 2 l 217 2 b 243 2 260 16 269 45 z m 101 689 l 226 689 b 243 689 251 683 251 672 l 251 671 b 237 681 228 686 224 686 l 95 686 z m 405 689 l 561 689 b 570 689 579 683 590 671 b 572 681 561 686 558 686 l 398 686 z m 444 629 b 444 632 452 635 467 638 b 500 642 522 644 531 644 l 541 644 l 538 642 b 526 630 502 624 465 624 l 449 624 b 446 624 444 626 444 629 z m 168 629 b 168 635 177 638 194 638 l 202 638 b 199 635 191 628 179 618 b 179 617 179 617 178 617 b 171 617 168 621 168 629 z m 276 555 b 268 555 264 559 264 568 l 264 571 b 267 564 274 561 286 561 l 286 560 b 286 557 283 555 276 555 z m 195 497 b 195 502 197 504 202 504 b 203 504 213 498 233 486 b 252 475 262 468 262 467 b 262 465 260 463 255 461 l 243 461 b 211 461 195 473 195 497 z m 276 204 b 271 204 268 207 268 213 b 268 214 268 215 269 216 b 274 213 276 209 276 204 z m 92 22 b 81 22 75 26 75 35 l 75 36 b 84 31 90 28 95 27 b 175 25 218 24 224 25 l 222 22 z m 418 22 b 403 22 396 26 396 35 l 396 36 b 408 29 415 26 418 26 l 581 26 l 576 22 z"},"R":{"x_min":0,"x_max":591,"ha":591,"o":"m 271 78 b 298 27 323 2 344 2 l 521 2 b 558 2 576 20 576 55 b 576 73 566 100 545 136 b 536 152 521 176 500 207 b 494 217 491 225 491 231 b 491 232 491 233 492 234 b 541 292 565 355 565 422 b 565 467 558 507 543 542 b 498 646 417 698 302 698 l 57 698 b 27 698 12 683 12 653 l 12 49 b 12 18 30 2 66 2 l 215 2 b 250 2 269 27 271 78 z m 108 689 l 293 689 b 394 689 464 657 503 593 b 439 655 370 686 295 686 l 97 686 z m 269 626 b 270 628 272 630 275 631 l 294 631 b 351 631 393 615 420 584 l 420 582 b 420 579 419 577 418 575 b 378 598 330 614 275 622 b 272 623 270 625 269 626 z m 265 496 b 265 499 271 500 282 500 b 311 500 333 491 347 473 b 323 488 296 496 265 496 z m 271 473 b 295 473 307 458 307 428 b 307 398 295 383 272 383 l 271 383 z m 283 366 b 276 366 271 368 269 372 b 276 369 289 369 306 370 b 300 367 292 366 283 366 z m 213 320 b 213 322 215 323 220 323 b 249 323 264 319 264 311 b 264 306 257 303 242 303 b 223 303 213 309 213 320 z m 274 167 b 267 167 264 172 264 182 l 264 183 b 271 178 274 172 274 167 z m 376 22 b 365 22 357 27 353 38 b 366 30 373 26 376 26 l 538 26 l 534 22 z m 95 22 b 89 22 83 26 77 33 b 77 34 77 34 78 34 b 80 34 86 31 95 26 l 228 26 l 224 22 z"},"T":{"x_min":0,"x_max":518,"ha":518,"o":"m 127 51 b 127 20 145 4 181 4 l 334 4 b 371 4 390 22 390 58 l 390 483 l 457 483 b 488 483 503 497 503 524 l 503 656 b 503 684 488 698 459 698 l 57 698 b 27 698 12 683 12 653 l 12 527 b 12 498 28 483 59 483 l 127 483 z m 103 689 l 459 689 b 469 689 478 684 486 673 l 484 673 l 483 673 b 467 682 458 686 457 686 l 94 686 z m 314 623 b 314 626 319 628 328 629 l 434 644 l 441 642 b 428 627 398 620 350 620 l 317 620 b 315 621 314 622 314 623 z m 175 498 b 120 498 86 505 74 518 l 76 518 l 77 518 b 80 516 82 514 83 513 b 92 508 98 506 99 506 l 170 506 b 173 506 175 503 175 498 z m 390 501 b 390 503 391 504 394 504 l 461 504 l 454 502 l 390 500 z m 212 24 b 205 24 199 27 194 33 l 196 33 b 197 33 203 31 212 28 l 350 28 l 346 24 z"},"P":{"x_min":0,"x_max":571,"ha":571,"o":"m 269 81 b 269 87 268 105 266 134 l 266 140 b 266 146 267 152 269 158 b 330 165 379 176 416 192 b 510 232 557 311 557 429 b 557 608 468 698 289 698 l 57 698 b 27 698 12 683 12 653 l 12 49 b 12 18 30 2 66 2 l 215 2 b 251 2 269 28 269 81 z m 300 689 b 375 689 438 661 489 606 l 487 606 b 431 658 368 684 298 684 l 95 684 l 95 689 z m 255 626 b 258 629 268 631 285 631 b 346 631 389 616 416 586 l 416 583 b 416 579 414 577 410 577 b 407 577 403 579 396 582 b 351 602 317 614 295 618 b 270 622 257 625 255 626 z m 265 496 b 265 499 270 500 279 500 b 312 500 330 492 335 475 b 317 489 294 496 265 496 z m 271 471 b 286 471 293 456 293 427 b 293 400 286 386 272 386 l 271 386 z m 283 366 b 276 366 271 368 269 372 b 276 370 288 369 304 370 b 297 367 290 366 283 366 z m 213 319 b 213 322 215 323 218 323 b 252 323 271 319 275 310 b 272 305 262 303 243 303 b 223 303 213 308 213 319 z m 358 192 b 363 193 366 194 369 194 l 371 194 b 370 193 367 192 362 192 l 358 192 z m 278 181 b 315 185 336 187 341 187 l 344 187 l 338 185 b 320 179 298 176 272 176 l 269 176 b 270 178 273 180 278 181 z m 97 22 b 91 22 84 27 77 36 b 82 29 88 26 97 26 l 231 26 l 222 22 z"},"t":{"x_min":0,"x_max":518,"ha":518,"o":"m 127 51 b 127 20 145 4 181 4 l 334 4 b 371 4 390 22 390 58 l 390 483 l 457 483 b 488 483 503 497 503 524 l 503 656 b 503 684 488 698 459 698 l 57 698 b 27 698 12 683 12 653 l 12 527 b 12 498 28 483 59 483 l 127 483 z m 103 689 l 459 689 b 469 689 478 684 486 673 l 484 673 l 483 673 b 467 682 458 686 457 686 l 94 686 z m 314 623 b 314 626 319 628 328 629 l 434 644 l 441 642 b 428 627 398 620 350 620 l 317 620 b 315 621 314 622 314 623 z m 175 498 b 120 498 86 505 74 518 l 76 518 l 77 518 b 80 516 82 514 83 513 b 92 508 98 506 99 506 l 170 506 b 173 506 175 503 175 498 z m 390 501 b 390 503 391 504 394 504 l 461 504 l 454 502 l 390 500 z m 212 24 b 205 24 199 27 194 33 l 196 33 b 197 33 203 31 212 28 l 350 28 l 346 24 z"},"M":{"x_min":0,"x_max":741,"ha":741,"o":"m 267 156 b 268 156 276 146 289 127 b 312 94 338 78 369 78 l 389 78 b 409 83 435 109 468 156 l 468 54 b 468 19 485 2 518 2 l 674 2 b 709 2 726 18 726 51 l 726 646 b 726 681 711 698 681 698 l 532 698 b 518 698 507 691 498 678 l 368 480 l 237 678 b 228 691 217 698 204 698 l 55 698 b 25 698 10 682 10 649 l 10 51 b 10 18 26 2 59 2 l 217 2 b 250 2 267 18 267 49 z m 99 689 l 204 689 b 223 689 233 683 233 670 l 233 669 b 220 680 210 686 204 686 l 95 686 z m 578 689 l 681 689 b 699 689 708 683 708 672 l 708 671 b 694 681 684 686 679 686 l 570 686 z m 610 626 l 616 629 b 628 635 640 638 652 638 l 659 638 l 628 609 b 626 607 624 606 623 606 b 614 609 609 614 609 621 b 609 623 609 625 610 626 z m 171 626 b 171 627 172 628 173 629 b 178 631 180 632 179 633 b 190 615 195 598 195 581 b 195 578 194 577 192 577 b 177 577 170 590 170 615 b 170 619 170 623 171 626 z m 387 445 b 380 445 374 451 369 464 b 381 453 387 447 387 445 z m 331 387 b 331 391 334 393 339 393 b 362 393 374 387 374 376 b 374 374 372 372 369 370 l 359 370 b 340 370 331 376 331 387 z m 513 238 b 513 245 514 250 516 252 b 517 251 518 249 518 246 b 518 241 516 238 513 238 z m 271 236 b 266 240 264 245 264 250 b 278 250 281 246 273 239 z m 388 98 b 379 98 372 101 367 107 l 369 107 l 371 107 b 384 102 393 100 396 100 b 395 99 393 98 388 98 z m 549 22 b 537 29 531 34 531 37 l 532 38 b 544 28 554 23 561 23 l 679 23 b 673 21 656 20 629 20 b 594 20 567 21 549 22 z m 167 20 l 124 20 b 99 21 83 25 77 33 b 87 28 95 25 101 25 l 228 25 l 226 22 b 225 21 205 20 167 20 z"},"g":{"x_min":0,"x_max":695,"ha":695,"o":"m 10 350 b 10 281 26 219 59 163 b 126 47 227 -11 364 -11 b 424 -11 482 4 539 33 b 571 50 602 75 632 108 b 664 144 680 169 680 183 l 680 379 b 680 410 665 425 634 425 l 429 425 b 400 425 385 409 385 377 l 385 293 b 385 281 392 269 407 256 b 401 245 387 240 364 240 b 297 240 263 278 263 353 b 263 426 294 463 355 463 l 356 463 b 377 455 402 451 433 451 b 444 451 454 451 464 452 b 474 455 487 464 502 480 l 550 549 b 571 579 581 601 581 616 b 581 650 548 677 482 697 b 447 707 404 712 353 712 b 210 712 106 644 41 507 b 20 464 10 411 10 350 z m 310 694 b 324 699 346 701 377 701 b 415 701 451 697 484 688 b 520 678 546 664 561 646 b 509 681 446 699 373 699 l 369 699 b 346 697 330 695 319 694 l 314 694 l 310 694 z m 387 636 b 387 640 391 643 398 644 l 416 644 b 457 644 478 639 478 629 l 478 628 b 469 623 457 621 442 621 b 405 621 387 626 387 636 z m 345 480 b 352 483 364 485 381 485 b 396 485 407 484 414 483 b 445 476 463 473 469 474 b 467 471 462 469 455 469 l 451 469 b 418 480 382 484 345 480 z m 632 416 b 643 416 654 410 663 399 b 649 408 639 412 632 412 l 469 412 l 469 416 z m 561 359 b 561 368 577 373 610 373 b 615 373 617 372 617 369 b 617 355 605 348 581 348 b 568 348 561 352 561 359 z m 467 262 b 454 262 447 267 447 278 l 447 280 b 448 279 450 279 451 278 b 462 271 469 266 473 264 b 473 263 471 262 467 262 z m 383 227 b 328 227 296 241 288 269 b 318 240 360 227 414 229 b 409 228 399 227 383 227 z m 339 163 b 278 163 247 180 247 214 b 317 214 352 199 352 168 b 352 165 348 163 339 163 z m 384 8 b 293 8 217 42 156 110 l 157 110 l 164 103 b 179 90 193 79 204 70 b 220 59 238 48 257 39 b 295 22 339 13 389 13 b 404 13 421 14 440 15 l 444 15 l 449 15 b 432 10 411 8 384 8 z"},"j":{"x_min":0,"x_max":408,"ha":408,"o":"m 166 696 b 141 685 129 670 129 649 l 129 218 b 129 211 121 206 106 205 b 42 199 10 180 10 147 l 10 60 b 10 23 25 4 55 4 l 246 4 b 344 4 393 57 393 163 l 393 649 b 393 682 378 698 349 698 l 173 698 b 172 698 169 697 166 696 z m 220 689 l 351 689 b 366 689 374 684 374 674 l 373 673 b 360 682 352 686 349 686 l 213 686 z m 284 631 b 284 640 296 644 321 644 b 326 644 328 643 329 642 b 315 627 305 619 299 619 b 289 619 284 623 284 631 z m 79 185 b 82 191 99 194 130 194 l 148 194 b 134 188 111 185 80 185 z m 280 29 b 271 24 259 22 244 22 l 97 22 b 88 22 81 27 75 36 l 76 36 l 77 36 b 83 33 87 30 90 29 b 93 28 96 27 97 27 l 253 27 b 262 28 270 29 275 29 l 280 29 z"},"i":{"x_min":0,"x_max":295,"ha":295,"o":"m 48 696 b 24 685 12 672 12 655 l 12 47 b 12 18 26 4 55 4 l 237 4 b 266 4 280 20 280 51 l 280 649 b 280 682 266 698 237 698 l 55 698 b 54 698 51 697 48 696 z m 99 689 l 240 689 b 246 689 253 684 262 673 l 261 673 l 260 673 b 257 675 254 677 253 678 b 244 683 238 686 237 686 l 92 686 z m 166 630 b 166 640 182 645 215 645 l 215 642 b 215 627 205 619 184 619 b 172 619 166 623 166 630 z m 99 22 b 92 22 84 27 77 36 b 89 29 96 26 99 26 l 240 26 l 233 22 z"},"y":{"x_min":0,"x_max":633,"ha":633,"o":"m 12 646 b 12 636 14 628 17 622 l 187 291 l 187 60 b 187 21 203 2 236 2 l 397 2 b 428 2 444 18 444 49 l 444 295 l 616 624 b 619 630 621 637 621 646 b 621 682 603 700 567 700 l 395 700 b 377 700 363 690 352 671 b 340 649 328 627 316 604 l 314 606 b 304 625 294 645 283 664 b 270 688 253 700 234 700 l 64 700 b 29 700 12 682 12 646 z m 99 689 l 247 689 b 252 689 260 683 269 671 b 254 682 240 687 225 687 l 97 687 z m 430 689 l 580 689 b 588 689 596 684 603 673 b 586 682 571 687 556 687 l 426 687 z m 482 633 b 482 642 502 647 541 647 b 547 647 553 647 558 646 b 551 633 530 626 497 626 b 487 626 482 628 482 633 z m 195 633 b 195 638 201 640 212 640 l 220 640 b 219 633 214 626 207 619 l 196 631 b 195 631 195 632 195 633 z m 338 561 b 331 561 325 566 321 577 b 330 570 336 566 337 566 b 340 565 344 566 348 568 l 348 567 b 348 563 345 561 338 561 z m 307 488 b 286 488 275 499 275 520 b 303 520 317 511 317 493 b 317 490 314 488 307 488 z m 406 25 b 403 22 395 20 383 20 l 283 20 b 263 20 253 25 254 34 b 263 28 272 25 281 25 z"},"p":{"x_min":0,"x_max":571,"ha":571,"o":"m 269 81 b 269 87 268 105 266 134 l 266 140 b 266 146 267 152 269 158 b 330 165 379 176 416 192 b 510 232 557 311 557 429 b 557 608 468 698 289 698 l 57 698 b 27 698 12 683 12 653 l 12 49 b 12 18 30 2 66 2 l 215 2 b 251 2 269 28 269 81 z m 300 689 b 375 689 438 661 489 606 l 487 606 b 431 658 368 684 298 684 l 95 684 l 95 689 z m 255 626 b 258 629 268 631 285 631 b 346 631 389 616 416 586 l 416 583 b 416 579 414 577 410 577 b 407 577 403 579 396 582 b 351 602 317 614 295 618 b 270 622 257 625 255 626 z m 265 496 b 265 499 270 500 279 500 b 312 500 330 492 335 475 b 317 489 294 496 265 496 z m 271 471 b 286 471 293 456 293 427 b 293 400 286 386 272 386 l 271 386 z m 283 366 b 276 366 271 368 269 372 b 276 370 288 369 304 370 b 297 367 290 366 283 366 z m 213 319 b 213 322 215 323 218 323 b 252 323 271 319 275 310 b 272 305 262 303 243 303 b 223 303 213 308 213 319 z m 358 192 b 363 193 366 194 369 194 l 371 194 b 370 193 367 192 362 192 l 358 192 z m 278 181 b 315 185 336 187 341 187 l 344 187 l 338 185 b 320 179 298 176 272 176 l 269 176 b 270 178 273 180 278 181 z m 97 22 b 91 22 84 27 77 36 b 82 29 88 26 97 26 l 231 26 l 222 22 z"},"X":{"x_min":0,"x_max":618,"ha":618,"o":"m 23 647 b 23 634 25 624 30 615 l 162 368 l 162 358 l 17 83 b 14 77 12 68 12 57 b 12 20 28 2 61 2 l 234 2 b 251 2 265 13 276 34 b 286 51 296 69 305 87 l 307 89 l 310 87 b 320 68 330 50 341 31 b 352 12 366 2 381 2 l 556 2 b 589 2 605 22 605 62 b 605 69 603 75 600 81 l 460 344 b 455 353 453 358 453 361 l 453 362 l 589 624 b 592 630 594 637 594 646 b 594 682 576 700 540 700 l 370 700 b 354 700 334 681 310 642 b 309 641 308 640 307 640 l 296 658 b 279 686 262 700 245 700 l 75 700 b 40 700 23 682 23 647 z m 113 689 l 254 689 b 267 689 277 679 285 660 b 270 678 254 687 236 687 l 104 687 z m 408 689 l 551 689 b 568 689 576 683 576 672 l 576 671 b 564 682 551 687 536 687 l 410 687 z m 453 631 b 458 640 479 644 515 644 l 529 644 b 522 631 501 624 468 624 b 460 624 455 626 453 631 z m 211 632 b 211 635 216 637 226 637 l 227 637 b 225 630 221 625 216 622 b 213 627 211 630 211 632 z m 332 590 b 320 589 314 594 314 603 l 314 604 b 320 599 326 595 332 593 z m 260 550 b 260 553 261 555 264 555 l 265 555 b 290 538 303 528 303 523 b 303 520 301 519 297 519 b 272 519 260 529 260 550 z m 426 20 b 416 20 407 25 399 36 b 414 27 423 23 426 23 l 560 23 l 551 20 z m 104 20 b 93 20 84 25 77 34 b 84 27 92 23 102 23 l 238 23 l 229 20 z"},"Y":{"x_min":0,"x_max":633,"ha":633,"o":"m 12 646 b 12 636 14 628 17 622 l 187 291 l 187 60 b 187 21 203 2 236 2 l 397 2 b 428 2 444 18 444 49 l 444 295 l 616 624 b 619 630 621 637 621 646 b 621 682 603 700 567 700 l 395 700 b 377 700 363 690 352 671 b 340 649 328 627 316 604 l 314 606 b 304 625 294 645 283 664 b 270 688 253 700 234 700 l 64 700 b 29 700 12 682 12 646 z m 99 689 l 247 689 b 252 689 260 683 269 671 b 254 682 240 687 225 687 l 97 687 z m 430 689 l 580 689 b 588 689 596 684 603 673 b 586 682 571 687 556 687 l 426 687 z m 482 633 b 482 642 502 647 541 647 b 547 647 553 647 558 646 b 551 633 530 626 497 626 b 487 626 482 628 482 633 z m 195 633 b 195 638 201 640 212 640 l 220 640 b 219 633 214 626 207 619 l 196 631 b 195 631 195 632 195 633 z m 338 561 b 331 561 325 566 321 577 b 330 570 336 566 337 566 b 340 565 344 566 348 568 l 348 567 b 348 563 345 561 338 561 z m 307 488 b 286 488 275 499 275 520 b 303 520 317 511 317 493 b 317 490 314 488 307 488 z m 406 25 b 403 22 395 20 383 20 l 283 20 b 263 20 253 25 254 34 b 263 28 272 25 281 25 z"},"c":{"x_min":0,"x_max":638,"ha":638,"o":"m 12 351 b 12 178 86 65 233 12 b 274 -3 322 -10 375 -10 b 411 -10 450 -6 493 3 b 514 7 537 14 561 25 b 604 43 625 66 625 94 b 625 106 617 127 601 157 b 594 171 580 195 559 230 b 545 254 523 266 492 266 b 477 266 450 259 411 245 b 402 242 392 241 381 241 b 308 241 272 279 272 354 b 272 427 306 464 375 464 b 380 464 401 458 440 446 b 451 443 465 441 482 441 b 490 441 498 441 506 442 b 523 446 537 457 548 475 b 565 505 576 524 581 532 b 603 573 614 600 614 614 b 614 641 596 662 559 678 b 503 701 439 713 367 713 b 199 713 89 640 36 495 b 20 450 12 402 12 351 z m 319 695 b 336 700 360 702 391 702 b 426 702 457 699 486 693 b 537 682 573 665 594 642 b 547 681 478 700 387 700 l 378 700 b 355 698 339 696 328 695 l 323 695 l 319 695 z m 403 636 b 403 638 404 639 407 640 l 432 640 b 467 640 493 636 508 627 l 509 626 b 509 621 497 618 472 618 b 452 618 430 622 407 629 b 404 632 402 634 403 636 z m 361 481 b 368 484 380 486 398 486 b 433 486 469 478 508 462 l 489 462 b 454 475 431 481 420 481 z m 403 227 b 339 227 303 243 294 274 b 324 245 361 230 405 230 l 414 230 b 425 231 433 232 438 232 l 442 232 l 447 232 b 438 229 424 227 403 227 z m 500 252 b 503 253 507 254 514 254 b 525 254 535 249 544 239 b 531 247 517 251 500 252 z m 353 162 b 336 162 320 166 303 173 b 272 188 256 202 256 215 b 281 215 319 199 369 168 b 370 168 370 168 370 167 b 370 164 364 162 353 162 z m 466 171 b 466 190 477 200 500 200 b 500 177 493 166 479 166 b 470 166 466 168 466 171 z m 396 9 b 294 9 212 44 151 113 b 226 47 309 14 400 14 b 413 14 436 15 469 18 l 474 18 l 480 18 b 455 12 427 9 396 9 z"},"6":{"x_min":0,"x_max":1219,"ha":1219,"o":"m 690 802 l 615 972 l 537 801 l 351 781 l 489 652 l 450 471 l 615 565 l 775 471 l 739 657 l 876 781 z m 663 562 l 642 576 l 631 634 l 592 634 l 583 576 l 564 562 l 541 576 l 586 834 l 639 834 l 682 576 z m 612 774 l 598 672 l 628 672 z m 616 39 b 618 43 619 46 619 49 b 623 45 621 43 624 39 l 631 21 l 610 21 z m 363 -5 l 363 3 l 352 3 l 352 -5 z m 883 -5 l 883 1 l 852 1 l 852 58 l 844 58 l 844 -5 z m 832 -5 l 832 1 l 795 1 l 795 22 l 829 22 l 829 30 l 795 30 l 795 49 l 832 49 l 832 58 l 787 58 l 787 -5 z m 573 -5 l 573 21 l 598 58 l 589 58 l 577 39 b 573 35 571 31 570 28 b 568 29 566 33 564 39 l 552 58 l 541 58 l 565 21 l 565 -5 z m 409 -5 b 412 -2 414 -4 415 0 b 418 0 420 2 421 6 b 421 7 423 9 423 13 b 423 15 422 18 420 22 b 417 25 414 27 411 28 b 414 28 416 30 417 34 b 419 35 420 37 420 40 b 420 44 419 47 417 49 b 416 52 413 54 409 55 b 408 55 404 58 400 58 l 376 58 l 376 -5 z m 213 -5 l 226 42 b 226 45 227 47 228 49 b 228 47 228 45 229 42 l 241 -5 l 249 -5 l 267 58 l 259 58 l 249 16 b 246 11 247 7 246 3 b 246 11 244 16 241 25 l 232 58 l 222 58 l 210 15 b 210 12 209 8 208 3 b 207 7 208 11 205 16 l 196 58 l 187 58 l 205 -5 z m 130 -5 l 144 42 b 144 45 145 47 147 49 b 147 47 147 45 148 42 l 160 -5 l 168 -5 l 186 58 l 177 58 l 168 16 b 165 11 167 7 163 3 b 163 11 163 16 160 25 l 150 58 l 141 58 l 129 15 b 129 12 128 8 127 3 b 124 7 123 11 123 16 l 115 58 l 105 58 l 123 -5 z m 384 49 l 396 49 b 401 49 404 49 405 48 b 406 48 405 46 408 46 l 409 46 b 410 45 411 43 411 40 b 411 37 410 35 409 34 b 409 33 408 33 405 33 b 404 31 401 30 397 30 l 384 30 z m 294 -5 l 307 42 b 307 45 308 47 310 49 b 310 47 311 45 312 42 l 324 -5 l 331 -5 l 349 58 l 342 58 l 331 16 b 330 11 331 7 327 3 b 327 11 325 16 324 25 l 313 58 l 304 58 l 292 15 b 292 12 291 11 291 3 b 287 7 289 11 286 16 l 277 58 l 268 58 l 285 -5 z m 664 49 l 684 49 b 690 49 693 49 694 48 b 696 46 697 43 697 40 b 697 37 697 35 696 34 b 696 31 695 30 693 30 b 689 30 686 28 682 28 l 664 28 z m 384 22 l 408 22 b 410 22 411 21 411 19 b 413 17 414 15 414 13 l 414 7 b 412 6 410 5 409 3 l 405 3 b 404 2 402 1 400 1 l 384 1 z m 442 -5 l 442 58 l 435 58 l 435 -5 z m 985 25 b 985 34 988 41 993 45 b 996 48 1000 49 1006 49 b 1011 49 1015 49 1018 48 b 1021 47 1024 44 1026 39 b 1027 36 1027 32 1027 27 b 1027 17 1025 10 1021 7 b 1018 3 1013 1 1006 1 b 999 1 994 3 990 7 b 987 10 985 16 985 25 z m 976 25 b 976 20 978 14 981 9 b 982 5 986 1 990 -3 b 995 -6 1001 -6 1006 -6 b 1012 -6 1017 -5 1021 -3 b 1025 0 1029 4 1032 9 b 1034 12 1035 18 1035 27 b 1035 35 1034 40 1033 42 b 1029 47 1028 51 1021 54 b 1017 55 1013 58 1006 58 b 996 58 989 55 985 49 b 979 44 976 36 976 25 z m 600 -5 l 609 13 l 634 13 l 642 -5 l 651 -5 l 625 58 l 616 58 l 592 -5 z m 495 -5 l 495 1 l 466 1 l 466 58 l 459 58 l 459 -5 z m 903 -5 l 903 3 l 892 3 l 892 -5 z m 766 19 l 766 7 b 765 6 763 7 759 3 b 756 2 752 1 748 1 b 743 1 739 2 736 3 b 735 4 733 7 729 13 b 727 15 726 20 726 27 b 726 31 727 35 727 39 b 730 42 732 44 732 45 b 734 47 736 48 739 49 l 756 49 b 760 48 762 47 762 45 b 765 42 766 40 766 39 l 774 40 b 773 43 771 46 768 49 b 767 52 764 54 760 55 b 757 57 753 58 748 58 b 743 58 736 55 732 54 b 727 52 723 48 721 42 b 720 35 717 33 717 25 b 717 20 720 14 721 9 b 724 2 728 1 733 -3 b 737 -5 742 -6 748 -6 b 752 -6 758 -5 762 -5 b 766 -4 770 -1 774 3 l 774 27 l 748 27 l 748 19 z m 664 -5 l 664 22 l 678 22 b 679 22 678 21 681 21 l 682 21 b 685 18 687 20 687 16 b 688 15 689 11 693 7 l 702 -5 l 712 -5 l 700 10 b 696 14 697 17 694 21 b 693 21 692 22 688 22 b 695 26 699 27 702 28 b 705 31 706 35 706 40 b 706 44 705 47 703 49 b 702 52 700 54 697 55 b 693 55 689 58 684 58 l 657 58 l 657 -5 z m 544 -5 l 544 1 l 514 1 l 514 58 l 505 58 l 505 -5 z m 961 16 b 960 12 958 9 955 6 b 952 3 948 1 943 1 b 938 1 934 2 931 3 b 930 7 927 9 927 13 b 924 16 922 21 922 27 b 922 31 924 35 924 39 b 928 43 927 45 931 48 b 933 49 937 49 943 49 b 948 49 952 49 954 48 b 958 46 960 43 960 39 l 969 40 b 966 47 964 50 960 54 b 956 55 950 58 943 58 b 938 58 935 55 928 54 b 926 53 923 50 918 45 b 916 37 915 31 915 27 b 915 23 916 17 918 9 b 922 5 923 1 928 -3 b 932 -5 937 -6 943 -6 b 950 -6 956 -4 960 0 b 964 2 967 7 969 15 z m 1054 -5 l 1054 48 l 1072 -5 l 1080 -5 l 1098 46 l 1098 -5 l 1105 -5 l 1105 58 l 1093 58 l 1080 13 b 1078 7 1077 4 1077 3 b 1077 7 1074 9 1074 13 l 1059 58 l 1047 58 l 1047 -5 z m 616 39 b 618 43 619 46 619 49 b 623 45 621 43 624 39 l 631 21 l 610 21 z m 363 -5 l 363 3 l 352 3 l 352 -5 z m 883 -5 l 883 1 l 852 1 l 852 58 l 844 58 l 844 -5 z m 832 -5 l 832 1 l 795 1 l 795 22 l 829 22 l 829 30 l 795 30 l 795 49 l 832 49 l 832 58 l 787 58 l 787 -5 z m 573 -5 l 573 21 l 598 58 l 589 58 l 577 39 b 573 35 571 31 570 28 b 568 29 566 33 564 39 l 552 58 l 541 58 l 565 21 l 565 -5 z m 409 -5 b 412 -2 414 -4 415 0 b 418 0 420 2 421 6 b 421 7 423 9 423 13 b 423 15 422 18 420 22 b 417 25 414 27 411 28 b 414 28 416 30 417 34 b 419 35 420 37 420 40 b 420 44 419 47 417 49 b 416 52 413 54 409 55 b 408 55 404 58 400 58 l 376 58 l 376 -5 z m 213 -5 l 226 42 b 226 45 227 47 228 49 b 228 47 228 45 229 42 l 241 -5 l 249 -5 l 267 58 l 259 58 l 249 16 b 246 11 247 7 246 3 b 246 11 244 16 241 25 l 232 58 l 222 58 l 210 15 b 210 12 209 8 208 3 b 207 7 208 11 205 16 l 196 58 l 187 58 l 205 -5 z m 130 -5 l 144 42 b 144 45 145 47 147 49 b 147 47 147 45 148 42 l 160 -5 l 168 -5 l 186 58 l 177 58 l 168 16 b 165 11 167 7 163 3 b 163 11 163 16 160 25 l 150 58 l 141 58 l 129 15 b 129 12 128 8 127 3 b 124 7 123 11 123 16 l 115 58 l 105 58 l 123 -5 z m 384 49 l 396 49 b 401 49 404 49 405 48 b 406 48 405 46 408 46 l 409 46 b 410 45 411 43 411 40 b 411 37 410 35 409 34 b 409 33 408 33 405 33 b 404 31 401 30 397 30 l 384 30 z m 294 -5 l 307 42 b 307 45 308 47 310 49 b 310 47 311 45 312 42 l 324 -5 l 331 -5 l 349 58 l 342 58 l 331 16 b 330 11 331 7 327 3 b 327 11 325 16 324 25 l 313 58 l 304 58 l 292 15 b 292 12 291 11 291 3 b 287 7 289 11 286 16 l 277 58 l 268 58 l 285 -5 z m 664 49 l 684 49 b 690 49 693 49 694 48 b 696 46 697 43 697 40 b 697 37 697 35 696 34 b 696 31 695 30 693 30 b 689 30 686 28 682 28 l 664 28 z m 384 22 l 408 22 b 410 22 411 21 411 19 b 413 17 414 15 414 13 l 414 7 b 412 6 410 5 409 3 l 405 3 b 404 2 402 1 400 1 l 384 1 z m 442 -5 l 442 58 l 435 58 l 435 -5 z m 985 25 b 985 34 988 41 993 45 b 996 48 1000 49 1006 49 b 1011 49 1015 49 1018 48 b 1021 47 1024 44 1026 39 b 1027 36 1027 32 1027 27 b 1027 17 1025 10 1021 7 b 1018 3 1013 1 1006 1 b 999 1 994 3 990 7 b 987 10 985 16 985 25 z m 976 25 b 976 20 978 14 981 9 b 982 5 986 1 990 -3 b 995 -6 1001 -6 1006 -6 b 1012 -6 1017 -5 1021 -3 b 1025 0 1029 4 1032 9 b 1034 12 1035 18 1035 27 b 1035 35 1034 40 1033 42 b 1029 47 1028 51 1021 54 b 1017 55 1013 58 1006 58 b 996 58 989 55 985 49 b 979 44 976 36 976 25 z m 600 -5 l 609 13 l 634 13 l 642 -5 l 651 -5 l 625 58 l 616 58 l 592 -5 z m 495 -5 l 495 1 l 466 1 l 466 58 l 459 58 l 459 -5 z m 903 -5 l 903 3 l 892 3 l 892 -5 z m 766 19 l 766 7 b 765 6 763 7 759 3 b 756 2 752 1 748 1 b 743 1 739 2 736 3 b 735 4 733 7 729 13 b 727 15 726 20 726 27 b 726 31 727 35 727 39 b 730 42 732 44 732 45 b 734 47 736 48 739 49 l 756 49 b 760 48 762 47 762 45 b 765 42 766 40 766 39 l 774 40 b 773 43 771 46 768 49 b 767 52 764 54 760 55 b 757 57 753 58 748 58 b 743 58 736 55 732 54 b 727 52 723 48 721 42 b 720 35 717 33 717 25 b 717 20 720 14 721 9 b 724 2 728 1 733 -3 b 737 -5 742 -6 748 -6 b 752 -6 758 -5 762 -5 b 766 -4 770 -1 774 3 l 774 27 l 748 27 l 748 19 z m 664 -5 l 664 22 l 678 22 b 679 22 678 21 681 21 l 682 21 b 685 18 687 20 687 16 b 688 15 689 11 693 7 l 702 -5 l 712 -5 l 700 10 b 696 14 697 17 694 21 b 693 21 692 22 688 22 b 695 26 699 27 702 28 b 705 31 706 35 706 40 b 706 44 705 47 703 49 b 702 52 700 54 697 55 b 693 55 689 58 684 58 l 657 58 l 657 -5 z m 544 -5 l 544 1 l 514 1 l 514 58 l 505 58 l 505 -5 z m 961 16 b 960 12 958 9 955 6 b 952 3 948 1 943 1 b 938 1 934 2 931 3 b 930 7 927 9 927 13 b 924 16 922 21 922 27 b 922 31 924 35 924 39 b 928 43 927 45 931 48 b 933 49 937 49 943 49 b 948 49 952 49 954 48 b 958 46 960 43 960 39 l 969 40 b 966 47 964 50 960 54 b 956 55 950 58 943 58 b 938 58 935 55 928 54 b 926 53 923 50 918 45 b 916 37 915 31 915 27 b 915 23 916 17 918 9 b 922 5 923 1 928 -3 b 932 -5 937 -6 943 -6 b 950 -6 956 -4 960 0 b 964 2 967 7 969 15 z m 1054 -5 l 1054 48 l 1072 -5 l 1080 -5 l 1098 46 l 1098 -5 l 1105 -5 l 1105 58 l 1093 58 l 1080 13 b 1078 7 1077 4 1077 3 b 1077 7 1074 9 1074 13 l 1059 58 l 1047 58 l 1047 -5 z m 616 39 b 618 43 619 46 619 49 b 623 45 621 43 624 39 l 631 21 l 610 21 z m 363 -5 l 363 3 l 352 3 l 352 -5 z m 883 -5 l 883 1 l 852 1 l 852 58 l 844 58 l 844 -5 z m 832 -5 l 832 1 l 795 1 l 795 22 l 829 22 l 829 30 l 795 30 l 795 49 l 832 49 l 832 58 l 787 58 l 787 -5 z m 573 -5 l 573 21 l 598 58 l 589 58 l 577 39 b 573 35 571 31 570 28 b 568 29 566 33 564 39 l 552 58 l 541 58 l 565 21 l 565 -5 z m 409 -5 b 412 -2 414 -4 415 0 b 418 0 420 2 421 6 b 421 7 423 9 423 13 b 423 15 422 18 420 22 b 417 25 414 27 411 28 b 414 28 416 30 417 34 b 419 35 420 37 420 40 b 420 44 419 47 417 49 b 416 52 413 54 409 55 b 408 55 404 58 400 58 l 376 58 l 376 -5 z m 213 -5 l 226 42 b 226 45 227 47 228 49 b 228 47 228 45 229 42 l 241 -5 l 249 -5 l 267 58 l 259 58 l 249 16 b 246 11 247 7 246 3 b 246 11 244 16 241 25 l 232 58 l 222 58 l 210 15 b 210 12 209 8 208 3 b 207 7 208 11 205 16 l 196 58 l 187 58 l 205 -5 z m 130 -5 l 144 42 b 144 45 145 47 147 49 b 147 47 147 45 148 42 l 160 -5 l 168 -5 l 186 58 l 177 58 l 168 16 b 165 11 167 7 163 3 b 163 11 163 16 160 25 l 150 58 l 141 58 l 129 15 b 129 12 128 8 127 3 b 124 7 123 11 123 16 l 115 58 l 105 58 l 123 -5 z m 384 49 l 396 49 b 401 49 404 49 405 48 b 406 48 405 46 408 46 l 409 46 b 410 45 411 43 411 40 b 411 37 410 35 409 34 b 409 33 408 33 405 33 b 404 31 401 30 397 30 l 384 30 z m 294 -5 l 307 42 b 307 45 308 47 310 49 b 310 47 311 45 312 42 l 324 -5 l 331 -5 l 349 58 l 342 58 l 331 16 b 330 11 331 7 327 3 b 327 11 325 16 324 25 l 313 58 l 304 58 l 292 15 b 292 12 291 11 291 3 b 287 7 289 11 286 16 l 277 58 l 268 58 l 285 -5 z m 664 49 l 684 49 b 690 49 693 49 694 48 b 696 46 697 43 697 40 b 697 37 697 35 696 34 b 696 31 695 30 693 30 b 689 30 686 28 682 28 l 664 28 z m 384 22 l 408 22 b 410 22 411 21 411 19 b 413 17 414 15 414 13 l 414 7 b 412 6 410 5 409 3 l 405 3 b 404 2 402 1 400 1 l 384 1 z m 442 -5 l 442 58 l 435 58 l 435 -5 z m 985 25 b 985 34 988 41 993 45 b 996 48 1000 49 1006 49 b 1011 49 1015 49 1018 48 b 1021 47 1024 44 1026 39 b 1027 36 1027 32 1027 27 b 1027 17 1025 10 1021 7 b 1018 3 1013 1 1006 1 b 999 1 994 3 990 7 b 987 10 985 16 985 25 z m 976 25 b 976 20 978 14 981 9 b 982 5 986 1 990 -3 b 995 -6 1001 -6 1006 -6 b 1012 -6 1017 -5 1021 -3 b 1025 0 1029 4 1032 9 b 1034 12 1035 18 1035 27 b 1035 35 1034 40 1033 42 b 1029 47 1028 51 1021 54 b 1017 55 1013 58 1006 58 b 996 58 989 55 985 49 b 979 44 976 36 976 25 z m 600 -5 l 609 13 l 634 13 l 642 -5 l 651 -5 l 625 58 l 616 58 l 592 -5 z m 495 -5 l 495 1 l 466 1 l 466 58 l 459 58 l 459 -5 z m 903 -5 l 903 3 l 892 3 l 892 -5 z m 766 19 l 766 7 b 765 6 763 7 759 3 b 756 2 752 1 748 1 b 743 1 739 2 736 3 b 735 4 733 7 729 13 b 727 15 726 20 726 27 b 726 31 727 35 727 39 b 730 42 732 44 732 45 b 734 47 736 48 739 49 l 756 49 b 760 48 762 47 762 45 b 765 42 766 40 766 39 l 774 40 b 773 43 771 46 768 49 b 767 52 764 54 760 55 b 757 57 753 58 748 58 b 743 58 736 55 732 54 b 727 52 723 48 721 42 b 720 35 717 33 717 25 b 717 20 720 14 721 9 b 724 2 728 1 733 -3 b 737 -5 742 -6 748 -6 b 752 -6 758 -5 762 -5 b 766 -4 770 -1 774 3 l 774 27 l 748 27 l 748 19 z m 664 -5 l 664 22 l 678 22 b 679 22 678 21 681 21 l 682 21 b 685 18 687 20 687 16 b 688 15 689 11 693 7 l 702 -5 l 712 -5 l 700 10 b 696 14 697 17 694 21 b 693 21 692 22 688 22 b 695 26 699 27 702 28 b 705 31 706 35 706 40 b 706 44 705 47 703 49 b 702 52 700 54 697 55 b 693 55 689 58 684 58 l 657 58 l 657 -5 z m 544 -5 l 544 1 l 514 1 l 514 58 l 505 58 l 505 -5 z m 961 16 b 960 12 958 9 955 6 b 952 3 948 1 943 1 b 938 1 934 2 931 3 b 930 7 927 9 927 13 b 924 16 922 21 922 27 b 922 31 924 35 924 39 b 928 43 927 45 931 48 b 933 49 937 49 943 49 b 948 49 952 49 954 48 b 958 46 960 43 960 39 l 969 40 b 966 47 964 50 960 54 b 956 55 950 58 943 58 b 938 58 935 55 928 54 b 926 53 923 50 918 45 b 916 37 915 31 915 27 b 915 23 916 17 918 9 b 922 5 923 1 928 -3 b 932 -5 937 -6 943 -6 b 950 -6 956 -4 960 0 b 964 2 967 7 969 15 z m 1054 -5 l 1054 48 l 1072 -5 l 1080 -5 l 1098 46 l 1098 -5 l 1105 -5 l 1105 58 l 1093 58 l 1080 13 b 1078 7 1077 4 1077 3 b 1077 7 1074 9 1074 13 l 1059 58 l 1047 58 l 1047 -5 z m 175 111 b 174 103 170 97 166 93 b 161 88 155 85 147 85 b 141 85 135 87 130 91 b 126 93 123 98 121 105 b 118 109 117 115 117 124 b 117 133 117 140 118 144 b 120 149 124 153 130 157 b 134 161 140 163 148 163 b 154 163 159 161 163 157 b 166 156 170 152 174 144 l 186 145 b 183 156 178 163 171 165 b 167 170 159 172 148 172 b 139 172 131 170 124 166 b 117 163 112 158 109 151 b 105 144 103 135 103 124 b 103 114 105 106 109 99 b 110 93 115 87 123 81 b 131 77 139 75 148 75 b 157 75 166 78 174 84 b 181 90 185 97 187 106 z m 199 123 b 199 114 201 106 205 99 b 208 91 213 85 220 81 b 228 77 235 75 244 75 b 251 75 259 77 267 81 b 274 85 280 91 285 99 b 289 107 291 115 291 124 b 291 131 289 140 285 150 b 280 158 274 163 268 166 b 261 170 253 172 244 172 b 232 172 221 168 213 159 b 202 151 199 139 199 123 z m 213 123 b 213 138 216 148 222 153 b 229 160 236 163 244 163 b 252 163 258 161 261 157 b 267 155 271 151 273 144 b 274 137 277 132 277 124 b 277 113 274 104 267 97 b 262 89 254 85 244 85 b 235 85 227 88 220 94 b 215 101 213 111 213 123 z m 318 78 l 318 157 l 345 78 l 357 78 l 384 156 l 384 78 l 396 78 l 396 171 l 381 171 l 357 106 b 355 98 353 93 351 91 b 351 94 349 99 346 105 l 324 171 l 306 171 l 306 78 z m 429 78 l 429 117 l 453 117 b 467 117 476 119 481 124 b 486 131 489 138 489 144 b 489 149 487 153 486 157 b 482 162 479 165 478 166 b 475 169 471 171 466 171 l 417 171 l 417 78 z m 429 162 l 453 162 b 459 162 462 161 463 159 b 466 159 470 157 474 153 b 475 152 475 149 475 144 b 475 137 473 133 469 132 b 468 128 463 126 454 126 l 429 126 z m 564 78 l 564 87 l 517 87 l 517 171 l 505 171 l 505 78 z m 649 78 l 649 87 l 591 87 l 591 120 l 643 120 l 643 132 l 591 132 l 591 162 l 648 162 l 648 171 l 579 171 l 579 78 z m 703 78 l 703 162 l 735 162 l 735 171 l 658 171 l 658 162 l 690 162 l 690 78 z m 819 78 l 819 87 l 760 87 l 760 120 l 813 120 l 813 132 l 760 132 l 760 162 l 817 162 l 817 171 l 748 171 l 748 78 z m 870 106 b 870 100 871 95 873 91 b 878 84 883 80 888 79 b 892 78 901 75 909 75 b 917 75 923 78 928 79 b 932 81 936 84 940 88 b 942 91 943 96 943 103 b 943 109 942 114 940 117 b 936 121 935 123 928 126 b 924 127 918 129 907 132 b 895 137 889 139 889 139 b 886 141 885 144 885 147 b 885 151 886 154 889 157 b 891 160 897 162 907 162 b 914 162 919 160 922 157 b 925 156 928 152 930 144 l 942 145 b 942 151 940 156 936 159 b 933 164 929 165 924 169 b 920 171 914 172 907 172 b 897 172 891 172 889 171 b 884 167 880 166 877 162 b 873 158 871 153 871 147 b 871 143 872 139 876 136 b 878 131 881 128 885 126 b 889 123 895 124 904 120 b 914 118 920 117 921 117 b 925 113 927 112 930 111 b 931 109 931 106 931 103 b 931 99 931 96 930 94 b 928 90 925 88 922 88 b 918 87 913 87 909 87 b 902 87 897 87 895 88 b 890 90 887 93 885 97 b 883 99 882 103 882 108 z m 1032 78 l 1032 87 l 975 87 l 975 120 l 1027 120 l 1027 132 l 975 132 l 975 162 l 1029 162 l 1029 171 l 961 171 l 961 78 z m 1086 78 l 1086 162 l 1117 162 l 1117 171 l 1044 171 l 1044 162 l 1074 162 l 1074 78 z m 127 190 l 127 229 l 150 229 b 165 229 174 232 177 237 b 183 243 186 250 186 259 b 186 264 185 268 183 270 b 180 274 178 279 175 280 b 169 282 165 283 163 283 l 112 283 l 112 190 z m 127 274 l 150 274 b 157 274 161 274 162 273 b 164 273 166 271 169 268 b 172 264 174 260 174 256 b 174 252 172 248 168 244 b 165 242 159 241 150 241 l 127 241 z m 271 190 l 271 202 l 214 202 l 214 234 l 265 234 l 265 244 l 214 244 l 214 274 l 268 274 l 268 283 l 201 283 l 201 190 z m 303 190 l 303 234 l 316 234 b 320 234 323 233 324 231 b 326 231 328 230 330 229 b 331 229 332 226 336 223 b 337 219 342 215 343 210 l 357 190 l 372 190 l 355 216 b 353 220 350 224 345 229 b 342 232 341 230 337 234 b 357 238 364 246 364 259 b 364 261 363 266 361 274 b 359 277 356 280 351 282 b 347 283 340 283 331 283 l 288 283 l 288 190 z m 303 274 l 331 274 b 338 274 343 273 346 270 b 349 267 351 263 351 259 b 351 255 350 252 349 250 b 347 249 345 247 342 244 b 340 243 335 243 327 243 l 303 243 z m 381 222 b 381 214 381 209 384 204 b 388 197 392 196 397 192 b 405 190 413 189 420 189 b 425 189 431 190 439 192 b 443 196 446 197 450 204 b 453 208 454 212 454 217 b 454 223 453 228 450 231 b 447 235 443 237 439 241 b 433 241 426 243 417 247 b 407 249 401 251 400 253 b 397 254 396 257 396 261 b 396 265 397 268 400 270 b 403 274 409 276 417 276 b 424 276 429 274 433 270 b 436 268 439 263 441 256 l 453 259 b 453 262 451 267 447 273 b 445 277 441 280 435 283 b 431 285 425 286 417 286 b 408 286 402 285 400 283 b 393 281 389 278 388 274 b 384 270 384 265 384 261 b 384 256 384 252 385 249 b 387 247 391 244 396 240 b 400 237 406 235 415 234 b 423 230 429 232 430 229 b 434 227 438 225 441 223 b 442 222 442 220 442 216 b 442 213 441 211 441 208 b 440 206 436 204 430 202 b 429 201 424 201 420 201 b 416 201 411 202 405 204 b 401 204 397 207 396 210 b 393 214 391 218 391 222 z m 468 237 b 468 227 470 219 474 214 b 475 207 480 201 489 196 b 496 191 504 189 513 189 b 521 189 529 191 537 195 b 543 199 548 204 552 211 b 556 219 558 228 558 237 b 558 247 556 255 552 262 b 548 270 545 276 537 280 b 526 284 521 286 513 286 b 500 286 489 282 480 273 b 472 263 468 251 468 237 z m 480 237 b 480 251 483 261 489 267 b 498 272 502 276 513 276 b 520 276 526 274 531 270 b 534 268 537 264 540 259 b 544 254 544 245 544 237 b 544 226 542 217 537 210 b 531 204 523 201 513 201 b 493 201 480 213 480 237 z m 585 190 l 585 264 l 636 190 l 648 190 l 648 283 l 636 283 l 636 211 l 586 283 l 573 283 l 573 190 z m 670 190 l 682 220 l 721 220 l 732 190 l 747 190 l 708 283 l 694 283 l 658 190 z m 696 256 b 697 263 700 269 700 274 b 703 270 704 263 708 255 l 717 229 l 684 229 z m 814 190 l 814 202 l 768 202 l 768 283 l 754 283 l 754 190 z m 922 231 b 922 218 920 209 916 205 b 911 202 905 201 897 201 b 890 201 887 201 883 204 b 880 205 878 207 876 211 b 874 214 873 221 873 231 l 873 283 l 862 283 l 862 231 b 862 218 863 210 864 208 b 868 203 872 196 877 195 b 881 191 888 189 898 189 b 908 189 916 191 921 195 b 926 198 929 202 931 208 b 933 212 934 220 934 231 l 934 283 l 922 283 z m 951 222 b 951 214 953 209 957 204 b 961 197 966 196 970 192 b 977 189 982 189 993 189 b 998 189 1003 190 1009 192 b 1016 196 1017 197 1021 204 b 1024 207 1026 211 1026 217 b 1026 224 1024 229 1021 231 b 1020 235 1016 237 1009 241 b 1006 241 999 243 988 247 b 968 251 967 254 967 261 b 967 266 969 269 973 270 b 974 274 979 276 988 276 b 996 276 1002 274 1005 270 b 1009 267 1008 263 1012 256 l 1024 259 b 1024 263 1021 269 1020 273 b 1017 277 1012 280 1006 283 b 1002 287 995 286 988 286 b 980 286 974 285 970 283 b 964 281 961 278 960 274 b 957 269 955 265 955 261 b 955 256 957 252 960 249 b 961 245 964 242 969 240 b 970 236 979 235 987 234 b 995 230 1001 232 1005 229 b 1009 228 1008 226 1012 223 b 1013 222 1014 220 1014 216 b 1014 212 1013 209 1012 208 b 1009 205 1007 203 1005 202 b 1002 201 997 201 990 201 b 987 201 982 202 976 204 b 972 204 970 207 967 210 b 966 214 963 218 963 222 z m 1113 190 l 1113 202 l 1057 202 l 1057 234 l 1107 234 l 1107 244 l 1057 244 l 1057 274 l 1111 274 l 1111 283 l 1044 283 l 1044 190 z m 307 388 b 307 379 300 369 285 357 b 277 350 265 346 250 345 b 245 342 236 343 232 343 b 223 344 216 346 210 348 b 219 353 226 361 234 372 l 258 397 l 267 408 b 275 408 281 406 285 406 b 300 404 307 398 307 388 z m 324 433 b 324 430 319 426 310 420 b 303 415 298 412 294 412 l 268 408 b 270 412 272 415 274 417 l 291 432 b 306 437 314 439 316 439 b 321 439 324 437 324 433 z m 342 460 b 339 462 335 463 330 463 l 324 463 b 312 467 303 469 297 469 b 294 469 292 469 289 469 b 274 469 260 464 246 454 b 233 443 226 432 226 421 b 226 415 229 410 235 406 b 235 407 235 408 234 409 b 231 412 229 416 229 420 b 229 433 238 444 256 453 b 271 461 285 465 298 466 b 303 466 310 465 319 462 b 299 456 274 435 243 400 l 225 379 b 226 382 226 386 226 391 l 226 393 b 222 386 223 380 219 376 b 215 372 211 368 207 363 b 207 362 203 359 195 354 b 180 363 172 374 172 387 b 172 394 175 400 181 406 b 183 410 185 412 187 412 l 190 417 b 176 407 168 395 166 382 b 166 368 172 357 183 349 b 175 345 170 343 162 343 b 158 343 155 345 148 346 b 141 348 136 352 132 358 b 128 365 126 370 126 379 b 126 389 130 401 139 415 b 149 427 159 436 169 441 b 170 443 176 446 186 450 b 193 454 199 456 205 456 b 210 456 215 454 220 451 b 216 455 209 457 198 457 b 187 456 177 453 166 444 b 149 433 137 420 130 405 b 126 394 124 389 124 381 b 124 367 129 356 139 349 b 145 343 154 340 165 340 b 173 340 180 342 187 346 l 187 345 b 182 341 176 339 168 339 l 163 339 b 167 338 172 336 178 334 l 181 334 b 186 334 192 336 198 340 b 205 337 211 336 217 336 b 219 336 221 335 224 335 b 230 335 238 337 247 339 b 263 340 279 346 292 354 b 311 367 321 379 321 391 b 321 401 312 407 294 409 b 317 414 331 421 336 430 l 336 436 b 336 441 334 444 330 444 b 327 444 324 445 321 445 b 317 445 314 444 310 444 b 306 441 301 440 297 436 b 310 449 321 457 331 459 b 335 459 335 457 339 457 b 342 457 343 458 343 460 z m 346 363 b 342 359 340 358 339 357 b 332 347 326 342 321 342 b 317 342 315 343 315 346 b 315 349 318 355 324 364 l 334 375 b 340 382 343 387 343 391 b 343 392 342 393 339 393 l 334 393 b 334 391 333 388 330 385 l 325 379 l 324 379 b 317 372 312 369 309 369 b 310 368 310 367 310 367 b 313 367 315 368 316 369 l 318 369 b 312 361 309 354 309 349 b 309 343 311 340 316 340 b 321 340 327 342 334 346 b 341 353 345 359 346 363 z m 354 405 b 354 406 355 408 355 409 b 355 410 354 410 354 411 l 346 414 l 346 411 b 344 404 340 400 333 400 l 328 400 b 332 397 336 396 339 396 b 345 396 350 399 354 405 z m 406 433 b 406 436 405 439 402 441 b 400 435 397 430 394 426 l 385 417 l 367 394 b 347 369 337 354 337 348 b 337 348 337 348 337 348 b 337 343 340 340 346 339 b 352 339 358 341 363 345 b 371 351 375 356 375 361 b 372 357 370 358 369 355 b 362 345 355 340 349 340 b 346 340 345 342 345 345 b 345 351 349 359 358 370 l 360 370 b 391 407 406 428 406 433 z m 432 433 b 432 436 430 439 427 441 b 426 437 423 432 418 426 l 409 417 l 391 394 b 371 369 361 354 361 348 b 361 343 364 340 370 339 b 376 339 382 341 387 345 b 395 351 399 356 400 361 l 394 355 b 385 345 379 340 375 340 b 371 340 369 342 369 345 b 369 350 374 358 384 370 b 416 408 432 429 432 433 z m 387 309 b 380 302 376 298 372 294 b 368 293 364 292 362 292 b 362 292 361 292 361 292 b 357 292 355 294 355 298 b 355 300 359 306 366 315 b 375 324 387 330 403 333 z m 447 430 b 444 425 440 419 436 411 l 418 394 b 397 375 387 360 387 348 b 387 343 389 340 394 340 b 398 340 404 340 412 348 l 403 334 l 399 334 b 396 334 394 333 393 333 b 382 332 368 325 351 313 l 361 315 l 360 313 b 356 309 355 304 352 303 b 350 300 350 298 350 295 b 350 292 351 290 355 289 b 358 285 363 283 369 283 b 376 285 382 289 388 295 l 406 318 b 413 327 420 332 424 336 l 426 337 b 418 333 412 330 409 328 l 423 346 l 435 366 b 440 374 442 379 442 381 b 442 384 441 386 439 388 l 439 397 b 433 375 423 358 408 346 b 404 344 401 343 400 343 b 397 343 396 345 396 348 b 396 353 399 360 405 369 b 404 366 403 364 403 362 b 403 361 403 361 403 360 b 403 362 404 364 406 366 b 413 375 419 382 426 390 b 426 391 427 390 427 393 b 438 404 445 416 447 430 z m 636 450 b 620 444 601 430 579 408 b 559 420 543 426 531 427 b 536 431 541 437 549 441 b 566 450 583 456 603 456 b 607 456 612 455 618 453 z m 627 420 b 616 408 608 398 604 393 l 589 402 l 600 412 b 612 424 619 431 622 433 b 633 444 641 444 649 447 z m 663 475 l 661 475 b 659 465 656 457 652 450 l 651 451 l 642 451 l 624 456 b 614 458 606 459 601 459 b 590 459 582 458 577 457 b 556 454 539 445 525 429 b 510 429 497 425 487 418 b 475 409 469 398 469 385 b 469 376 475 366 487 354 l 484 357 b 478 364 475 372 475 381 b 475 382 475 384 475 385 b 475 397 483 406 499 412 b 502 414 509 416 519 418 b 518 416 517 414 517 411 b 517 405 521 400 528 396 b 524 402 521 405 520 405 b 520 410 521 414 523 418 l 525 418 b 544 418 561 414 576 405 l 547 375 b 522 348 499 334 478 333 b 475 333 471 334 465 336 b 450 341 442 351 442 367 b 442 378 447 391 456 405 b 464 414 473 422 484 430 b 499 439 512 444 522 444 b 529 444 533 443 535 441 l 537 441 b 533 445 526 447 516 447 b 504 444 493 444 481 433 b 464 422 453 409 447 393 b 443 388 441 380 441 370 b 441 356 446 346 456 339 l 454 339 b 461 334 470 331 481 331 b 492 331 502 333 510 337 b 502 330 495 326 488 326 b 486 326 485 327 483 327 b 481 327 480 327 480 327 b 486 324 490 322 493 322 l 498 322 b 510 322 524 330 540 346 b 556 366 566 377 573 385 l 586 399 l 601 391 b 589 374 580 358 580 346 b 580 344 579 342 579 340 b 579 332 583 328 591 328 b 597 328 606 333 618 342 b 615 333 613 326 613 322 l 633 361 b 641 373 646 386 648 400 l 648 402 b 647 403 646 404 646 405 l 646 400 b 643 389 637 377 627 363 l 621 354 b 612 341 603 334 595 334 b 591 334 589 336 589 340 b 589 342 590 345 592 349 b 593 360 600 372 612 385 b 616 384 617 382 621 382 b 622 382 622 383 622 385 b 618 388 617 387 613 388 l 637 417 b 645 425 652 435 657 447 l 658 447 l 657 448 b 660 455 661 462 661 469 b 662 470 663 471 663 472 z m 682 375 b 682 381 678 385 670 388 b 675 395 678 399 678 400 l 676 402 b 675 402 675 401 675 400 b 668 394 664 391 664 390 b 664 387 666 388 666 387 b 663 382 657 375 648 367 b 639 357 632 352 628 352 l 631 351 l 637 354 b 646 358 657 368 669 385 b 672 383 674 381 674 378 b 674 378 673 377 673 376 b 673 374 670 369 663 360 b 654 351 649 344 649 340 b 649 338 652 337 657 337 b 657 338 657 339 658 339 b 659 339 660 339 661 340 l 658 340 b 665 351 670 358 681 367 b 682 369 682 372 682 375 z m 726 378 b 722 374 719 368 715 364 l 717 367 b 717 372 715 375 711 375 b 712 375 712 374 712 372 b 712 369 710 363 706 355 b 702 350 697 347 691 345 b 689 345 688 346 688 347 b 688 347 688 348 688 348 b 688 357 704 378 711 382 b 713 384 716 385 720 385 b 721 386 722 386 723 386 b 725 386 726 384 726 379 z m 759 393 b 757 396 754 397 751 397 b 747 397 743 395 738 390 l 730 381 l 729 381 b 729 389 725 393 718 393 b 713 393 708 390 702 384 b 689 372 682 361 682 352 b 682 344 686 340 694 340 b 696 340 699 341 702 342 l 685 318 b 675 303 666 295 658 295 b 658 295 657 295 657 295 b 656 295 655 296 655 297 b 654 298 654 299 654 300 b 654 303 654 305 655 307 b 659 319 671 328 690 334 l 688 336 b 684 336 685 334 682 334 b 670 331 659 325 649 315 b 652 315 655 315 657 316 b 653 312 651 308 651 303 b 651 303 651 300 651 295 b 653 291 657 289 662 289 b 663 289 663 289 664 289 b 671 289 681 297 694 313 b 697 317 706 328 715 348 b 726 364 733 376 741 385 b 746 390 750 393 754 393 z m 781 382 b 781 385 779 388 775 391 b 774 392 773 393 771 393 b 761 393 753 388 747 379 b 736 369 730 359 730 349 b 730 343 733 340 739 340 b 740 340 740 340 741 340 b 741 340 741 340 741 340 b 743 339 744 339 746 339 b 751 339 756 341 762 345 b 771 350 774 356 778 361 b 775 359 773 357 771 355 b 764 349 755 344 745 340 b 741 340 739 341 739 343 b 738 344 738 345 738 346 b 738 349 739 353 741 357 b 742 360 743 363 745 367 b 745 362 746 359 747 358 b 747 362 746 367 753 375 l 753 376 b 762 385 768 390 772 390 l 772 384 b 770 377 766 371 759 367 b 756 367 753 368 751 370 b 754 365 757 363 760 363 l 762 363 b 763 363 764 363 765 364 b 776 370 781 376 781 382 z m 841 433 b 841 436 840 439 837 441 b 837 437 834 432 828 426 l 819 417 l 801 394 b 782 371 772 356 772 348 b 772 344 775 341 780 339 b 787 339 793 341 798 345 b 806 351 810 356 810 361 b 807 357 805 358 804 355 b 797 345 790 340 784 340 b 781 340 780 342 780 345 b 780 351 784 359 793 370 b 825 408 841 429 841 433 z m 922 387 b 913 371 900 362 892 354 b 879 344 865 339 850 339 l 844 339 b 841 340 840 343 840 349 b 840 364 849 381 868 399 b 875 404 886 410 895 415 b 896 402 905 393 922 387 z m 936 405 l 925 391 b 908 394 899 403 897 417 b 914 425 928 429 940 430 l 952 430 z m 979 457 b 970 448 962 440 958 433 b 949 436 943 435 939 435 b 936 435 933 435 930 435 b 921 435 910 434 897 430 b 901 438 904 443 907 445 b 921 457 937 463 955 463 b 956 463 958 463 960 463 b 941 459 927 453 916 444 b 932 453 954 457 979 457 z m 1074 459 b 1070 458 1063 457 1054 457 b 1048 457 1040 459 1030 462 b 1021 466 1013 465 1005 468 b 1010 472 1016 474 1020 475 b 1020 475 1025 476 1036 478 b 1034 480 1031 481 1027 481 b 1025 481 1023 482 1021 482 b 1013 482 1006 477 991 468 l 990 468 b 979 469 975 469 964 469 b 943 469 926 464 913 453 l 900 439 b 900 435 899 432 897 430 b 878 422 863 411 852 397 b 843 386 837 373 835 358 b 835 357 835 355 835 354 b 835 349 836 345 837 340 b 823 345 815 357 813 375 b 813 387 817 400 825 414 b 831 424 840 434 852 444 b 866 455 879 461 892 463 b 898 463 903 462 906 459 l 907 460 b 902 464 896 466 889 466 b 876 466 861 459 844 444 b 831 429 821 419 814 400 b 810 392 811 384 811 375 b 812 361 819 349 831 340 b 835 338 837 337 838 337 b 843 332 850 328 858 324 l 846 336 l 855 334 b 863 334 874 337 888 343 b 877 333 866 328 856 328 b 862 328 868 328 873 327 b 884 327 896 334 909 348 b 917 356 924 368 939 384 l 946 384 b 954 384 964 386 973 390 b 983 395 990 400 993 406 l 991 406 b 987 396 973 390 948 388 l 940 388 l 951 403 b 955 411 962 418 970 427 l 994 423 b 1000 421 1006 420 1011 420 b 1014 420 1018 420 1021 421 b 1032 423 1040 426 1044 430 b 1039 427 1029 426 1015 426 b 1003 426 989 429 973 430 l 994 456 b 1010 456 1023 452 1032 445 b 1028 441 1030 439 1027 438 b 1028 437 1029 436 1030 436 l 1033 436 b 1040 436 1048 439 1056 444 b 1065 448 1070 452 1074 459 z m 982 354 b 975 347 971 343 969 343 b 967 343 966 344 966 346 b 966 347 966 347 966 348 b 966 354 970 363 979 375 b 979 371 978 368 978 364 b 978 360 979 357 982 354 z m 1002 385 b 1000 378 997 373 994 370 b 994 371 993 374 991 378 b 992 377 993 376 993 375 b 993 373 992 369 990 363 b 987 360 988 361 987 358 l 987 360 l 987 358 l 982 354 b 981 355 981 357 981 360 b 981 363 983 369 988 379 b 990 383 992 386 993 387 b 995 388 997 388 999 388 b 1001 388 1002 387 1002 385 z m 1008 381 b 1008 389 1004 393 997 393 b 988 393 980 388 973 379 b 962 366 957 356 957 348 b 957 343 960 340 966 340 l 978 340 b 982 343 988 349 997 358 b 1004 368 1008 376 1008 381 z m 1057 384 b 1056 388 1054 391 1050 393 b 1043 393 1036 390 1030 385 b 1030 389 1027 392 1021 394 b 1021 393 1023 391 1023 388 b 1023 384 1020 379 1015 372 l 1006 361 b 999 354 995 347 993 340 b 992 339 992 337 992 336 b 992 334 993 331 993 327 b 997 335 999 339 1000 340 b 1001 343 1004 348 1009 354 b 1017 363 1025 370 1029 379 b 1037 385 1041 388 1041 388 b 1042 389 1044 389 1045 389 b 1047 389 1048 387 1048 384 b 1048 381 1047 382 1047 379 b 1043 371 1040 366 1038 364 b 1039 366 1039 367 1039 367 l 1039 372 b 1038 369 1037 367 1036 366 b 1032 358 1029 353 1021 345 b 1013 336 1009 325 1008 313 b 1010 321 1014 329 1021 336 l 1039 352 b 1041 354 1045 359 1051 367 b 1055 374 1057 380 1057 382 b 1057 383 1057 384 1057 384 z m 1123 405 l 1108 405 l 1096 406 l 1102 415 b 1104 417 1105 420 1105 423 b 1105 427 1104 429 1102 430 b 1098 425 1094 417 1087 408 l 1083 409 b 1055 413 1039 417 1038 417 b 1017 417 1001 412 991 402 l 993 402 b 1005 407 1017 409 1029 409 l 1042 409 b 1048 409 1053 409 1057 408 l 1083 405 l 1048 363 b 1044 355 1042 350 1042 348 b 1043 344 1046 341 1051 339 b 1058 339 1064 341 1069 345 b 1076 351 1080 356 1080 361 b 1077 360 1078 358 1077 357 l 1075 355 b 1066 345 1059 340 1054 340 b 1052 340 1051 342 1051 345 b 1051 350 1053 355 1057 360 b 1059 365 1061 367 1063 367 b 1079 390 1092 401 1093 405 z m 1126 385 b 1126 387 1126 389 1125 390 b 1125 391 1123 392 1119 394 b 1115 394 1114 396 1110 396 b 1101 396 1096 391 1096 381 b 1096 377 1097 373 1098 370 b 1099 367 1099 363 1099 358 b 1099 347 1095 342 1087 342 b 1079 342 1075 346 1075 354 b 1075 356 1077 359 1080 364 b 1082 366 1085 367 1089 367 l 1092 367 l 1086 369 b 1074 367 1068 362 1068 354 b 1068 352 1068 350 1069 349 b 1071 343 1077 340 1086 340 b 1102 340 1110 346 1110 359 b 1110 360 1110 360 1110 361 b 1107 376 1105 385 1105 387 b 1106 391 1109 393 1114 393 l 1119 393 l 1119 387 b 1119 382 1117 378 1114 375 l 1116 376 b 1123 379 1126 382 1126 385 z"},"r":{"x_min":0,"x_max":591,"ha":591,"o":"m 271 78 b 298 27 323 2 344 2 l 521 2 b 558 2 576 20 576 55 b 576 73 566 100 545 136 b 536 152 521 176 500 207 b 494 217 491 225 491 231 b 491 232 491 233 492 234 b 541 292 565 355 565 422 b 565 467 558 507 543 542 b 498 646 417 698 302 698 l 57 698 b 27 698 12 683 12 653 l 12 49 b 12 18 30 2 66 2 l 215 2 b 250 2 269 27 271 78 z m 108 689 l 293 689 b 394 689 464 657 503 593 b 439 655 370 686 295 686 l 97 686 z m 269 626 b 270 628 272 630 275 631 l 294 631 b 351 631 393 615 420 584 l 420 582 b 420 579 419 577 418 575 b 378 598 330 614 275 622 b 272 623 270 625 269 626 z m 265 496 b 265 499 271 500 282 500 b 311 500 333 491 347 473 b 323 488 296 496 265 496 z m 271 473 b 295 473 307 458 307 428 b 307 398 295 383 272 383 l 271 383 z m 283 366 b 276 366 271 368 269 372 b 276 369 289 369 306 370 b 300 367 292 366 283 366 z m 213 320 b 213 322 215 323 220 323 b 249 323 264 319 264 311 b 264 306 257 303 242 303 b 223 303 213 309 213 320 z m 274 167 b 267 167 264 172 264 182 l 264 183 b 271 178 274 172 274 167 z m 376 22 b 365 22 357 27 353 38 b 366 30 373 26 376 26 l 538 26 l 534 22 z m 95 22 b 89 22 83 26 77 33 b 77 34 77 34 78 34 b 80 34 86 31 95 26 l 228 26 l 224 22 z"}}}
